<svg width="344" height="262" viewBox="0 0 344 262" fill="none" xmlns="http://www.w3.org/2000/svg">
<path d="M344 262V49.0001L0 49V262L344 262Z" fill="#E2ECFF"/>
<path d="M183.179 82L239 49H150.529L98 82H183.179Z" fill="#B0CBFF"/>
<path d="M183 82L183 227L97 226.997L97.0006 82H183Z" fill="#82ACFF"/>
<path d="M177 88L177 120L105 119.999L105.001 88H177Z" fill="white" stroke="#B5CEFF" stroke-width="2"/>
<path d="M177 120L177 155L105 154.999L105.001 120H177Z" fill="white" stroke="#B5CEFF" stroke-width="2"/>
<path d="M177 155L177 188L105 187.999L105.001 155H177Z" fill="white" stroke="#B5CEFF" stroke-width="2"/>
<path d="M177 188L177 220L105 219.999L105.001 188H177Z" fill="white" stroke="#B5CEFF" stroke-width="2"/>
<path d="M183 81.7533L183 228L239 195.244L239 49L183 81.7533Z" fill="#4D89FF"/>
<path d="M344 50V18L0 18V50L344 50Z" fill="#B5CEFF"/>
<path d="M236.311 36.6595L227.088 25.2034H234.005L224.782 13.7473H229.394L217.865 0L206.336 13.7473H210.947L201.724 25.2034H208.642L199.419 36.6595H215.559V45.8244H220.171V36.6595H236.311Z" fill="#CEE9D7"/>
<path d="M96.718 36.6595L87.7442 25.2034H94.4746L85.5007 13.7473H89.9877L78.7704 0L67.5531 13.7473H72.04L63.0662 25.2034H69.7965L60.8227 36.6595H76.5269V45.8244H81.0138V36.6595H96.718Z" fill="#CEE9D7"/>
<path d="M282.177 36.6595L273.203 25.2034H279.934L270.96 13.7473H275.447L264.23 0L253.012 13.7473H257.499L248.525 25.2034H255.256L246.282 36.6595H261.986V45.8244H266.473V36.6595H282.177Z" fill="#CEE9D7"/>
<path d="M329.041 36.6595L319.818 25.2034H326.735L317.512 13.7473H322.123L310.594 0L299.066 13.7473H303.677L294.454 25.2034H301.371L292.148 36.6595H308.289V45.8244H312.9V36.6595H329.041Z" fill="#CEE9D7"/>
<path d="M190.445 36.6595L180.972 25.2034H188.077L178.604 13.7473H183.34L171.5 0L159.66 13.7473H164.396L154.923 25.2034H162.028L152.555 36.6595H169.132V45.8244H173.868V36.6595H190.445Z" fill="#CEE9D7"/>
<path d="M146.573 36.6595L137.1 25.2034H144.205L134.732 13.7473H139.468L127.628 0L115.787 13.7473H120.524L111.051 25.2034H118.155L108.683 36.6595H125.26V45.8244H129.996V36.6595H146.573Z" fill="#CEE9D7"/>
<path d="M50.8517 36.6595L41.6286 25.2034H48.546L39.3228 13.7473H43.9344L32.4055 0L20.8766 13.7473H25.4882L16.2651 25.2034H23.1824L13.9593 36.6595H30.0997V45.8244H34.7113V36.6595H50.8517Z" fill="#CEE9D7"/>
<rect x="128" y="50" width="11" height="22" fill="#82ACFF"/>
<path d="M139 50H151V63.4444L139 72V50Z" fill="#4C89FF"/>
<path d="M186 50H197V63.4444L186 72V50Z" fill="#4C89FF"/>
<rect x="174" y="50" width="12" height="22" fill="#82ACFF"/>
<path d="M139.421 45H129L139.421 41H151L139.421 45Z" fill="#4C89FF"/>
<path d="M184.421 45H174L184.421 41H196L184.421 45Z" fill="#4C89FF"/>
<path d="M157.059 61.4548C142.911 82.8571 146.814 113.881 151.436 130.259C152.183 132.908 154.58 134.7 157.328 134.86C159.032 134.96 160.778 134.76 162.244 133.886C176.941 125.118 174.779 91.7924 171.67 75.4807L162.805 85.5009L157.059 61.4548Z" fill="#FFCC00"/>
<path d="M153.288 84.1866C143.564 98.8955 146.247 120.217 149.423 131.473C149.937 133.294 151.584 134.525 153.473 134.635C154.644 134.703 155.844 134.566 156.851 133.965C166.952 127.94 165.466 105.036 163.329 93.826L157.237 100.712L153.288 84.1866Z" fill="#FF6B0A"/>
<path d="M124.322 95.7288C101.653 130.021 107.908 179.729 115.312 205.971C116.51 210.216 120.35 213.087 124.753 213.344C127.484 213.503 130.282 213.184 132.63 211.783C156.178 197.734 152.715 144.338 147.733 118.202L133.528 134.257L124.322 95.7288Z" fill="#FFCC00"/>
<path d="M118.279 132.151C102.699 155.719 106.998 189.881 112.087 207.916C112.91 210.834 115.549 212.806 118.575 212.983C120.452 213.093 122.375 212.873 123.989 211.91C140.172 202.255 137.792 165.558 134.368 147.596L124.606 158.63L118.279 132.151Z" fill="#FF6B0A"/>
<path d="M344 52V49H0V52L344 52Z" fill="white"/>
</svg>
