<svg width="146" height="151" viewBox="0 0 146 151" fill="none" xmlns="http://www.w3.org/2000/svg">
<path d="M119.856 64.1645L119.528 61.6043L115.016 57.1327L111.024 55.9379L109.985 51.4321L107.525 49.4182L104.408 44.5027L103.013 40.8161L100.197 37.4709V33.3406L98.1465 30.6098L98.994 27.0597L98.3105 23.9193L93.0883 21.7347H91.3384L89.9713 19.789L86.4716 20.9496L83.3273 23.7486L81.0579 19.2087L78.4605 18.8332L75.5349 20.3693L73.0742 16L70.4767 17.8092L68.3714 16.2731L65.4185 17.024L64.5162 19.789L62.4383 20.9496L61.9188 24.4655L56.8879 25.2847L53.0601 27.2645L50.2713 31.3949L52.2125 32.3507V35.1156L48.0019 37.3002L45.7325 41.8061L44.0374 42.1815L43.3265 46.2777L46.4434 48.0869V51.0225H43.8186L42.9437 49.4182L40.8657 50.2033L39.6354 53.7533L36.1903 53.9581L37.366 57.8836L35.288 58.0884L32.1711 59.8293L29.0541 58.0884L24.6795 59.6587L22 61.7067L22.5742 62.7308L24.4061 68.9775L26.0466 71.879L26.5934 75.1901L27.9878 76.5896L28.0425 85.0892L25.6091 86.1133L23.8045 89.4585L24.7342 93.4182L27.1949 97.8557L27.0855 99.2211L28.9995 98.948L32.9367 101.201L35.042 99.9038L43.4632 98.5384L47.2363 98.3336L49.7518 96.0124L51.2829 96.1148L54.2358 97.9581L61.1806 99.1187L64.1335 100.791L64.653 102.362L68.8362 100.518L70.8048 102.532L72.4453 102.464L73.5116 101.303L77.1481 101.884L78.8159 102.771L82.5617 100.177L85.8701 100.655L86.3349 103.283L88.3582 104L90.6002 100.894L93.0883 100.723L95.1389 102.293L98.6113 101.099L100.717 103.147L103.341 102.771L103.587 98.1629L105.283 92.9403L108.837 92.5648L113.977 91.097L114.333 91.1652V87.7176L111.544 84.2017L111.899 80.481L109.439 76.1459L109.247 72.8006L110.313 70.616L112.938 73.3809L119.2 72.391L121.606 67.9193L123 66.5539L119.856 64.1645Z" fill="#B0CBFF"/>
<mask id="mask0_21_251" style="mask-type:alpha" maskUnits="userSpaceOnUse" x="15" y="10" width="115" height="132">
<rect x="15" y="10" width="115" height="132" rx="24" fill="white"/>
</mask>
<g mask="url(#mask0_21_251)">
<rect x="-0.5" y="-5.5" width="146" height="197" rx="15.5" stroke="black"/>
<path d="M9.28146 73.8871C8.90723 70.1623 19.8855 67.8003 28.7864 66.6513C32.8774 66.1232 37.0133 66.203 41.12 66.5911L64.2742 68.779C68.7745 69.2043 73.182 70.3221 77.341 72.0929C92.4943 78.5448 102.761 92.9359 103.931 109.364L105.659 133.642C106.874 150.703 94.3166 165.643 77.3011 167.382C75.6185 167.554 73.9249 167.59 72.2364 167.492L17.6616 164.302C2.82862 163.435 8.58724 154.355 2.85188 140.648C0.211051 134.337 9.82539 125.688 4.19864 111.487C-1.42812 97.2866 8.53985 97.5701 6.8077 85.7214C5.07554 73.8727 9.8681 79.7263 9.28146 73.8871Z" fill="#28314D"/>
<path d="M42.8075 62.1529L71.8907 70.415L80.8965 85.9485L86.1507 116.44L70.4424 115.462L42.8075 62.1529Z" fill="#E6EAFF"/>
<path d="M70.8612 129.005C62.5494 120.214 63.0667 93.6655 64.3643 81.4902L68.6058 82.9337L83.9799 126.428C83.0702 130.95 79.1729 137.796 70.8612 129.005Z" fill="#2E3956"/>
<path d="M32.4338 66.2222L43.1514 60.1588C51.6876 63.2455 64.0659 95.8396 69.188 111.751L32.4338 66.2222Z" fill="#343E5A"/>
<path d="M86.9316 85.2878L73.0906 72.4204C77.5404 79.9524 77.8989 116.986 81.5339 134.123C87.8412 123.581 90.4351 96.8819 86.9316 85.2878Z" fill="#343E5A"/>
<path d="M98.5009 81.7263C99.3376 82.1223 104.807 86.6034 107.603 95.1327C111.099 105.794 125.511 128.025 124.074 137.255C122.865 145.022 112.406 163.085 108.056 163.94C103.705 164.794 89.2269 167.596 91.2645 143.378C92.3032 140.524 100.212 137.726 103.012 134.262C103.369 133.821 103.68 133.497 103.953 133.271L99.9107 127.495C96.2729 117.06 88.6226 74.6487 98.5009 81.7263Z" fill="#28314D"/>
<path d="M58.3452 79.5555L59.9717 74.9978C61.5543 72.6414 68.6299 75.2701 71.9698 76.879C71.9865 77.9148 71.7113 80.7336 70.477 83.7221C69.2427 86.7105 59.652 80.4429 58.3452 79.5555Z" fill="#2E3956"/>
<path d="M107.91 113.986C105.155 109.091 89.8739 109.777 82.5776 110.731L79.6884 127.761C84.2623 129.886 94.8333 133.858 100.526 132.739C107.642 131.341 103.742 130.391 108.396 129.477C112.119 128.745 110.661 124.128 109.467 121.911C114.012 123.295 117.889 128.768 120.727 128.771C123.564 128.774 120.783 126.203 116.279 120.573C112.676 116.069 109.199 114.305 107.91 113.986Z" fill="#DBB9AD"/>
<path d="M10.9046 125.476C0.138891 120.861 2.11294 99.8517 5.81778 84.0639C7.28479 77.8124 13.1629 73.4599 19.198 75.6534C24.2919 77.5047 29.6354 80.9191 32.808 86.8485C34.3065 89.649 51.2522 108.047 54.4081 108.406C61.8917 109.258 69.9261 110.376 76.2342 111.331C78.4804 111.671 80.2551 113.398 80.6045 115.642C81.9202 124.094 83.0944 136.389 80.2806 137.907C76.1952 140.111 27.6567 132.658 10.9046 125.476Z" fill="#28314D"/>
<path d="M83.1112 110.416L74.3429 112.139C74.3429 112.139 71.7911 116.388 71.2578 119.435C70.4064 124.3 73.6958 131.469 73.6958 131.469C75.2895 131.915 79.0468 132.476 84.5953 131.944C88.765 131.544 85.7707 117.179 83.1112 110.416Z" fill="#E5EAFF"/>
<path d="M83.1112 110.416L79.9411 111.039C79.9411 111.039 81.3116 115.266 82.2592 119.095C84.1274 126.644 83.0302 132.113 83.0302 132.113L84.7833 131.944C89.8284 130.953 85.7707 117.179 83.1112 110.416Z" fill="#1B1411"/>
<path d="M87.0748 118.289L86.8628 117.21C86.5371 115.552 84.9294 114.473 83.2717 114.798C81.614 115.124 80.5342 116.732 80.8599 118.389L81.0718 119.468C81.3975 121.126 83.0053 122.206 84.6629 121.88C86.3206 121.555 87.4004 119.947 87.0748 118.289Z" fill="#D2C7C7"/>
<path d="M97.1111 161.536C108.421 149.787 101.144 142.6 96.0912 140.476C82.9013 138.233 84.6264 160.03 90.8384 162.768C95.8079 164.958 97.0908 162.859 97.1111 161.536Z" fill="#E5EAFF"/>
<path d="M97.5423 147.768C98.5236 144.633 97.2357 142.82 96.4691 142.305C95.6318 141.43 93.3557 140.934 90.9497 145.946C88.5438 150.958 85.2034 148.966 83.8339 147.344C82.3105 148.682 79.277 152.603 79.3301 157.581C79.3964 163.802 86.5122 162.404 88.3767 163.159C90.2412 163.913 93.1974 158.814 95.6593 158.331C97.6288 157.944 97.2399 155.382 96.7992 154.149C99.7631 153.118 98.5296 149.466 97.5423 147.768Z" fill="#DBB9AD"/>
<path d="M58.2523 84.9676L65.9196 72.1131L48.0822 55.1271L43.2042 60.4285L58.2523 84.9676Z" fill="#E6EAFF"/>
<path d="M89.0424 138.112C84.7141 139.187 83.219 145.257 83.8093 148.737C88.4373 151.471 94.5344 149.666 94.2301 146.69L94.1415 141.069C94.2452 139.635 93.3707 137.038 89.0424 138.112Z" fill="#DBB9AD"/>
<path d="M75.8776 85.183L69.6215 73.6626L76.1978 72.3707L75.8776 85.183Z" fill="#E5EAFF"/>
<path d="M81.1828 33.6681C78.7332 29.3551 75.1493 27.9612 72.3334 27.8745C71.0236 27.8341 69.6551 27.9033 68.448 28.4339C66.2999 29.3782 64.9872 32.1773 69.9631 38.7458C70.9005 39.9832 71.8211 41.0357 72.716 41.9273C78.2107 47.4016 85.0109 40.4082 81.1828 33.6681Z" fill="#AEA7A0"/>
<path d="M49.2919 62.0712C37.4175 45.2303 44.3784 33.11 50.2454 30.1251C76.3348 17.5919 84.8782 40.1324 85.4946 44.5358C86.111 48.9392 83.186 46.4021 84.4817 55.5125C85.7773 64.6229 82.0451 65.3185 83.2353 68.214C84.4254 71.1094 82.8869 72.2368 82.3404 74.0549C81.7939 75.873 64.1349 83.1222 49.2919 62.0712Z" fill="#DBB9AD"/>
<path d="M83.1698 60.8325C83.8852 60.9865 84.2789 61.3659 84.452 61.8668C85.4214 64.672 80.1838 66.8747 79.3549 64.0249C78.6893 61.7366 80.0205 60.1545 83.1698 60.8325Z" fill="#C77052"/>
<path d="M81.3596 58.0558L83.2551 57.7025C84.2302 57.5208 85.2288 57.9541 85.7695 58.7937C86.7636 60.3374 85.7514 62.3443 83.9259 62.4489L83.8822 62.4514C83.7161 62.4609 83.5518 62.4873 83.3918 62.5301L82.525 62.7622C80.4227 63.325 78.6511 61.0498 79.7416 59.1876C80.0887 58.5949 80.6777 58.1829 81.3596 58.0558Z" fill="#3D2110"/>
<path d="M71.3846 45.1404C73.4327 43.2013 77.2381 44.6983 78.8848 45.6893C79.7379 46.0993 80.8545 46.2985 78.4968 43.8149C75.5496 40.7103 70.6144 41.4205 68.9791 43.4324C67.3439 45.4443 68.8245 47.5643 71.3846 45.1404Z" fill="#C59881"/>
<path d="M74.7386 49.74C74.5915 49.7694 74.4445 49.7917 74.2979 49.8076C72.1093 50.045 72.3202 46.9676 74.5178 46.8127C76.7119 46.658 76.89 49.3097 74.7386 49.74Z" fill="white"/>
<path d="M84.5723 44.3019C83.5787 43.5221 82.708 45.0514 82.3968 45.9135C82.2159 46.2998 81.9145 46.6083 82.1563 44.7521C82.4587 42.432 84.0951 41.9971 84.977 42.8904C85.8589 43.7838 85.8142 45.2765 84.5723 44.3019Z" fill="#C59881"/>
<path d="M83.7365 49.3864C84.0197 49.4939 84.2563 49.4074 84.4498 49.2087C85.291 48.345 84.4094 46.0088 83.3495 46.5921C82.2798 47.1809 82.578 48.9468 83.7365 49.3864Z" fill="white"/>
<path d="M86.1017 57.4524C88.6147 55.611 84.9715 51.0432 82.8358 48.9894C84.2463 55.8017 79.0973 55.3604 78.7793 56.8557C78.4614 58.351 82.9604 59.7541 86.1017 57.4524Z" fill="#DBB9AD"/>
<path fill-rule="evenodd" clip-rule="evenodd" d="M84.6076 46.7288C84.6691 46.7655 84.7114 46.7802 84.7562 46.7812C84.9856 46.7865 85.1491 46.9162 85.2449 47.0743C85.3348 47.2224 85.372 47.4013 85.3811 47.5659C85.3904 47.7344 85.3715 47.9123 85.3284 48.0746C85.2861 48.2336 85.2149 48.3991 85.1035 48.5257C84.9968 48.6468 84.8628 48.7322 84.7031 48.7524C84.5474 48.7722 84.4081 48.7247 84.2974 48.6617C84.0871 48.5418 83.905 48.322 83.7668 48.1352C83.695 48.038 83.62 47.8945 83.6567 47.7303C83.696 47.5551 83.8343 47.4717 83.9222 47.4362C84.0135 47.3993 84.1127 47.3865 84.1922 47.3823C84.2754 47.3778 84.3581 47.3817 84.4272 47.3893C84.582 47.4062 84.6938 47.5454 84.6769 47.7002C84.66 47.855 84.5208 47.9667 84.366 47.9498C84.3562 47.9487 84.3459 47.9478 84.3355 47.947C84.4259 48.0549 84.5074 48.1323 84.5765 48.1717C84.5976 48.1837 84.6126 48.1891 84.6217 48.1915C84.6261 48.1926 84.6289 48.1929 84.6304 48.193C84.6311 48.1931 84.6316 48.1931 84.6319 48.1931L84.6321 48.193L84.6322 48.193L84.6322 48.193L84.6329 48.1928C84.6336 48.1926 84.6356 48.1918 84.6391 48.1898C84.6461 48.1857 84.6603 48.1757 84.6802 48.153C84.7141 48.1146 84.7543 48.0395 84.7834 47.9298C84.8116 47.8236 84.824 47.705 84.8181 47.5969C84.8119 47.485 84.7875 47.4074 84.7628 47.3667C84.7545 47.353 84.7483 47.3471 84.746 47.3451C84.7454 47.345 84.7445 47.345 84.7433 47.345C84.5616 47.3408 84.4215 47.2744 84.3188 47.2131C84.2811 47.1907 84.2431 47.1654 84.2131 47.1455C84.2049 47.1401 84.1973 47.135 84.1904 47.1306C84.1538 47.1065 84.13 47.0922 84.1101 47.0828C84.0845 47.0707 84.0803 47.0722 84.071 47.0756C84.0703 47.0759 84.0695 47.0762 84.0687 47.0764C84.0376 47.0875 83.961 47.1305 83.8276 47.2819C83.6434 47.4911 83.6086 47.6739 83.6191 47.8089C83.6304 47.9549 83.6968 48.0688 83.7424 48.1195L83.7739 48.1544L83.7923 48.1976C83.8609 48.3585 84.002 48.5882 84.1892 48.7464C84.3699 48.8991 84.564 48.965 84.7842 48.8911C84.9318 48.8415 85.0916 48.9209 85.1412 49.0685C85.1908 49.2161 85.1114 49.376 84.9638 49.4256C84.4991 49.5817 84.1035 49.4122 83.8253 49.1771C83.5699 48.9613 83.3894 48.674 83.2913 48.459C83.1818 48.3222 83.0768 48.1096 83.0569 47.8524C83.0342 47.5591 83.1239 47.2278 83.4044 46.9092C83.5615 46.7308 83.7152 46.6035 83.8803 46.545C84.0655 46.4793 84.2251 46.5133 84.3515 46.5732C84.4088 46.6004 84.4601 46.633 84.4998 46.6591C84.5118 46.667 84.5226 46.6742 84.5328 46.6809C84.5603 46.6992 84.5826 46.714 84.6076 46.7288ZM74.6381 46.9784C74.6758 46.8273 74.8289 46.7355 74.98 46.7732C75.5329 46.9115 75.8245 47.2626 75.9424 47.648C76.0462 47.9868 76.0131 48.338 75.9484 48.5796C75.9556 48.7722 75.8937 49.0155 75.7158 49.2353C75.5138 49.4849 75.1794 49.6845 74.676 49.7684C74.3802 49.8177 74.1488 49.8244 73.9643 49.7808C73.7616 49.733 73.6303 49.6281 73.5403 49.4981C73.5003 49.4403 73.471 49.3813 73.4491 49.3354C73.4424 49.3213 73.4364 49.3087 73.4309 49.2969C73.4163 49.2657 73.4048 49.2412 73.3904 49.2147C73.3575 49.1538 73.3238 49.1108 73.2628 49.0742C73.1652 49.0156 73.0838 48.9349 73.0328 48.8306C72.982 48.7265 72.9706 48.6177 72.9825 48.5173C73.0051 48.3266 73.1122 48.152 73.2283 48.0154C73.4607 47.742 73.8454 47.4868 74.2074 47.4265C74.3864 47.3967 74.5559 47.4071 74.7065 47.4724C74.8598 47.5388 74.9671 47.6506 75.0389 47.7762C75.1727 48.0104 75.1935 48.3119 75.1935 48.5505C75.1935 48.6951 75.1495 48.8628 74.9966 48.9653C74.8591 49.0574 74.7052 49.0458 74.6096 49.0266C74.4132 48.9873 74.2094 48.8653 74.0898 48.7799C73.9631 48.6894 73.9338 48.5133 74.0243 48.3866C74.1148 48.2599 74.2909 48.2305 74.4176 48.321C74.4625 48.3531 74.5192 48.3887 74.5772 48.4183C74.5949 48.4273 74.6118 48.4353 74.6275 48.4422C74.6203 48.266 74.5946 48.1352 74.5493 48.056C74.5271 48.0171 74.5052 47.9997 74.4823 47.9898C74.4567 47.9787 74.4029 47.9656 74.3001 47.9827C74.0981 48.0164 73.825 48.1841 73.6579 48.3806C73.5743 48.479 73.5463 48.5512 73.5425 48.5836C73.5425 48.5836 73.5425 48.5837 73.5425 48.5837C73.545 48.5856 73.5484 48.5879 73.5529 48.5906C73.7269 48.695 73.8225 48.8282 73.8864 48.9464C73.9091 48.9884 73.9301 49.0331 73.9462 49.0675C73.9505 49.0767 73.9545 49.0852 73.9581 49.0927C73.9777 49.1337 73.991 49.1585 74.0039 49.1771C74.0195 49.1997 74.0351 49.2182 74.0938 49.232C74.1707 49.2502 74.3152 49.2569 74.5833 49.2122C74.9821 49.1457 75.1803 49.0007 75.2775 48.8806C75.3783 48.756 75.3899 48.6354 75.3837 48.5854L75.3762 48.5254L75.394 48.4675C75.445 48.3016 75.4732 48.0417 75.4032 47.813C75.3395 47.6047 75.1925 47.4076 74.8432 47.3203C74.6921 47.2825 74.6003 47.1294 74.6381 46.9784ZM73.5366 48.5785C73.5367 48.5785 73.5368 48.5787 73.5371 48.5791C73.5368 48.5787 73.5366 48.5785 73.5366 48.5785ZM74.7396 48.4762C74.7397 48.4763 74.7386 48.4763 74.7363 48.4761C74.7384 48.476 74.7396 48.4761 74.7396 48.4762Z" fill="#3F3F3F"/>
<path d="M45.5891 35.1729C48.0386 30.8599 51.6225 29.466 54.4384 29.3793C55.7482 29.3389 57.1167 29.4081 58.3238 29.9387C60.472 30.883 61.7847 33.6821 56.8088 40.2505C55.8714 41.488 54.9508 42.5405 54.0558 43.4321C48.5611 48.9064 41.761 41.913 45.5891 35.1729Z" fill="#AEA7A0"/>
<path d="M45.561 48.2201C45.3587 44.9582 48.3541 44.9086 49.8416 46.7308C51.5756 48.8548 51.0461 51.9422 51.0462 54.6512C51.0462 57.8228 45.9382 54.3028 45.561 48.2201Z" fill="#C7A193"/>
</g>
</svg>
