<svg width="262" height="301" viewBox="0 0 262 301" fill="none" xmlns="http://www.w3.org/2000/svg">
<path d="M237.932 123.055L237.187 117.255L226.953 107.126L217.897 104.42L215.54 94.2135L209.958 89.6515L202.887 78.5172L199.723 70.1664L193.335 62.5889V53.233L188.683 47.0472L190.605 39.0057L189.055 31.8921L177.208 26.9435H173.238L170.137 22.5362L162.197 25.1651L155.064 31.5055L149.916 21.2217L144.024 20.3712L137.387 23.8507L131.804 13.9535L125.912 18.0515L121.136 14.5721L114.437 16.2731L112.39 22.5362L107.676 25.1651L106.498 33.1293L95.0848 34.985L86.4011 39.4697L80.0744 48.8256L84.4783 50.9906V57.2537L74.9263 62.2023L69.7781 72.4088L65.9324 73.2593L64.3197 82.5379L71.3908 86.636V93.2856H65.4362L63.4514 89.6515L58.7374 91.4299L55.9462 99.4714L48.1309 99.9353L50.798 108.827L46.084 109.291L39.013 113.235L31.942 109.291L22.0177 112.848L15.9392 117.487L17.2417 119.807L21.3975 133.957L25.1191 140.529L26.3596 148.029L29.5229 151.2L29.647 170.453L24.1266 172.772L20.0329 180.35L22.1418 189.319L27.7242 199.371L27.4761 202.464L31.8179 201.845L40.7497 206.949L45.5258 204.01L64.6299 200.918L73.1895 200.454L78.8959 195.196L82.3694 195.428L89.0683 199.603L104.823 202.232L111.522 206.021L112.7 209.578L122.19 205.402L126.656 209.964L130.378 209.81L132.797 207.181L141.046 208.495L144.83 210.505L153.328 204.629L160.833 205.712L161.887 211.665L166.477 213.289L171.563 206.253L177.208 205.866L181.86 209.423L189.737 206.717L194.513 211.356L200.468 210.505L201.026 200.067L204.872 188.237L212.935 187.386L224.596 184.061L225.402 184.216V176.407L219.076 168.442L219.882 160.014L214.3 150.194L213.865 142.617L216.284 137.668L222.239 143.931L236.443 141.689L241.901 131.56L245.065 128.467L237.932 123.055Z" fill="#B0CBFF"/>
<path d="M195.322 92.7288C172.653 127.021 178.908 176.729 186.312 202.971C187.51 207.216 191.35 210.087 195.753 210.344C198.484 210.503 201.282 210.184 203.63 208.783C227.178 194.734 223.715 141.338 218.733 115.202L204.528 131.257L195.322 92.7288Z" fill="#FFCC00"/>
<path d="M22.3222 64.7288C-0.346972 99.021 5.90779 148.729 13.3123 174.971C14.5101 179.216 18.3503 182.087 22.7536 182.344C25.4839 182.503 28.2819 182.184 30.6307 180.783C54.1785 166.734 50.7154 113.338 45.7329 87.202L31.5286 103.257L22.3222 64.7288Z" fill="#FFCC00"/>
<path d="M189.279 129.151C173.699 152.719 177.998 186.881 183.087 204.916C183.91 207.834 186.549 209.806 189.575 209.983C191.452 210.093 193.375 209.873 194.989 208.91C211.172 199.255 208.792 162.558 205.368 144.596L195.606 155.63L189.279 129.151Z" fill="#FF6B0A"/>
<path d="M16.2791 101.151C0.699512 124.719 4.99815 158.881 10.087 176.916C10.9102 179.834 13.5494 181.806 16.5756 181.983C18.452 182.093 20.375 181.873 21.9892 180.91C38.1726 171.255 35.7925 134.558 32.3683 116.596L22.6063 127.63L16.2791 101.151Z" fill="#FF6B0A"/>
<mask id="mask0_2_1086" style="mask-type:alpha" maskUnits="userSpaceOnUse" x="0" y="0" width="263" height="301">
<rect width="263" height="301" rx="24" fill="white"/>
</mask>
<g mask="url(#mask0_2_1086)">
<path d="M-12.3596 146.139C-13.325 136.53 18.9353 130.91 39.8265 128.782C43.9302 128.363 48.0629 128.42 52.1696 128.808L116.976 134.931C124.357 135.629 131.586 137.462 138.408 140.367L158.019 148.717C182.874 159.299 199.713 182.904 201.632 209.849L206.769 282C209.53 320.79 180.979 354.759 142.292 358.712C138.467 359.103 134.616 359.186 130.777 358.962L5.0964 351.616C-27.6881 349.699 -19.0871 331.447 -26.4888 299.452C-26.6091 298.932 -26.7712 298.424 -26.9781 297.929C-32.9824 283.58 -11.1229 263.916 -23.9161 231.628C-36.7093 199.341 -14.0457 199.985 -17.984 173.046C-21.9223 146.106 -11.0258 159.415 -12.3596 146.139Z" fill="#28314D"/>
<path d="M63.8667 119.459L129.991 138.244L150.467 173.562L162.414 242.888L126.698 240.666L63.8667 119.459Z" fill="#E6EAFF"/>
<path d="M127.651 271.456C108.753 251.469 109.929 191.108 112.879 163.425L122.523 166.707L157.478 265.597C155.409 275.878 146.548 291.443 127.651 271.456Z" fill="#2E3956"/>
<path d="M40.2804 128.711L64.6485 114.925C84.0566 121.943 112.2 196.05 123.846 232.227L40.2804 128.711Z" fill="#343E5A"/>
<path d="M164.189 172.06L132.719 142.804C142.837 159.929 143.652 244.13 151.916 283.094C166.257 259.126 172.154 198.421 164.189 172.06Z" fill="#343E5A"/>
<path d="M190.493 163.962C192.395 164.863 204.831 175.051 211.189 194.444C219.136 218.685 251.905 269.229 248.638 290.216C245.888 307.875 222.108 348.942 212.217 350.885C202.325 352.828 169.407 359.199 174.04 304.136C176.402 297.646 194.384 291.286 200.75 283.409C201.56 282.406 202.269 281.67 202.89 281.156L193.698 268.024C185.427 244.299 168.033 147.87 190.493 163.962Z" fill="#28314D"/>
<path d="M99.1936 159.027L102.892 148.664C106.49 143.307 122.577 149.283 130.171 152.941C130.209 155.296 129.583 161.705 126.777 168.5C123.971 175.295 102.165 161.044 99.1936 159.027Z" fill="#2E3956"/>
<path d="M211.886 237.309C205.622 226.18 170.878 227.739 154.289 229.909L147.72 268.628C158.119 273.461 182.154 282.49 195.097 279.947C211.276 276.769 202.41 274.608 212.991 272.53C221.457 270.867 218.141 260.369 215.426 255.328C225.759 258.474 234.575 270.918 241.026 270.925C247.478 270.931 241.154 265.086 230.914 252.285C222.723 242.045 214.816 238.034 211.886 237.309Z" fill="#DBB9AD"/>
<path d="M-8.66892 263.434C-36.3146 251.582 -27.0106 192.182 -16.8198 156.041C-15.0771 149.861 -9.35644 145.617 -3.02388 146.681C11.3166 149.09 31.0474 156.761 41.1316 175.608C44.5385 181.975 83.067 223.806 90.2422 224.622C107.257 226.558 125.525 229.102 139.867 231.272C144.974 232.045 149.009 235.972 149.803 241.075C152.795 260.292 155.465 288.246 149.067 291.697C139.778 296.707 29.4193 279.763 -8.66892 263.434Z" fill="#28314D"/>
<path d="M155.503 229.193L135.567 233.109C135.567 233.109 129.765 242.769 128.552 249.697C126.616 260.759 134.095 277.06 134.095 277.06C137.719 278.073 146.262 279.348 158.877 278.139C168.357 277.23 161.549 244.569 155.503 229.193Z" fill="#E5EAFF"/>
<path d="M155.503 229.193L148.295 230.609C148.295 230.609 151.411 240.22 153.565 248.925C157.813 266.088 155.318 278.524 155.318 278.524L159.304 278.139C170.775 275.886 161.549 244.57 155.503 229.193Z" fill="#1B1411"/>
<path d="M156.804 238.972L154.931 239.34C151.679 239.978 149.561 243.132 150.2 246.384L151.05 250.711C151.689 253.962 154.842 256.081 158.094 255.442L159.967 255.074C163.219 254.435 165.337 251.281 164.698 248.03L163.848 243.703C163.209 240.451 160.056 238.333 156.804 238.972Z" fill="#D2C7C7"/>
<path d="M187.334 345.42C213.049 318.708 196.502 302.368 185.015 297.537C155.026 292.438 158.948 341.998 173.072 348.222C184.371 353.201 187.288 348.429 187.334 345.42Z" fill="#E5EAFF"/>
<path d="M188.314 314.118C190.545 306.99 187.617 302.867 185.873 301.696C183.97 299.708 178.795 298.579 173.325 309.975C167.854 321.37 160.259 316.842 157.146 313.153C153.682 316.196 146.785 325.111 146.906 336.427C147.056 350.573 163.235 347.395 167.474 349.11C171.714 350.826 178.435 339.232 184.032 338.133C188.51 337.253 187.626 331.428 186.624 328.625C193.363 326.282 190.558 317.977 188.314 314.118Z" fill="#DBB9AD"/>
<path d="M98.9822 171.332L116.415 142.105L75.859 103.485L64.7684 115.539L98.9822 171.332Z" fill="#E6EAFF"/>
<path d="M168.988 292.163C159.147 294.606 155.748 308.409 157.089 316.321C167.612 322.536 181.475 318.432 180.783 311.667L180.581 298.885C180.817 295.626 178.829 289.72 168.988 292.163Z" fill="#DBB9AD"/>
<path d="M139.056 171.821L124.832 145.628L139.784 142.691L139.056 171.821Z" fill="#E5EAFF"/>
<path d="M156.283 69.8588C151.955 45.7602 137.471 40.7629 128.493 41.5981C127.185 41.7197 125.87 41.8447 124.576 42.0752C118.582 43.1426 112.506 48.9433 125.609 66.2401C132.795 75.7256 139.546 80.4317 145.09 82.4527C152.422 85.1253 157.657 77.5114 156.283 69.8588Z" fill="#AEA7A0"/>
<path d="M78.6099 119.274C51.6117 80.9836 67.4384 53.4264 80.7779 46.6399C140.096 18.144 159.52 69.3927 160.922 79.4045C162.323 89.4163 155.673 83.6478 158.619 104.362C161.565 125.075 153.079 126.657 155.785 133.24C158.491 139.823 154.993 142.387 153.75 146.52C152.508 150.654 112.358 167.136 78.6099 119.274Z" fill="#DBB9AD"/>
<path d="M155.636 116.457C157.262 116.808 158.158 117.67 158.551 118.809C160.755 125.187 148.847 130.195 146.962 123.716C145.449 118.513 148.475 114.916 155.636 116.457Z" fill="#C77052"/>
<path d="M147.208 113.799L147.956 112.52C148.672 111.298 149.887 110.448 151.294 110.186L156.144 109.282C158.172 108.904 160.248 109.805 161.372 111.551L161.975 112.487C164.042 115.697 161.937 119.87 158.142 120.087L157.201 120.141C156.86 120.161 156.522 120.215 156.193 120.303L152.949 121.171C148.613 122.332 144.959 117.64 147.208 113.799Z" fill="#3D2110"/>
<path d="M128.84 80.7791C133.497 76.3703 142.149 79.774 145.893 82.027C147.833 82.9593 150.372 83.4123 145.011 77.7653C138.31 70.7066 127.089 72.3215 123.371 76.8958C119.653 81.4701 123.02 86.2902 128.84 80.7791Z" fill="#C59881"/>
<path d="M136.466 91.2369C136.132 91.3037 135.797 91.3545 135.464 91.3907C130.488 91.9303 130.968 84.9335 135.964 84.5812C140.953 84.2294 141.358 90.2585 136.466 91.2369Z" fill="white"/>
<path d="M158.825 78.8727C156.566 77.0999 154.586 80.5768 153.878 82.5368C153.467 83.4151 152.782 84.1167 153.332 79.8964C154.019 74.6212 157.74 73.6325 159.745 75.6636C161.75 77.6947 161.648 81.0887 158.825 78.8727Z" fill="#C59881"/>
<path d="M156.925 90.4331C157.568 90.6774 158.106 90.4808 158.546 90.0291C160.459 88.0653 158.455 82.7535 156.045 84.0799C153.612 85.4185 154.29 89.4336 156.925 90.4331Z" fill="white"/>
<path d="M162.302 108.772C168.016 104.585 159.733 94.1998 154.877 89.5303C158.084 105.019 146.377 104.016 145.654 107.415C144.931 110.815 155.16 114.005 162.302 108.772Z" fill="#DBB9AD"/>
<path fill-rule="evenodd" clip-rule="evenodd" d="M158.905 84.3908C159.045 84.4742 159.141 84.5075 159.243 84.5098C159.764 84.5218 160.136 84.8168 160.354 85.1762C160.558 85.5128 160.643 85.9197 160.663 86.294C160.684 86.677 160.642 87.0814 160.544 87.4506C160.447 87.8121 160.285 88.1884 160.032 88.4761C159.79 88.7515 159.485 88.9457 159.122 88.9917C158.768 89.0366 158.451 88.9287 158.199 88.7853C157.721 88.5129 157.307 88.013 156.993 87.5882C156.83 87.3673 156.659 87.041 156.743 86.6678C156.832 86.2694 157.147 86.0797 157.346 85.999C157.554 85.9152 157.779 85.8861 157.96 85.8764C158.15 85.8662 158.338 85.8751 158.495 85.8923C158.847 85.9308 159.101 86.2472 159.062 86.5992C159.024 86.9511 158.707 87.2052 158.355 87.1668C158.333 87.1643 158.31 87.1622 158.286 87.1604C158.492 87.4057 158.677 87.5817 158.834 87.6713C158.882 87.6986 158.916 87.711 158.937 87.7162C158.947 87.7187 158.953 87.7195 158.957 87.7197C158.958 87.7199 158.959 87.7199 158.96 87.7199L158.961 87.7198L158.961 87.7198L158.961 87.7198L158.962 87.7193C158.964 87.7188 158.969 87.717 158.976 87.7124C158.992 87.7031 159.025 87.6803 159.07 87.6288C159.147 87.5415 159.238 87.3706 159.304 87.1214C159.369 86.8799 159.397 86.6102 159.383 86.3644C159.369 86.11 159.314 85.9336 159.258 85.8411C159.239 85.8098 159.225 85.7963 159.219 85.7919C159.218 85.7918 159.216 85.7917 159.213 85.7916C158.8 85.7821 158.482 85.6312 158.248 85.4919C158.162 85.4408 158.076 85.3834 158.008 85.3381C157.989 85.3258 157.972 85.3143 157.956 85.3041C157.873 85.2495 157.819 85.2169 157.774 85.1956C157.715 85.1679 157.706 85.1714 157.685 85.1792C157.683 85.1798 157.681 85.1804 157.68 85.1811C157.609 85.2062 157.435 85.3039 157.131 85.6482C156.712 86.1239 156.633 86.5395 156.657 86.8464C156.683 87.1785 156.834 87.4373 156.938 87.5525L157.009 87.6319L157.051 87.7301C157.207 88.0961 157.528 88.6182 157.954 88.9779C158.364 89.3251 158.806 89.475 159.306 89.3068C159.642 89.1941 160.005 89.3748 160.118 89.7104C160.231 90.046 160.05 90.4094 159.715 90.5222C158.658 90.8771 157.759 90.4917 157.126 89.9571C156.545 89.4665 156.135 88.8133 155.912 88.3245C155.663 88.0135 155.424 87.5301 155.379 86.9453C155.327 86.2785 155.531 85.5251 156.169 84.8009C156.526 84.3952 156.876 84.1057 157.251 83.9727C157.672 83.8235 158.035 83.9007 158.323 84.0369C158.453 84.0986 158.569 84.1729 158.66 84.2322C158.687 84.2501 158.712 84.2664 158.735 84.2817C158.797 84.3233 158.848 84.3569 158.905 84.3908ZM136.238 84.9581C136.323 84.6147 136.672 84.4058 137.015 84.4917C138.272 84.806 138.935 85.6043 139.203 86.4805C139.439 87.251 139.364 88.0493 139.217 88.5987C139.233 89.0366 139.093 89.5898 138.688 90.0896C138.229 90.6571 137.468 91.1108 136.324 91.3016C135.651 91.4137 135.125 91.4289 134.706 91.3299C134.245 91.2212 133.946 90.9827 133.742 90.6869C133.651 90.5556 133.584 90.4216 133.534 90.3171C133.519 90.2851 133.506 90.2563 133.493 90.2297C133.46 90.1587 133.434 90.1029 133.401 90.0428C133.326 89.9043 133.249 89.8064 133.111 89.7232C132.889 89.59 132.704 89.4066 132.588 89.1694C132.472 88.9327 132.446 88.6853 132.474 88.4571C132.525 88.0234 132.768 87.6265 133.032 87.316C133.561 86.6943 134.436 86.1141 135.258 85.977C135.666 85.9091 136.051 85.9328 136.393 86.0812C136.742 86.2323 136.986 86.4864 137.149 86.7721C137.453 87.3045 137.501 87.9902 137.501 88.5324C137.501 88.8612 137.4 89.2426 137.053 89.4756C136.74 89.6851 136.39 89.6586 136.173 89.6151C135.726 89.5258 135.263 89.2482 134.991 89.0541C134.703 88.8483 134.636 88.4479 134.842 88.1598C135.048 87.8718 135.448 87.805 135.736 88.0108C135.839 88.0838 135.967 88.1646 136.099 88.2319C136.14 88.2525 136.178 88.2706 136.214 88.2863C136.197 87.8858 136.139 87.5884 136.036 87.4081C135.985 87.3199 135.936 87.2802 135.883 87.2576C135.825 87.2324 135.703 87.2027 135.469 87.2416C135.01 87.3182 134.389 87.6996 134.009 88.1463C133.819 88.37 133.755 88.534 133.747 88.6079C133.747 88.6079 133.747 88.6079 133.747 88.608C133.752 88.6123 133.76 88.6176 133.77 88.6238C134.166 88.8612 134.383 89.164 134.529 89.4327C134.58 89.5282 134.628 89.6297 134.665 89.708C134.674 89.7289 134.684 89.7482 134.692 89.7653C134.736 89.8586 134.766 89.9149 134.796 89.9572C134.831 90.0086 134.867 90.0506 135 90.0821C135.175 90.1234 135.504 90.1385 136.113 90.037C137.02 89.8858 137.47 89.5561 137.691 89.2831C137.921 88.9997 137.947 88.7257 137.933 88.6119L137.916 88.4754L137.956 88.3439C138.072 87.9666 138.137 87.3757 137.977 86.8557C137.832 86.3822 137.498 85.934 136.704 85.7355C136.361 85.6496 136.152 85.3016 136.238 84.9581ZM133.733 88.5961C133.733 88.5961 133.734 88.5966 133.735 88.5975C133.734 88.5966 133.733 88.5961 133.733 88.5961ZM136.469 88.3636C136.469 88.3637 136.466 88.3639 136.461 88.3635C136.466 88.3632 136.468 88.3634 136.469 88.3636Z" fill="#3F3F3F"/>
<path d="M65.0268 73.28C69.3548 49.1815 83.8384 44.1842 92.8169 45.0193C94.1246 45.141 95.439 45.2659 96.7338 45.4965C102.727 46.5638 108.804 52.3646 95.7005 69.6613C88.5148 79.1469 81.7634 83.8529 76.2193 85.8739C68.8877 88.5465 63.6524 80.9327 65.0268 73.28Z" fill="#AEA7A0"/>
<path d="M70.1271 87.7811C69.5395 78.307 80.8166 80.7516 81.6547 88.7611C81.9687 91.7615 81.0844 94.7892 81.9 97.7041C82.2577 98.9824 82.5984 100.381 82.5985 102.403C82.5985 109.614 70.9848 101.611 70.1271 87.7811Z" fill="#C7A193"/>
</g>
</svg>
