<svg width="320" height="320" viewBox="0 0 320 320" fill="none" xmlns="http://www.w3.org/2000/svg">
<circle cx="160" cy="160" r="160" fill="#AED8FF"/>
<circle cx="160" cy="160" r="110" fill="#A1D2FF"/>
<circle cx="160" cy="160" r="60" fill="#93CBFF"/>
<path d="M152.089 112.668C137.414 119.747 140.71 136.505 144.193 144C133.114 144 122.488 125.046 118.56 115.569C107.181 116.584 81.4595 116.12 69.6028 106.14C54.782 93.6657 55.2679 56.6764 72.5184 30.7115C89.7688 4.74648 231.174 26.5048 254.377 27.0851C277.58 27.6653 292.523 56.0962 278.674 97.292C264.825 138.488 170.433 103.82 152.089 112.668Z" fill="white" stroke="#B1CCFF" stroke-width="2"/>
<path d="M183.528 261.139L190.158 263.689L200.421 256.194L169.616 213.325L136.183 187.002L183.528 261.139Z" fill="#808080"/>
<rect x="151.301" y="224.374" width="11.1564" height="6.3013" transform="rotate(-119.719 151.301 224.374)" fill="#C4C4C4"/>
<path d="M161.277 194.511L159.238 198.108L160.699 200.666L162.325 196.346L161.277 194.511Z" fill="#A7A7A7"/>
<rect x="144.337" y="212.174" width="11.1564" height="6.3013" transform="rotate(-119.719 144.337 212.174)" fill="#C4C4C4"/>
<path d="M193.769 268.764L189.85 263.983C200.138 253.709 209.529 250.202 212.939 249.733L215.115 253.546C204.288 259.25 196.373 266.068 193.769 268.764Z" fill="#A7A7A7"/>
<path d="M152.648 235.59L129.419 199.22C130.717 195.576 134.326 195.209 135.968 195.481L158.749 232.107C158.088 235.41 154.407 235.805 152.648 235.59Z" fill="#A7A7A7"/>
<path d="M131.762 174.985L113.74 147.27C114.742 141.44 119.465 141.811 121.702 142.725L140.207 171.235L131.762 174.985Z" fill="#9B9B9B"/>
<path d="M141.087 177.782L131.614 163.214C132.14 160.15 134.623 160.345 135.798 160.825L145.525 175.811L141.087 177.782Z" fill="#A7A7A7"/>
<path d="M128.285 184.106L130.561 180.488L135.861 189.773L132.024 190.655L128.285 184.106Z" fill="#C4C4C4"/>
<path d="M130.076 175.888L132.352 172.269L137.652 181.555L133.815 182.437L130.076 175.888Z" fill="#C4C4C4"/>
<path fill-rule="evenodd" clip-rule="evenodd" d="M161.034 200.872L166.952 209.701C167.249 208.085 168.219 205.106 169.728 206.124C171.614 207.397 183.909 205.077 185.463 203.476C187.017 201.875 180.276 184.491 177.475 187.607C174.681 190.714 149.357 183.373 148.92 182.8L148.917 182.796C148.918 182.797 148.919 182.799 148.92 182.8L154.409 190.988C161.39 192.276 172.173 193.858 175.143 192.642C179.632 190.804 180.018 197.429 177.587 198.381C175.55 199.179 165.168 200.724 161.034 200.872ZM140.403 169.13L142.444 167.965L150.962 180.231L148.316 181.742L140.403 169.13Z" fill="#A7A7A7"/>
<path d="M212.811 249.925L200.997 257.62L169.769 213.594L164.364 216.68L171.97 228.545L165.997 232.876L164.943 233.478L161.071 231.227L129.725 180.846L131.228 179.988C131.669 179.737 132.705 179.002 133.32 178.08C133.936 177.158 132.128 173.527 131.148 171.827L140.839 168.644L155.285 190.669C160.873 199.364 172.677 216.865 175.191 217.309C178.333 217.865 185.708 222.814 190.283 226.298C193.944 229.085 191.973 231.984 190.53 233.085C191.746 237.173 201.543 240.448 206.289 241.574L212.811 249.925Z" fill="#9B9B9B"/>
<path d="M136.967 190.75C146.489 190.75 152.653 194.256 154.544 196.009C162.739 213.528 133.777 226.394 131.404 229.799C129.031 233.205 124.358 228.285 121.948 228.285C119.538 228.285 119.389 226.772 115.125 225.258C110.86 223.745 113.271 217.918 109.192 217.35C105.113 216.783 106.967 213.566 102.739 212.242C98.5118 210.918 102.554 207.172 97.7331 206.415C92.9123 205.658 97.3622 202.442 93.654 200.928C89.9457 199.415 91.2066 197.417 91.2066 194.117C91.2066 188.593 117.312 168.879 117.313 171.187C126.42 172.458 134.21 184.758 136.967 190.75Z" fill="white"/>
<path d="M9.32566 137C103.53 137 104.955 169.027 115.374 170.446C123.609 173.678 130.807 183.514 93.7229 197C90.3293 195.649 92.3994 193.959 88.3271 193.791C84.2549 193.622 89.6846 186.392 81.3704 189.095C73.0562 191.797 75.6353 187.912 70.2057 187.912C65.8619 187.912 66.3823 185.885 67.1854 184.872C65.8846 185.378 62.4005 185.885 58.8713 183.858C56.0465 182.236 58.9957 180.281 60.5474 179.475C56.9743 180.94 49.0607 177.639 47.3672 175.953C46.4094 174.999 49.1818 173.831 51.2598 173.176C46.9762 173.487 37.6927 172.005 36.3043 170.446C35.0283 169.014 39.3245 166.561 41.6321 165.514C37.1187 165.739 27.8883 165.851 27.0738 164.5C26.3805 163.35 31.0809 160.943 34.6017 159.405C28.1407 161.781 22.7002 159.995 20.6601 158.689C27.7639 154.601 39.9829 147.554 32.0284 152.068C24.074 156.581 18.3072 153.948 16.4181 152.068C23.3636 150.187 34.9808 146.426 25.8861 146.426C16.7914 146.426 8.83926 144.218 6 143.115C14.5178 142.484 29.3747 141.128 20.6601 140.75C11.9455 140.372 9.47272 138.092 9.32566 137Z" fill="white"/>
<path d="M182.033 189.75C172.511 189.75 166.347 193.256 164.456 195.009C156.261 212.528 185.223 225.394 187.596 228.799C189.969 232.205 194.642 227.285 197.052 227.285C199.462 227.285 199.611 225.772 203.875 224.258C208.14 222.745 205.729 216.918 209.808 216.35C213.887 215.783 212.033 212.566 216.261 211.242C220.488 209.918 216.446 206.172 221.267 205.415C226.088 204.658 221.638 201.442 225.346 199.928C229.054 198.415 227.793 196.417 227.793 193.117C227.793 187.593 201.688 167.879 201.687 170.187C192.58 171.458 184.79 183.758 182.033 189.75Z" fill="white"/>
<path d="M309.674 134C215.47 134 214.045 167.095 203.626 168.561C195.391 171.901 188.193 182.064 225.277 196C228.671 194.604 226.601 192.858 230.673 192.684C234.745 192.509 229.315 185.038 237.63 187.831C245.944 190.624 243.365 186.609 248.794 186.609C253.138 186.609 252.618 184.515 251.815 183.467C253.115 183.991 256.599 184.515 260.129 182.42C262.953 180.744 260.004 178.724 258.453 177.891C262.026 179.405 269.939 175.993 271.633 174.251C272.591 173.266 269.818 172.058 267.74 171.381C272.024 171.703 281.307 170.171 282.696 168.561C283.972 167.081 279.675 164.546 277.368 163.464C281.881 163.697 291.112 163.813 291.926 162.417C292.619 161.228 287.919 158.741 284.398 157.151C290.859 159.607 296.3 157.761 298.34 156.412C291.236 152.188 279.017 144.906 286.972 149.57C294.926 154.234 300.693 151.513 302.582 149.57C295.636 147.627 284.019 143.74 293.114 143.74C302.209 143.74 310.161 141.459 313 140.319C304.482 139.667 289.625 138.266 298.34 137.875C307.055 137.484 309.527 135.129 309.674 134Z" fill="white"/>
<path d="M139.455 195.767C146.095 191.647 152.246 155.789 154.492 138.375C161.241 137.337 173.81 135.885 170.088 138.375C165.435 141.487 166.44 146.637 163.35 162.68C160.261 178.723 170.088 191.098 183.078 200.398C196.068 209.698 185.125 240.191 174.74 259.828C164.355 279.465 154.492 277.946 135.807 272.24C117.122 266.534 122.817 247.971 122.817 227.816C122.817 207.66 131.154 200.917 139.455 195.767Z" fill="white"/>
<path d="M135.079 284.551C140.538 274.748 138.635 269.658 137.001 268.338C133.549 266.867 133.314 270.186 133.039 278.481C132.765 286.776 129.47 291.376 127.705 293.375C125.94 295.373 116.331 298.766 118.253 299.445C119.79 299.988 123.077 298.264 124.528 297.334C123.116 299.747 121.775 303.412 127.705 298.766C135.118 292.96 143.864 297.975 144.806 297.334C145.559 296.821 143.943 295.536 143.041 294.958C141.668 294.732 138.154 294.099 135.079 293.375C132.004 292.651 133.798 287.191 135.079 284.551Z" fill="#FF6B0A"/>
<path d="M161.554 284.551C156.296 274.748 158.129 269.658 159.703 268.338C163.027 266.867 163.253 270.186 163.518 278.481C163.782 286.776 166.955 291.376 168.654 293.375C170.354 295.373 179.607 298.766 177.757 299.445C176.276 299.988 173.111 298.264 171.714 297.334C173.073 299.747 174.365 303.412 168.654 298.766C161.516 292.96 153.094 297.975 152.187 297.334C151.462 296.821 153.018 295.536 153.887 294.958C155.209 294.732 158.593 294.099 161.554 293.375C164.515 292.651 162.788 287.191 161.554 284.551Z" fill="#FF6B0A"/>
<path d="M155.178 124.247C155.386 118.904 160.508 118.88 163.044 119.535C169.871 118.009 168.943 127.401 170.501 129.33C172.06 131.26 171.948 133.152 171.429 138.791C170.909 144.431 163.044 149.403 158.999 148.846C154.955 148.29 152.321 142.576 150.725 136.825C149.13 131.074 154.918 130.926 155.178 124.247Z" fill="white"/>
<ellipse cx="1.33452" cy="2.0971" rx="1.33452" ry="2.0971" transform="matrix(-0.978865 0.204508 0.204508 0.978865 169.98 124.206)" fill="#0D070C"/>
<ellipse cx="154.973" cy="126.767" rx="1.33452" ry="2.0971" transform="rotate(6.93695 154.973 126.767)" fill="#0D070C"/>
<ellipse cx="168.207" cy="136.446" rx="3.2252" ry="4.5429" transform="rotate(22.9491 168.207 136.446)" fill="url(#paint0_radial_137159_809)"/>
<ellipse cx="154.546" cy="135.983" rx="3.2252" ry="4.5429" transform="rotate(-35.1816 154.546 135.983)" fill="url(#paint1_radial_137159_809)"/>
<ellipse opacity="0.2" cx="0.598251" cy="0.940109" rx="0.598251" ry="0.940109" transform="matrix(-0.895075 0.445916 0.445916 0.895075 155.14 124.96)" fill="white"/>
<ellipse opacity="0.2" cx="0.598251" cy="0.940109" rx="0.598251" ry="0.940109" transform="matrix(-0.895075 0.445916 0.445916 0.895075 169.252 124.573)" fill="white"/>
<path d="M167.476 129.949C167.5 123.308 161.094 122.471 161.125 122.552C154.804 124.537 155.621 130.226 155.884 131.062C156.606 133.363 152.816 135.585 154.078 137.96C155.339 140.336 155.538 145.388 156.64 148.871C157.316 151.006 158.231 151.757 158.862 151.931C158.696 151.94 158.766 151.945 158.934 151.949C159.096 151.984 159.238 151.98 159.347 151.952C159.193 151.952 159.043 151.951 158.934 151.949C158.91 151.944 158.887 151.938 158.862 151.931C159.081 151.92 159.709 151.903 161.061 151.88C164.875 151.813 164.901 146.803 167.944 140.949C170.987 135.096 167.447 138.251 167.476 129.949Z" fill="#FF6B0A"/>
<path d="M160.958 149.451C163.995 149.055 164.691 142.248 164.66 138.894C162.77 138.561 158.685 138.156 157.47 139.2C155.951 140.504 157.163 149.946 160.958 149.451Z" fill="#1F0C02"/>
<path d="M160.303 148.62C158.158 148.444 158.633 143.746 159.138 141.419L163.281 141.243C163.182 143.775 162.447 148.796 160.303 148.62Z" fill="#956C7C"/>
<path d="M160.468 146.939C160.014 146.643 160.461 141.995 160.742 139.708L161.656 139.766C161.449 142.281 160.922 147.235 160.468 146.939Z" fill="#86616F"/>
<path d="M165.789 136.27C163.546 131.977 164.643 129.497 165.472 128.794C162.092 124.702 158.508 127.325 157.138 129.148C159.749 133.331 157.794 129.979 156.503 136.665C155.471 142.013 159.043 143.665 160.958 143.822C163.503 143.094 168.032 140.564 165.789 136.27Z" fill="#EA5F03"/>
<path d="M156.337 138.886C160.932 132.05 164.738 136.748 166.066 139.951C165.679 141.304 164.091 143.976 160.841 143.847C157.592 143.717 156.485 140.486 156.337 138.886Z" fill="#EFE5D5"/>
<path d="M161.744 137.82C161.773 137.253 161.92 136.201 162.271 136.526C162.622 136.852 162.066 137.524 161.744 137.82Z" fill="#DACAB0"/>
<path d="M160.67 137.867C160.682 137.3 160.612 136.24 160.238 136.539C159.864 136.838 160.371 137.549 160.67 137.867Z" fill="#DACAB0"/>
<path d="M157.853 115.397L157.627 120.251C160.382 122.684 165.24 121.542 167.325 120.667L167.482 115.718L157.853 115.397Z" fill="#373500"/>
<path d="M157.627 120.251C158.349 122.838 161.347 126.301 167.314 120.632L157.627 120.251Z" fill="#373500"/>
<ellipse cx="4.82508" cy="0.831725" rx="4.82508" ry="0.831725" transform="matrix(-0.99961 -0.0279109 -0.0279109 0.99961 167.502 114.862)" fill="#373500"/>
<path d="M157.853 115.397L157.627 120.251C160.382 122.684 165.24 121.542 167.325 120.667L167.482 115.718C167.482 115.718 166.703 115.859 166.2 115.848C165.598 115.835 164.679 115.587 164.679 115.587L161.883 119.809L160.46 115.278C160.46 115.278 159.686 115.67 159.151 115.69C158.632 115.709 157.853 115.397 157.853 115.397Z" fill="#4B4800"/>
<path d="M162.958 116.13C162.935 116.141 162.915 116.15 162.898 116.161C162.751 116.25 162.657 116.359 162.611 116.523C162.591 116.592 162.579 116.664 162.565 116.734C162.552 116.796 162.539 116.856 162.524 116.918C162.521 116.934 162.522 116.941 162.541 116.945C162.58 116.952 162.612 116.974 162.624 117.014C162.636 117.048 162.627 117.08 162.604 117.106C162.58 117.133 162.547 117.141 162.512 117.139C162.495 117.137 162.484 117.129 162.476 117.112C162.415 116.983 162.385 116.847 162.381 116.704C162.378 116.586 162.399 116.471 162.415 116.356C162.423 116.29 162.43 116.223 162.441 116.158C162.447 116.116 162.45 116.077 162.443 116.036C162.437 115.994 162.422 115.955 162.396 115.919C162.363 115.947 162.339 115.982 162.327 116.022C162.317 116.06 162.31 116.1 162.306 116.138C162.3 116.179 162.301 116.221 162.298 116.262C162.291 116.369 162.286 116.477 162.275 116.585C162.257 116.764 162.195 116.927 162.089 117.071C162.075 117.091 162.058 117.095 162.036 117.091C161.981 117.081 161.943 117.034 161.948 116.982C161.953 116.933 162 116.894 162.055 116.897C162.075 116.897 162.077 116.891 162.076 116.874C162.074 116.789 162.073 116.703 162.072 116.617C162.069 116.52 162.073 116.424 162.042 116.33C162.001 116.206 161.932 116.119 161.829 116.038C161.821 116.033 161.813 116.027 161.802 116.019C161.801 116.029 161.801 116.036 161.8 116.043C161.757 116.49 161.715 116.919 161.672 117.365C161.669 117.391 161.669 117.391 161.694 117.393C161.786 117.402 161.879 117.411 161.97 117.42C161.987 117.422 161.993 117.427 161.995 117.443C162.01 117.568 162.063 117.676 162.157 117.762C162.176 117.78 162.193 117.803 162.21 117.823C162.269 117.768 162.346 117.734 162.397 117.668C162.438 117.613 162.473 117.555 162.493 117.489C162.498 117.474 162.505 117.471 162.519 117.472C162.613 117.481 162.706 117.49 162.8 117.499C162.816 117.501 162.824 117.498 162.825 117.479C162.869 117.03 162.911 116.598 162.954 116.149C162.957 116.147 162.957 116.142 162.958 116.13ZM162.836 116.325C162.838 116.327 162.842 116.327 162.844 116.329C162.843 116.337 162.843 116.345 162.842 116.353C162.821 116.569 162.802 116.767 162.781 116.983C162.777 117.019 162.777 117.019 162.74 117.015C162.726 117.014 162.72 117.01 162.717 116.996C162.708 116.952 162.683 116.917 162.647 116.892C162.631 116.881 162.63 116.871 162.634 116.855C162.652 116.776 162.671 116.696 162.686 116.617C162.702 116.535 162.727 116.475 162.776 116.406C162.795 116.377 162.816 116.353 162.836 116.325ZM161.879 116.236C161.881 116.236 161.882 116.235 161.884 116.236C161.891 116.246 161.897 116.255 161.902 116.265C161.94 116.339 161.972 116.397 161.976 116.48C161.98 116.585 161.981 116.69 161.984 116.795C161.985 116.809 161.981 116.818 161.966 116.825C161.925 116.843 161.894 116.872 161.875 116.913C161.866 116.932 161.853 116.935 161.823 116.927C161.805 116.921 161.814 116.908 161.815 116.898C161.836 116.678 161.855 116.476 161.877 116.256C161.876 116.249 161.877 116.242 161.879 116.236ZM162.52 117.235C162.525 117.235 162.533 117.234 162.541 117.233C162.616 117.224 162.676 117.193 162.707 117.121C162.711 117.111 162.716 117.106 162.726 117.109C162.735 117.109 162.743 117.11 162.751 117.111C162.763 117.112 162.767 117.117 162.766 117.129C162.757 117.215 162.749 117.303 162.739 117.389C162.739 117.394 162.728 117.404 162.724 117.403C162.661 117.398 162.597 117.392 162.534 117.385C162.53 117.384 162.521 117.375 162.521 117.371C162.52 117.326 162.52 117.282 162.52 117.235ZM162.022 117.187C162.013 117.233 162.003 117.276 161.994 117.321C161.992 117.333 161.982 117.333 161.973 117.332C161.914 117.326 161.856 117.319 161.796 117.315C161.778 117.313 161.773 117.305 161.776 117.288C161.784 117.211 161.791 117.133 161.798 117.055C161.802 117.019 161.802 117.019 161.838 117.023C161.848 117.024 161.857 117.024 161.86 117.037C161.874 117.108 161.92 117.149 161.984 117.175C161.997 117.18 162.011 117.183 162.022 117.187ZM162.3 116.885C162.324 116.977 162.348 117.067 162.39 117.153C162.352 117.174 162.316 117.194 162.279 117.212C162.274 117.215 162.263 117.212 162.257 117.208C162.229 117.186 162.203 117.163 162.174 117.141C162.166 117.135 162.164 117.129 162.171 117.119C162.221 117.053 162.257 116.979 162.29 116.903C162.294 116.898 162.297 116.891 162.3 116.885ZM162.396 117.462C162.394 117.523 162.319 117.637 162.279 117.648C162.278 117.647 162.277 117.645 162.277 117.645C162.283 117.585 162.287 117.525 162.294 117.466C162.295 117.462 162.304 117.456 162.308 117.455C162.338 117.456 162.366 117.459 162.396 117.462ZM162.181 117.641C162.134 117.607 162.088 117.478 162.101 117.433C162.126 117.435 162.154 117.438 162.18 117.44C162.195 117.442 162.199 117.448 162.197 117.462C162.193 117.51 162.188 117.559 162.183 117.607C162.183 117.618 162.182 117.628 162.181 117.641ZM162.364 117.367C162.349 117.366 162.332 117.365 162.317 117.361C162.313 117.361 162.304 117.351 162.306 117.348C162.318 117.297 162.354 117.257 162.404 117.25C162.415 117.249 162.421 117.251 162.422 117.262C162.424 117.294 162.424 117.325 162.426 117.358C162.426 117.37 162.418 117.374 162.408 117.373C162.394 117.37 162.379 117.369 162.364 117.367ZM162.15 117.346C162.136 117.345 162.123 117.344 162.109 117.343C162.095 117.342 162.088 117.336 162.091 117.321C162.098 117.292 162.104 117.264 162.111 117.235C162.115 117.222 162.122 117.219 162.136 117.225C162.179 117.242 162.214 117.293 162.211 117.338C162.21 117.343 162.201 117.35 162.196 117.351C162.18 117.351 162.165 117.348 162.15 117.346Z" fill="#FFD500"/>
<path d="M147.066 178.794C154.597 181.522 160.772 179.087 164.393 177.421L165.283 179.981C157.128 184.339 150.022 182.832 146.435 181.205L147.066 178.794Z" fill="#005BBB"/>
<path d="M146.398 181.354C155.425 184.962 161.712 181.72 165.357 180.092L166.396 182.652C158.172 186.925 149.349 185.066 145.804 183.394L146.398 181.354Z" fill="#FFD500"/>
<path d="M145.997 182.899C140.664 182.885 131.6 186.667 137.942 200.51C144.237 214.25 144.917 223.41 141.025 222.204C140.997 222.194 140.968 222.184 140.938 222.176C140.967 222.186 140.996 222.195 141.025 222.204C142.1 222.619 141.409 224.839 141.917 225.614C146.336 225.91 147.128 217.36 138.626 200.229C136.619 195.634 135.806 186.195 145.304 185.204L145.997 182.899Z" fill="#FFD500"/>
<path d="M146.986 179.564C141.624 178.663 135.671 178.919 140.46 194.033C145.201 208.993 138.87 208.822 135.003 206.824C134.966 206.802 134.926 206.781 134.883 206.762C134.923 206.783 134.963 206.804 135.003 206.824C135.948 207.398 134.633 208.757 135.05 209.618C139.461 210.653 146.861 208.95 141.18 193.862C139.689 188.861 136.731 180.894 146.398 181.466L146.986 179.564Z" fill="#005BBB"/>
<path d="M122.5 228.5C165.807 256.401 173.893 215.168 172.273 191.15L175 190H178.283C182.291 253.461 141.311 249.838 122.5 237V228.5Z" fill="#9B9B9B"/>
<path d="M106.648 46.9609L109.492 39.625H111.828L107.906 48.8672C107.776 49.1641 107.628 49.4505 107.461 49.7266C107.294 50.0026 107.094 50.25 106.859 50.4688C106.63 50.6823 106.352 50.8516 106.023 50.9766C105.701 51.1016 105.31 51.1641 104.852 51.1641C104.732 51.1641 104.589 51.1589 104.422 51.1484C104.255 51.1432 104.128 51.1354 104.039 51.125V49.4375C104.102 49.4531 104.203 49.4635 104.344 49.4688C104.49 49.474 104.594 49.4766 104.656 49.4766C104.958 49.4766 105.198 49.4297 105.375 49.3359C105.557 49.237 105.701 49.1042 105.805 48.9375C105.914 48.7656 106.01 48.5703 106.094 48.3516L106.648 46.9609ZM104.633 39.625L107.359 45.5859L108 47.9062L106.367 47.9531L102.305 39.625H104.633ZM115.961 49.5312C116.253 49.5312 116.513 49.474 116.742 49.3594C116.971 49.2448 117.154 49.0833 117.289 48.875C117.43 48.6667 117.505 48.4245 117.516 48.1484H119.461C119.451 48.7214 119.289 49.2344 118.977 49.6875C118.664 50.1406 118.247 50.5 117.727 50.7656C117.211 51.026 116.633 51.1562 115.992 51.1562C115.341 51.1562 114.773 51.0469 114.289 50.8281C113.805 50.6094 113.401 50.3047 113.078 49.9141C112.76 49.5234 112.521 49.0703 112.359 48.5547C112.203 48.0391 112.125 47.487 112.125 46.8984V46.6484C112.125 46.0599 112.203 45.5078 112.359 44.9922C112.521 44.4766 112.76 44.0234 113.078 43.6328C113.401 43.2422 113.805 42.9375 114.289 42.7188C114.773 42.5 115.339 42.3906 115.984 42.3906C116.667 42.3906 117.266 42.5234 117.781 42.7891C118.302 43.0547 118.708 43.4297 119 43.9141C119.297 44.3984 119.451 44.9688 119.461 45.625H117.516C117.505 45.3229 117.438 45.0521 117.312 44.8125C117.188 44.5729 117.01 44.3802 116.781 44.2344C116.552 44.0885 116.273 44.0156 115.945 44.0156C115.596 44.0156 115.305 44.0885 115.07 44.2344C114.841 44.3802 114.661 44.5807 114.531 44.8359C114.406 45.0859 114.318 45.3672 114.266 45.6797C114.219 45.987 114.195 46.3099 114.195 46.6484V46.8984C114.195 47.2422 114.219 47.5703 114.266 47.8828C114.318 48.1953 114.406 48.4766 114.531 48.7266C114.661 48.9714 114.841 49.1667 115.07 49.3125C115.305 49.4583 115.602 49.5312 115.961 49.5312ZM123.023 42.5469V51H120.953V42.5469H123.023ZM120.812 40.3359C120.812 40.0286 120.917 39.7734 121.125 39.5703C121.339 39.3672 121.625 39.2656 121.984 39.2656C122.344 39.2656 122.628 39.3672 122.836 39.5703C123.049 39.7734 123.156 40.0286 123.156 40.3359C123.156 40.638 123.049 40.8906 122.836 41.0938C122.628 41.2969 122.344 41.3984 121.984 41.3984C121.625 41.3984 121.339 41.2969 121.125 41.0938C120.917 40.8906 120.812 40.638 120.812 40.3359ZM132.445 49.5312C132.737 49.5312 132.997 49.474 133.227 49.3594C133.456 49.2448 133.638 49.0833 133.773 48.875C133.914 48.6667 133.99 48.4245 134 48.1484H135.945C135.935 48.7214 135.773 49.2344 135.461 49.6875C135.148 50.1406 134.732 50.5 134.211 50.7656C133.695 51.026 133.117 51.1562 132.477 51.1562C131.826 51.1562 131.258 51.0469 130.773 50.8281C130.289 50.6094 129.885 50.3047 129.562 49.9141C129.245 49.5234 129.005 49.0703 128.844 48.5547C128.688 48.0391 128.609 47.487 128.609 46.8984V46.6484C128.609 46.0599 128.688 45.5078 128.844 44.9922C129.005 44.4766 129.245 44.0234 129.562 43.6328C129.885 43.2422 130.289 42.9375 130.773 42.7188C131.258 42.5 131.823 42.3906 132.469 42.3906C133.151 42.3906 133.75 42.5234 134.266 42.7891C134.786 43.0547 135.193 43.4297 135.484 43.9141C135.781 44.3984 135.935 44.9688 135.945 45.625H134C133.99 45.3229 133.922 45.0521 133.797 44.8125C133.672 44.5729 133.495 44.3802 133.266 44.2344C133.036 44.0885 132.758 44.0156 132.43 44.0156C132.081 44.0156 131.789 44.0885 131.555 44.2344C131.326 44.3802 131.146 44.5807 131.016 44.8359C130.891 45.0859 130.802 45.3672 130.75 45.6797C130.703 45.987 130.68 46.3099 130.68 46.6484V46.8984C130.68 47.2422 130.703 47.5703 130.75 47.8828C130.802 48.1953 130.891 48.4766 131.016 48.7266C131.146 48.9714 131.326 49.1667 131.555 49.3125C131.789 49.4583 132.086 49.5312 132.445 49.5312ZM139.406 48.0547L142.484 42.5469H144.555V51H142.484V45.4844L139.406 51H137.336V42.5469H139.406V48.0547ZM149.898 49.5312C150.19 49.5312 150.451 49.474 150.68 49.3594C150.909 49.2448 151.091 49.0833 151.227 48.875C151.367 48.6667 151.443 48.4245 151.453 48.1484H153.398C153.388 48.7214 153.227 49.2344 152.914 49.6875C152.602 50.1406 152.185 50.5 151.664 50.7656C151.148 51.026 150.57 51.1562 149.93 51.1562C149.279 51.1562 148.711 51.0469 148.227 50.8281C147.742 50.6094 147.339 50.3047 147.016 49.9141C146.698 49.5234 146.458 49.0703 146.297 48.5547C146.141 48.0391 146.062 47.487 146.062 46.8984V46.6484C146.062 46.0599 146.141 45.5078 146.297 44.9922C146.458 44.4766 146.698 44.0234 147.016 43.6328C147.339 43.2422 147.742 42.9375 148.227 42.7188C148.711 42.5 149.276 42.3906 149.922 42.3906C150.604 42.3906 151.203 42.5234 151.719 42.7891C152.24 43.0547 152.646 43.4297 152.938 43.9141C153.234 44.3984 153.388 44.9688 153.398 45.625H151.453C151.443 45.3229 151.375 45.0521 151.25 44.8125C151.125 44.5729 150.948 44.3802 150.719 44.2344C150.49 44.0885 150.211 44.0156 149.883 44.0156C149.534 44.0156 149.242 44.0885 149.008 44.2344C148.779 44.3802 148.599 44.5807 148.469 44.8359C148.344 45.0859 148.255 45.3672 148.203 45.6797C148.156 45.987 148.133 46.3099 148.133 46.6484V46.8984C148.133 47.2422 148.156 47.5703 148.203 47.8828C148.255 48.1953 148.344 48.4766 148.469 48.7266C148.599 48.9714 148.779 49.1667 149.008 49.3125C149.242 49.4583 149.539 49.5312 149.898 49.5312ZM158.875 42.5469V51H156.805V42.5469H158.875ZM161.625 42.5469V44.1562H154.102V42.5469H161.625ZM166.07 51.1562C165.43 51.1562 164.854 51.0521 164.344 50.8438C163.833 50.6354 163.398 50.3464 163.039 49.9766C162.685 49.6016 162.411 49.1667 162.219 48.6719C162.031 48.1719 161.938 47.6354 161.938 47.0625V46.75C161.938 46.099 162.031 45.5078 162.219 44.9766C162.406 44.4401 162.672 43.9792 163.016 43.5938C163.359 43.2083 163.771 42.9115 164.25 42.7031C164.729 42.4948 165.258 42.3906 165.836 42.3906C166.435 42.3906 166.964 42.4922 167.422 42.6953C167.88 42.8932 168.263 43.1745 168.57 43.5391C168.878 43.9036 169.109 44.3411 169.266 44.8516C169.422 45.3568 169.5 45.9167 169.5 46.5312V47.3984H162.875V45.9766H167.469V45.8203C167.458 45.4922 167.396 45.1927 167.281 44.9219C167.167 44.6458 166.99 44.4271 166.75 44.2656C166.51 44.099 166.201 44.0156 165.82 44.0156C165.513 44.0156 165.245 44.0833 165.016 44.2188C164.792 44.349 164.604 44.5365 164.453 44.7812C164.307 45.0208 164.198 45.3073 164.125 45.6406C164.052 45.974 164.016 46.3438 164.016 46.75V47.0625C164.016 47.4167 164.062 47.7448 164.156 48.0469C164.255 48.349 164.398 48.612 164.586 48.8359C164.779 49.0547 165.008 49.2266 165.273 49.3516C165.544 49.4714 165.852 49.5312 166.195 49.5312C166.628 49.5312 167.018 49.4479 167.367 49.2812C167.721 49.1094 168.029 48.8568 168.289 48.5234L169.328 49.6016C169.151 49.862 168.911 50.112 168.609 50.3516C168.312 50.5911 167.953 50.7865 167.531 50.9375C167.109 51.0833 166.622 51.1562 166.07 51.1562ZM175.953 48.5625L178.328 42.5469H180.055L176.656 51H175.258L171.867 42.5469H173.602L175.953 48.5625ZM173.094 42.5469V51H171.023V42.5469H173.094ZM178.852 51V42.5469H180.922V51H178.852ZM185.062 48.0547L188.141 42.5469H190.211V51H188.141V45.4844L185.062 51H182.992V42.5469H185.062V48.0547ZM108 68.5625L110.375 62.5469H112.102L108.703 71H107.305L103.914 62.5469H105.648L108 68.5625ZM105.141 62.5469V71H103.07V62.5469H105.141ZM110.898 71V62.5469H112.969V71H110.898ZM118.82 71.1562C118.18 71.1562 117.604 71.0521 117.094 70.8438C116.583 70.6354 116.148 70.3464 115.789 69.9766C115.435 69.6016 115.161 69.1667 114.969 68.6719C114.781 68.1719 114.688 67.6354 114.688 67.0625V66.75C114.688 66.099 114.781 65.5078 114.969 64.9766C115.156 64.4401 115.422 63.9792 115.766 63.5938C116.109 63.2083 116.521 62.9115 117 62.7031C117.479 62.4948 118.008 62.3906 118.586 62.3906C119.185 62.3906 119.714 62.4922 120.172 62.6953C120.63 62.8932 121.013 63.1745 121.32 63.5391C121.628 63.9036 121.859 64.3411 122.016 64.8516C122.172 65.3568 122.25 65.9167 122.25 66.5312V67.3984H115.625V65.9766H120.219V65.8203C120.208 65.4922 120.146 65.1927 120.031 64.9219C119.917 64.6458 119.74 64.4271 119.5 64.2656C119.26 64.099 118.951 64.0156 118.57 64.0156C118.263 64.0156 117.995 64.0833 117.766 64.2188C117.542 64.349 117.354 64.5365 117.203 64.7812C117.057 65.0208 116.948 65.3073 116.875 65.6406C116.802 65.974 116.766 66.3438 116.766 66.75V67.0625C116.766 67.4167 116.812 67.7448 116.906 68.0469C117.005 68.349 117.148 68.612 117.336 68.8359C117.529 69.0547 117.758 69.2266 118.023 69.3516C118.294 69.4714 118.602 69.5312 118.945 69.5312C119.378 69.5312 119.768 69.4479 120.117 69.2812C120.471 69.1094 120.779 68.8568 121.039 68.5234L122.078 69.6016C121.901 69.862 121.661 70.112 121.359 70.3516C121.062 70.5911 120.703 70.7865 120.281 70.9375C119.859 71.0833 119.372 71.1562 118.82 71.1562ZM129.312 62.5469V64.1797H125.711V71H123.648V62.5469H129.312ZM135.008 69.2031V65.3047C135.008 65.0182 134.958 64.7708 134.859 64.5625C134.76 64.3542 134.609 64.1927 134.406 64.0781C134.203 63.9635 133.945 63.9062 133.633 63.9062C133.357 63.9062 133.115 63.9531 132.906 64.0469C132.703 64.1406 132.547 64.2734 132.438 64.4453C132.328 64.612 132.273 64.8047 132.273 65.0234H130.203C130.203 64.6745 130.286 64.3438 130.453 64.0312C130.62 63.7135 130.857 63.4323 131.164 63.1875C131.477 62.9375 131.849 62.7422 132.281 62.6016C132.719 62.4609 133.208 62.3906 133.75 62.3906C134.391 62.3906 134.961 62.5 135.461 62.7188C135.966 62.9323 136.362 63.2552 136.648 63.6875C136.94 64.1198 137.086 64.6641 137.086 65.3203V69.0078C137.086 69.4297 137.112 69.7917 137.164 70.0938C137.221 70.3906 137.305 70.6484 137.414 70.8672V71H135.312C135.214 70.7865 135.138 70.5156 135.086 70.1875C135.034 69.8542 135.008 69.526 135.008 69.2031ZM135.297 65.8516L135.312 67.0781H134.008C133.685 67.0781 133.401 67.112 133.156 67.1797C132.911 67.2422 132.711 67.3359 132.555 67.4609C132.398 67.5807 132.281 67.7266 132.203 67.8984C132.125 68.0651 132.086 68.2552 132.086 68.4688C132.086 68.6771 132.133 68.8646 132.227 69.0312C132.326 69.1979 132.466 69.3307 132.648 69.4297C132.836 69.5234 133.055 69.5703 133.305 69.5703C133.669 69.5703 133.987 69.4974 134.258 69.3516C134.529 69.2005 134.74 69.0182 134.891 68.8047C135.042 68.5911 135.122 68.388 135.133 68.1953L135.727 69.0859C135.654 69.2995 135.544 69.526 135.398 69.7656C135.253 70.0052 135.065 70.2292 134.836 70.4375C134.607 70.6458 134.331 70.8177 134.008 70.9531C133.685 71.0885 133.31 71.1562 132.883 71.1562C132.336 71.1562 131.846 71.0469 131.414 70.8281C130.982 70.6094 130.641 70.3099 130.391 69.9297C130.141 69.5495 130.016 69.1172 130.016 68.6328C130.016 68.1849 130.099 67.7891 130.266 67.4453C130.432 67.1016 130.68 66.8125 131.008 66.5781C131.336 66.3385 131.742 66.1589 132.227 66.0391C132.716 65.9141 133.276 65.8516 133.906 65.8516H135.297ZM143.602 69.2031V65.3047C143.602 65.0182 143.552 64.7708 143.453 64.5625C143.354 64.3542 143.203 64.1927 143 64.0781C142.797 63.9635 142.539 63.9062 142.227 63.9062C141.951 63.9062 141.708 63.9531 141.5 64.0469C141.297 64.1406 141.141 64.2734 141.031 64.4453C140.922 64.612 140.867 64.8047 140.867 65.0234H138.797C138.797 64.6745 138.88 64.3438 139.047 64.0312C139.214 63.7135 139.451 63.4323 139.758 63.1875C140.07 62.9375 140.443 62.7422 140.875 62.6016C141.312 62.4609 141.802 62.3906 142.344 62.3906C142.984 62.3906 143.555 62.5 144.055 62.7188C144.56 62.9323 144.956 63.2552 145.242 63.6875C145.534 64.1198 145.68 64.6641 145.68 65.3203V69.0078C145.68 69.4297 145.706 69.7917 145.758 70.0938C145.815 70.3906 145.898 70.6484 146.008 70.8672V71H143.906C143.807 70.7865 143.732 70.5156 143.68 70.1875C143.628 69.8542 143.602 69.526 143.602 69.2031ZM143.891 65.8516L143.906 67.0781H142.602C142.279 67.0781 141.995 67.112 141.75 67.1797C141.505 67.2422 141.305 67.3359 141.148 67.4609C140.992 67.5807 140.875 67.7266 140.797 67.8984C140.719 68.0651 140.68 68.2552 140.68 68.4688C140.68 68.6771 140.727 68.8646 140.82 69.0312C140.919 69.1979 141.06 69.3307 141.242 69.4297C141.43 69.5234 141.648 69.5703 141.898 69.5703C142.263 69.5703 142.581 69.4974 142.852 69.3516C143.122 69.2005 143.333 69.0182 143.484 68.8047C143.635 68.5911 143.716 68.388 143.727 68.1953L144.32 69.0859C144.247 69.2995 144.138 69.526 143.992 69.7656C143.846 70.0052 143.659 70.2292 143.43 70.4375C143.201 70.6458 142.924 70.8177 142.602 70.9531C142.279 71.0885 141.904 71.1562 141.477 71.1562C140.93 71.1562 140.44 71.0469 140.008 70.8281C139.576 70.6094 139.234 70.3099 138.984 69.9297C138.734 69.5495 138.609 69.1172 138.609 68.6328C138.609 68.1849 138.693 67.7891 138.859 67.4453C139.026 67.1016 139.273 66.8125 139.602 66.5781C139.93 66.3385 140.336 66.1589 140.82 66.0391C141.31 65.9141 141.87 65.8516 142.5 65.8516H143.891ZM149.742 62.5469V71H147.68V62.5469H149.742ZM155.25 62.5469L151.523 67.7344H149.328L149.07 65.8438H150.594L152.648 62.5469H155.25ZM152.773 71L150.461 67.375L152.18 66.2969L155.516 71H152.773ZM160.562 62.5469V71H158.492V62.5469H160.562ZM163.312 62.5469V64.1562H155.789V62.5469H163.312ZM166.609 68.0547L169.688 62.5469H171.758V71H169.688V65.4844L166.609 71H164.539V62.5469H166.609V68.0547ZM177.789 67.4219H175.109L175.094 66.0234H177.297C177.625 66.0234 177.893 65.9896 178.102 65.9219C178.31 65.8542 178.464 65.7526 178.562 65.6172C178.667 65.4818 178.719 65.3177 178.719 65.125C178.719 64.9583 178.688 64.8151 178.625 64.6953C178.562 64.5703 178.469 64.4688 178.344 64.3906C178.224 64.3125 178.07 64.2552 177.883 64.2188C177.701 64.1771 177.487 64.1562 177.242 64.1562H175.844V71H173.773V62.5469H177.242C177.789 62.5469 178.281 62.5964 178.719 62.6953C179.156 62.7891 179.529 62.9323 179.836 63.125C180.143 63.3177 180.378 63.5625 180.539 63.8594C180.706 64.151 180.789 64.4948 180.789 64.8906C180.789 65.151 180.732 65.3958 180.617 65.625C180.503 65.8542 180.333 66.0573 180.109 66.2344C179.885 66.4115 179.609 66.5573 179.281 66.6719C178.953 66.7812 178.578 66.849 178.156 66.875L177.789 67.4219ZM177.789 71H174.555L175.32 69.3906H177.789C178.091 69.3906 178.341 69.3542 178.539 69.2812C178.737 69.2031 178.883 69.0911 178.977 68.9453C179.076 68.7995 179.125 68.6224 179.125 68.4141C179.125 68.2109 179.078 68.0365 178.984 67.8906C178.896 67.7396 178.753 67.625 178.555 67.5469C178.362 67.4635 178.107 67.4219 177.789 67.4219H175.656L175.672 66.0234H178.148L178.695 66.5781C179.258 66.6146 179.724 66.7292 180.094 66.9219C180.464 67.1094 180.74 67.349 180.922 67.6406C181.104 67.9271 181.195 68.2422 181.195 68.5859C181.195 68.987 181.12 69.3385 180.969 69.6406C180.818 69.9427 180.596 70.1953 180.305 70.3984C180.013 70.5964 179.656 70.7474 179.234 70.8516C178.812 70.9505 178.331 71 177.789 71ZM182.328 66.8594V66.6953C182.328 66.0755 182.417 65.5052 182.594 64.9844C182.771 64.4583 183.029 64.0026 183.367 63.6172C183.706 63.2318 184.12 62.9323 184.609 62.7188C185.099 62.5 185.656 62.3906 186.281 62.3906C186.917 62.3906 187.479 62.5 187.969 62.7188C188.464 62.9323 188.88 63.2318 189.219 63.6172C189.557 64.0026 189.815 64.4583 189.992 64.9844C190.169 65.5052 190.258 66.0755 190.258 66.6953V66.8594C190.258 67.474 190.169 68.0443 189.992 68.5703C189.815 69.0911 189.557 69.5469 189.219 69.9375C188.88 70.3229 188.466 70.6224 187.977 70.8359C187.487 71.0495 186.927 71.1562 186.297 71.1562C185.672 71.1562 185.112 71.0495 184.617 70.8359C184.122 70.6224 183.706 70.3229 183.367 69.9375C183.029 69.5469 182.771 69.0911 182.594 68.5703C182.417 68.0443 182.328 67.474 182.328 66.8594ZM184.391 66.6953V66.8594C184.391 67.2292 184.427 67.5755 184.5 67.8984C184.573 68.2214 184.685 68.5052 184.836 68.75C184.987 68.9948 185.182 69.1875 185.422 69.3281C185.667 69.4635 185.958 69.5312 186.297 69.5312C186.63 69.5312 186.917 69.4635 187.156 69.3281C187.396 69.1875 187.591 68.9948 187.742 68.75C187.898 68.5052 188.013 68.2214 188.086 67.8984C188.159 67.5755 188.195 67.2292 188.195 66.8594V66.6953C188.195 66.3307 188.159 65.9896 188.086 65.6719C188.013 65.349 187.898 65.0651 187.742 64.8203C187.591 64.5703 187.393 64.375 187.148 64.2344C186.909 64.0885 186.62 64.0156 186.281 64.0156C185.948 64.0156 185.661 64.0885 185.422 64.2344C185.182 64.375 184.987 64.5703 184.836 64.8203C184.685 65.0651 184.573 65.349 184.5 65.6719C184.427 65.9896 184.391 66.3307 184.391 66.6953ZM195.914 67.4219H193.234L193.219 66.0234H195.422C195.75 66.0234 196.018 65.9896 196.227 65.9219C196.435 65.8542 196.589 65.7526 196.688 65.6172C196.792 65.4818 196.844 65.3177 196.844 65.125C196.844 64.9583 196.812 64.8151 196.75 64.6953C196.688 64.5703 196.594 64.4688 196.469 64.3906C196.349 64.3125 196.195 64.2552 196.008 64.2188C195.826 64.1771 195.612 64.1562 195.367 64.1562H193.969V71H191.898V62.5469H195.367C195.914 62.5469 196.406 62.5964 196.844 62.6953C197.281 62.7891 197.654 62.9323 197.961 63.125C198.268 63.3177 198.503 63.5625 198.664 63.8594C198.831 64.151 198.914 64.4948 198.914 64.8906C198.914 65.151 198.857 65.3958 198.742 65.625C198.628 65.8542 198.458 66.0573 198.234 66.2344C198.01 66.4115 197.734 66.5573 197.406 66.6719C197.078 66.7812 196.703 66.849 196.281 66.875L195.914 67.4219ZM195.914 71H192.68L193.445 69.3906H195.914C196.216 69.3906 196.466 69.3542 196.664 69.2812C196.862 69.2031 197.008 69.0911 197.102 68.9453C197.201 68.7995 197.25 68.6224 197.25 68.4141C197.25 68.2109 197.203 68.0365 197.109 67.8906C197.021 67.7396 196.878 67.625 196.68 67.5469C196.487 67.4635 196.232 67.4219 195.914 67.4219H193.781L193.797 66.0234H196.273L196.82 66.5781C197.383 66.6146 197.849 66.7292 198.219 66.9219C198.589 67.1094 198.865 67.349 199.047 67.6406C199.229 67.9271 199.32 68.2422 199.32 68.5859C199.32 68.987 199.245 69.3385 199.094 69.6406C198.943 69.9427 198.721 70.1953 198.43 70.3984C198.138 70.5964 197.781 70.7474 197.359 70.8516C196.938 70.9505 196.456 71 195.914 71ZM205.477 69.2031V65.3047C205.477 65.0182 205.427 64.7708 205.328 64.5625C205.229 64.3542 205.078 64.1927 204.875 64.0781C204.672 63.9635 204.414 63.9062 204.102 63.9062C203.826 63.9062 203.583 63.9531 203.375 64.0469C203.172 64.1406 203.016 64.2734 202.906 64.4453C202.797 64.612 202.742 64.8047 202.742 65.0234H200.672C200.672 64.6745 200.755 64.3438 200.922 64.0312C201.089 63.7135 201.326 63.4323 201.633 63.1875C201.945 62.9375 202.318 62.7422 202.75 62.6016C203.188 62.4609 203.677 62.3906 204.219 62.3906C204.859 62.3906 205.43 62.5 205.93 62.7188C206.435 62.9323 206.831 63.2552 207.117 63.6875C207.409 64.1198 207.555 64.6641 207.555 65.3203V69.0078C207.555 69.4297 207.581 69.7917 207.633 70.0938C207.69 70.3906 207.773 70.6484 207.883 70.8672V71H205.781C205.682 70.7865 205.607 70.5156 205.555 70.1875C205.503 69.8542 205.477 69.526 205.477 69.2031ZM205.766 65.8516L205.781 67.0781H204.477C204.154 67.0781 203.87 67.112 203.625 67.1797C203.38 67.2422 203.18 67.3359 203.023 67.4609C202.867 67.5807 202.75 67.7266 202.672 67.8984C202.594 68.0651 202.555 68.2552 202.555 68.4688C202.555 68.6771 202.602 68.8646 202.695 69.0312C202.794 69.1979 202.935 69.3307 203.117 69.4297C203.305 69.5234 203.523 69.5703 203.773 69.5703C204.138 69.5703 204.456 69.4974 204.727 69.3516C204.997 69.2005 205.208 69.0182 205.359 68.8047C205.51 68.5911 205.591 68.388 205.602 68.1953L206.195 69.0859C206.122 69.2995 206.013 69.526 205.867 69.7656C205.721 70.0052 205.534 70.2292 205.305 70.4375C205.076 70.6458 204.799 70.8177 204.477 70.9531C204.154 71.0885 203.779 71.1562 203.352 71.1562C202.805 71.1562 202.315 71.0469 201.883 70.8281C201.451 70.6094 201.109 70.3099 200.859 69.9297C200.609 69.5495 200.484 69.1172 200.484 68.6328C200.484 68.1849 200.568 67.7891 200.734 67.4453C200.901 67.1016 201.148 66.8125 201.477 66.5781C201.805 66.3385 202.211 66.1589 202.695 66.0391C203.185 65.9141 203.745 65.8516 204.375 65.8516H205.766ZM215.188 66.0156V67.6328H210.852V66.0156H215.188ZM211.5 62.5469V71H209.43V62.5469H211.5ZM216.633 62.5469V71H214.555V62.5469H216.633ZM220.695 62.5469V71H218.625V62.5469H220.695ZM218.484 60.3359C218.484 60.0286 218.589 59.7734 218.797 59.5703C219.01 59.3672 219.297 59.2656 219.656 59.2656C220.016 59.2656 220.299 59.3672 220.508 59.5703C220.721 59.7734 220.828 60.0286 220.828 60.3359C220.828 60.638 220.721 60.8906 220.508 61.0938C220.299 61.2969 220.016 61.3984 219.656 61.3984C219.297 61.3984 219.01 61.2969 218.797 61.0938C218.589 60.8906 218.484 60.638 218.484 60.3359ZM222.75 69.9922C222.75 69.6797 222.857 69.4167 223.07 69.2031C223.284 68.9896 223.573 68.8828 223.938 68.8828C224.302 68.8828 224.591 68.9896 224.805 69.2031C225.018 69.4167 225.125 69.6797 225.125 69.9922C225.125 70.2995 225.018 70.5599 224.805 70.7734C224.591 70.9818 224.302 71.0859 223.938 71.0859C223.573 71.0859 223.284 70.9818 223.07 70.7734C222.857 70.5599 222.75 70.2995 222.75 69.9922ZM112.297 85.0234V85.6094C112.297 86.4688 112.182 87.2422 111.953 87.9297C111.724 88.612 111.398 89.1927 110.977 89.6719C110.555 90.151 110.052 90.5182 109.469 90.7734C108.885 91.0286 108.237 91.1562 107.523 91.1562C106.82 91.1562 106.174 91.0286 105.586 90.7734C105.003 90.5182 104.497 90.151 104.07 89.6719C103.643 89.1927 103.312 88.612 103.078 87.9297C102.844 87.2422 102.727 86.4688 102.727 85.6094V85.0234C102.727 84.1589 102.844 83.3854 103.078 82.7031C103.312 82.0208 103.641 81.4401 104.062 80.9609C104.484 80.4766 104.987 80.1068 105.57 79.8516C106.159 79.5964 106.805 79.4688 107.508 79.4688C108.221 79.4688 108.87 79.5964 109.453 79.8516C110.036 80.1068 110.539 80.4766 110.961 80.9609C111.388 81.4401 111.716 82.0208 111.945 82.7031C112.18 83.3854 112.297 84.1589 112.297 85.0234ZM110.125 85.6094V85.0078C110.125 84.388 110.068 83.8438 109.953 83.375C109.839 82.901 109.669 82.5026 109.445 82.1797C109.221 81.8568 108.945 81.6146 108.617 81.4531C108.289 81.2865 107.919 81.2031 107.508 81.2031C107.091 81.2031 106.721 81.2865 106.398 81.4531C106.081 81.6146 105.81 81.8568 105.586 82.1797C105.362 82.5026 105.19 82.901 105.07 83.375C104.956 83.8438 104.898 84.388 104.898 85.0078V85.6094C104.898 86.224 104.956 86.7682 105.07 87.2422C105.19 87.7161 105.362 88.1172 105.586 88.4453C105.815 88.7682 106.091 89.013 106.414 89.1797C106.737 89.3464 107.107 89.4297 107.523 89.4297C107.94 89.4297 108.31 89.3464 108.633 89.1797C108.956 89.013 109.227 88.7682 109.445 88.4453C109.669 88.1172 109.839 87.7161 109.953 87.2422C110.068 86.7682 110.125 86.224 110.125 85.6094ZM120.914 82.5469V91H118.844V82.5469H120.914ZM119.977 86.2266V87.8516C119.779 87.9453 119.539 88.0339 119.258 88.1172C118.982 88.1953 118.69 88.2578 118.383 88.3047C118.081 88.3516 117.786 88.375 117.5 88.375C116.724 88.375 116.055 88.2604 115.492 88.0312C114.935 87.8021 114.505 87.4505 114.203 86.9766C113.901 86.4974 113.75 85.8854 113.75 85.1406V82.5391H115.812V85.1406C115.812 85.5417 115.872 85.8594 115.992 86.0938C116.112 86.3281 116.297 86.4948 116.547 86.5938C116.797 86.6927 117.115 86.7422 117.5 86.7422C117.797 86.7422 118.081 86.7214 118.352 86.6797C118.622 86.6328 118.891 86.5729 119.156 86.5C119.427 86.4219 119.701 86.3307 119.977 86.2266ZM124.977 82.5469V91H122.906V82.5469H124.977ZM122.766 80.3359C122.766 80.0286 122.87 79.7734 123.078 79.5703C123.292 79.3672 123.578 79.2656 123.938 79.2656C124.297 79.2656 124.581 79.3672 124.789 79.5703C125.003 79.7734 125.109 80.0286 125.109 80.3359C125.109 80.638 125.003 80.8906 124.789 81.0938C124.581 81.2969 124.297 81.3984 123.938 81.3984C123.578 81.3984 123.292 81.2969 123.078 81.0938C122.87 80.8906 122.766 80.638 122.766 80.3359ZM129.148 82.5469V91H127.086V82.5469H129.148ZM134.656 82.5469L130.93 87.7344H128.734L128.477 85.8438H130L132.055 82.5469H134.656ZM132.18 91L129.867 87.375L131.586 86.2969L134.922 91H132.18ZM138.344 90.0625L140.609 82.5469H142.82L139.43 92.2812C139.352 92.4896 139.25 92.7161 139.125 92.9609C139.005 93.2057 138.844 93.4375 138.641 93.6562C138.438 93.8802 138.182 94.0625 137.875 94.2031C137.573 94.3438 137.206 94.4141 136.773 94.4141C136.586 94.4141 136.419 94.401 136.273 94.375C136.128 94.349 135.974 94.3151 135.812 94.2734V92.7266C135.865 92.7318 135.924 92.7344 135.992 92.7344C136.065 92.7396 136.128 92.7422 136.18 92.7422C136.482 92.7422 136.732 92.7057 136.93 92.6328C137.128 92.5651 137.286 92.4531 137.406 92.2969C137.531 92.1458 137.635 91.9479 137.719 91.7031L138.344 90.0625ZM137.227 82.5469L139.141 88.7734L139.477 90.9531L138.055 91.2109L135 82.5469H137.227ZM148.852 85.8906V87.5234H144.305V85.8906H148.852ZM146.055 82.5469V91H143.984V82.5469H146.055ZM147.398 86.8594V86.6953C147.398 86.0755 147.487 85.5052 147.664 84.9844C147.841 84.4583 148.099 84.0026 148.438 83.6172C148.776 83.2318 149.19 82.9323 149.68 82.7188C150.169 82.5 150.727 82.3906 151.352 82.3906C151.987 82.3906 152.549 82.5 153.039 82.7188C153.534 82.9323 153.951 83.2318 154.289 83.6172C154.633 84.0026 154.891 84.4583 155.062 84.9844C155.24 85.5052 155.328 86.0755 155.328 86.6953V86.8594C155.328 87.474 155.24 88.0443 155.062 88.5703C154.891 89.0911 154.635 89.5469 154.297 89.9375C153.958 90.3229 153.542 90.6224 153.047 90.8359C152.557 91.0495 151.997 91.1562 151.367 91.1562C150.737 91.1562 150.177 91.0495 149.688 90.8359C149.198 90.6224 148.781 90.3229 148.438 89.9375C148.099 89.5469 147.841 89.0911 147.664 88.5703C147.487 88.0443 147.398 87.474 147.398 86.8594ZM149.461 86.6953V86.8594C149.461 87.2292 149.497 87.5755 149.57 87.8984C149.643 88.2214 149.755 88.5052 149.906 88.75C150.062 88.9948 150.26 89.1875 150.5 89.3281C150.74 89.4635 151.029 89.5312 151.367 89.5312C151.706 89.5312 151.995 89.4635 152.234 89.3281C152.474 89.1875 152.669 88.9948 152.82 88.75C152.971 88.5052 153.083 88.2214 153.156 87.8984C153.229 87.5755 153.266 87.2292 153.266 86.8594V86.6953C153.266 86.3307 153.229 85.9896 153.156 85.6719C153.083 85.349 152.969 85.0651 152.812 84.8203C152.661 84.5703 152.464 84.375 152.219 84.2344C151.979 84.0885 151.69 84.0156 151.352 84.0156C151.018 84.0156 150.732 84.0885 150.492 84.2344C150.258 84.375 150.062 84.5703 149.906 84.8203C149.755 85.0651 149.643 85.349 149.57 85.6719C149.497 85.9896 149.461 86.3307 149.461 86.6953ZM166.578 86.0156V87.6328H162.242V86.0156H166.578ZM162.891 82.5469V91H160.82V82.5469H162.891ZM168.023 82.5469V91H165.945V82.5469H168.023ZM174.555 89.2031V85.3047C174.555 85.0182 174.505 84.7708 174.406 84.5625C174.307 84.3542 174.156 84.1927 173.953 84.0781C173.75 83.9635 173.492 83.9062 173.18 83.9062C172.904 83.9062 172.661 83.9531 172.453 84.0469C172.25 84.1406 172.094 84.2734 171.984 84.4453C171.875 84.612 171.82 84.8047 171.82 85.0234H169.75C169.75 84.6745 169.833 84.3438 170 84.0312C170.167 83.7135 170.404 83.4323 170.711 83.1875C171.023 82.9375 171.396 82.7422 171.828 82.6016C172.266 82.4609 172.755 82.3906 173.297 82.3906C173.938 82.3906 174.508 82.5 175.008 82.7188C175.513 82.9323 175.909 83.2552 176.195 83.6875C176.487 84.1198 176.633 84.6641 176.633 85.3203V89.0078C176.633 89.4297 176.659 89.7917 176.711 90.0938C176.768 90.3906 176.852 90.6484 176.961 90.8672V91H174.859C174.76 90.7865 174.685 90.5156 174.633 90.1875C174.581 89.8542 174.555 89.526 174.555 89.2031ZM174.844 85.8516L174.859 87.0781H173.555C173.232 87.0781 172.948 87.112 172.703 87.1797C172.458 87.2422 172.258 87.3359 172.102 87.4609C171.945 87.5807 171.828 87.7266 171.75 87.8984C171.672 88.0651 171.633 88.2552 171.633 88.4688C171.633 88.6771 171.68 88.8646 171.773 89.0312C171.872 89.1979 172.013 89.3307 172.195 89.4297C172.383 89.5234 172.602 89.5703 172.852 89.5703C173.216 89.5703 173.534 89.4974 173.805 89.3516C174.076 89.2005 174.286 89.0182 174.438 88.8047C174.589 88.5911 174.669 88.388 174.68 88.1953L175.273 89.0859C175.201 89.2995 175.091 89.526 174.945 89.7656C174.799 90.0052 174.612 90.2292 174.383 90.4375C174.154 90.6458 173.878 90.8177 173.555 90.9531C173.232 91.0885 172.857 91.1562 172.43 91.1562C171.883 91.1562 171.393 91.0469 170.961 90.8281C170.529 90.6094 170.188 90.3099 169.938 89.9297C169.688 89.5495 169.562 89.1172 169.562 88.6328C169.562 88.1849 169.646 87.7891 169.812 87.4453C169.979 87.1016 170.227 86.8125 170.555 86.5781C170.883 86.3385 171.289 86.1589 171.773 86.0391C172.263 85.9141 172.823 85.8516 173.453 85.8516H174.844ZM184.68 82.5469V91H182.617V82.5469H184.68ZM190.188 82.5469L186.461 87.7344H184.266L184.008 85.8438H185.531L187.586 82.5469H190.188ZM187.711 91L185.398 87.375L187.117 86.2969L190.453 91H187.711ZM190.719 86.8594V86.6953C190.719 86.0755 190.807 85.5052 190.984 84.9844C191.161 84.4583 191.419 84.0026 191.758 83.6172C192.096 83.2318 192.51 82.9323 193 82.7188C193.49 82.5 194.047 82.3906 194.672 82.3906C195.307 82.3906 195.87 82.5 196.359 82.7188C196.854 82.9323 197.271 83.2318 197.609 83.6172C197.948 84.0026 198.206 84.4583 198.383 84.9844C198.56 85.5052 198.648 86.0755 198.648 86.6953V86.8594C198.648 87.474 198.56 88.0443 198.383 88.5703C198.206 89.0911 197.948 89.5469 197.609 89.9375C197.271 90.3229 196.857 90.6224 196.367 90.8359C195.878 91.0495 195.318 91.1562 194.688 91.1562C194.062 91.1562 193.503 91.0495 193.008 90.8359C192.513 90.6224 192.096 90.3229 191.758 89.9375C191.419 89.5469 191.161 89.0911 190.984 88.5703C190.807 88.0443 190.719 87.474 190.719 86.8594ZM192.781 86.6953V86.8594C192.781 87.2292 192.818 87.5755 192.891 87.8984C192.964 88.2214 193.076 88.5052 193.227 88.75C193.378 88.9948 193.573 89.1875 193.812 89.3281C194.057 89.4635 194.349 89.5312 194.688 89.5312C195.021 89.5312 195.307 89.4635 195.547 89.3281C195.786 89.1875 195.982 88.9948 196.133 88.75C196.289 88.5052 196.404 88.2214 196.477 87.8984C196.549 87.5755 196.586 87.2292 196.586 86.8594V86.6953C196.586 86.3307 196.549 85.9896 196.477 85.6719C196.404 85.349 196.289 85.0651 196.133 84.8203C195.982 84.5703 195.784 84.375 195.539 84.2344C195.299 84.0885 195.01 84.0156 194.672 84.0156C194.339 84.0156 194.052 84.0885 193.812 84.2344C193.573 84.375 193.378 84.5703 193.227 84.8203C193.076 85.0651 192.964 85.349 192.891 85.6719C192.818 85.9896 192.781 86.3307 192.781 86.6953ZM205.219 88.5625L207.594 82.5469H209.32L205.922 91H204.523L201.133 82.5469H202.867L205.219 88.5625ZM202.359 82.5469V91H200.289V82.5469H202.359ZM208.117 91V82.5469H210.188V91H208.117ZM216.898 89.2031V85.3047C216.898 85.0182 216.849 84.7708 216.75 84.5625C216.651 84.3542 216.5 84.1927 216.297 84.0781C216.094 83.9635 215.836 83.9062 215.523 83.9062C215.247 83.9062 215.005 83.9531 214.797 84.0469C214.594 84.1406 214.438 84.2734 214.328 84.4453C214.219 84.612 214.164 84.8047 214.164 85.0234H212.094C212.094 84.6745 212.177 84.3438 212.344 84.0312C212.51 83.7135 212.747 83.4323 213.055 83.1875C213.367 82.9375 213.74 82.7422 214.172 82.6016C214.609 82.4609 215.099 82.3906 215.641 82.3906C216.281 82.3906 216.852 82.5 217.352 82.7188C217.857 82.9323 218.253 83.2552 218.539 83.6875C218.831 84.1198 218.977 84.6641 218.977 85.3203V89.0078C218.977 89.4297 219.003 89.7917 219.055 90.0938C219.112 90.3906 219.195 90.6484 219.305 90.8672V91H217.203C217.104 90.7865 217.029 90.5156 216.977 90.1875C216.924 89.8542 216.898 89.526 216.898 89.2031ZM217.188 85.8516L217.203 87.0781H215.898C215.576 87.0781 215.292 87.112 215.047 87.1797C214.802 87.2422 214.602 87.3359 214.445 87.4609C214.289 87.5807 214.172 87.7266 214.094 87.8984C214.016 88.0651 213.977 88.2552 213.977 88.4688C213.977 88.6771 214.023 88.8646 214.117 89.0312C214.216 89.1979 214.357 89.3307 214.539 89.4297C214.727 89.5234 214.945 89.5703 215.195 89.5703C215.56 89.5703 215.878 89.4974 216.148 89.3516C216.419 89.2005 216.63 89.0182 216.781 88.8047C216.932 88.5911 217.013 88.388 217.023 88.1953L217.617 89.0859C217.544 89.2995 217.435 89.526 217.289 89.7656C217.143 90.0052 216.956 90.2292 216.727 90.4375C216.497 90.6458 216.221 90.8177 215.898 90.9531C215.576 91.0885 215.201 91.1562 214.773 91.1562C214.227 91.1562 213.737 91.0469 213.305 90.8281C212.872 90.6094 212.531 90.3099 212.281 89.9297C212.031 89.5495 211.906 89.1172 211.906 88.6328C211.906 88.1849 211.99 87.7891 212.156 87.4453C212.323 87.1016 212.57 86.8125 212.898 86.5781C213.227 86.3385 213.633 86.1589 214.117 86.0391C214.607 85.9141 215.167 85.8516 215.797 85.8516H217.188ZM226.609 86.0156V87.6328H222.273V86.0156H226.609ZM222.922 82.5469V91H220.852V82.5469H222.922ZM228.055 82.5469V91H225.977V82.5469H228.055ZM231.453 82.5469H233.516L233.438 85.4531C233.411 86.3333 233.307 87.0938 233.125 87.7344C232.948 88.3698 232.711 88.9036 232.414 89.3359C232.122 89.7682 231.789 90.1172 231.414 90.3828C231.044 90.6484 230.656 90.8542 230.25 91H229.758L229.75 89.3906L229.992 89.375C230.237 89.1146 230.443 88.8594 230.609 88.6094C230.781 88.3542 230.919 88.0807 231.023 87.7891C231.128 87.4974 231.206 87.1641 231.258 86.7891C231.315 86.4089 231.352 85.9635 231.367 85.4531L231.453 82.5469ZM232.008 82.5469H237.484V91H235.422V84.2422H232.008V82.5469ZM229.289 89.375H238.664V93.5312H236.602V91H231.391V93.5312H229.281L229.289 89.375ZM242.406 90.0625L244.672 82.5469H246.883L243.492 92.2812C243.414 92.4896 243.312 92.7161 243.188 92.9609C243.068 93.2057 242.906 93.4375 242.703 93.6562C242.5 93.8802 242.245 94.0625 241.938 94.2031C241.635 94.3438 241.268 94.4141 240.836 94.4141C240.648 94.4141 240.482 94.401 240.336 94.375C240.19 94.349 240.036 94.3151 239.875 94.2734V92.7266C239.927 92.7318 239.987 92.7344 240.055 92.7344C240.128 92.7396 240.19 92.7422 240.242 92.7422C240.544 92.7422 240.794 92.7057 240.992 92.6328C241.19 92.5651 241.349 92.4531 241.469 92.2969C241.594 92.1458 241.698 91.9479 241.781 91.7031L242.406 90.0625ZM241.289 82.5469L243.203 88.7734L243.539 90.9531L242.117 91.2109L239.062 82.5469H241.289ZM250.234 79.625L250.008 87.5859H248.266L248.039 79.625H250.234ZM247.977 90.0391C247.977 89.7318 248.081 89.474 248.289 89.2656C248.503 89.0521 248.789 88.9453 249.148 88.9453C249.508 88.9453 249.792 89.0521 250 89.2656C250.214 89.474 250.32 89.7318 250.32 90.0391C250.32 90.3411 250.214 90.5964 250 90.8047C249.792 91.013 249.508 91.1172 249.148 91.1172C248.789 91.1172 248.503 91.013 248.289 90.8047C248.081 90.5964 247.977 90.3411 247.977 90.0391Z" fill="#707070"/>
<defs>
<radialGradient id="paint0_radial_137159_809" cx="0" cy="0" r="1" gradientUnits="userSpaceOnUse" gradientTransform="translate(168.207 136.446) rotate(90) scale(4.5429 3.2252)">
<stop stop-color="#FFBBBB"/>
<stop offset="1" stop-color="#FFBBBB" stop-opacity="0"/>
</radialGradient>
<radialGradient id="paint1_radial_137159_809" cx="0" cy="0" r="1" gradientUnits="userSpaceOnUse" gradientTransform="translate(154.546 135.983) rotate(90) scale(4.5429 3.2252)">
<stop stop-color="#FFBBBB"/>
<stop offset="1" stop-color="#FFBBBB" stop-opacity="0"/>
</radialGradient>
</defs>
</svg>
