<svg xmlns="http://www.w3.org/2000/svg" viewBox="0 0 308 596"><svg width="308" height="288" viewBox="0 0 308 288" fill="none" x="0" y="0">
<path d="M146.089 96.668C131.414 103.747 134.71 120.505 138.193 128C127.114 128 116.488 109.046 112.56 99.5691C101.181 100.584 75.4595 100.12 63.6028 90.1404C48.782 77.6657 49.2679 40.6764 66.5184 14.7115C83.7688 -11.2535 225.174 10.5048 248.377 11.0851C271.58 11.6653 286.523 40.0962 272.674 81.292C258.825 122.488 164.433 87.8196 146.089 96.668Z" fill="white" stroke="#B1CCFF" stroke-width="2"/>
<path d="M177.528 245.139L184.158 247.688L194.421 240.194L163.616 197.325L130.183 171.002L177.528 245.139Z" fill="#808080"/>
<rect x="145.301" y="208.375" width="11.1564" height="6.3013" transform="rotate(-119.719 145.301 208.375)" fill="#C4C4C4"/>
<path d="M155.277 178.511L153.238 182.108L154.699 184.666L156.325 180.346L155.277 178.511Z" fill="#A7A7A7"/>
<rect x="138.337" y="196.173" width="11.1564" height="6.3013" transform="rotate(-119.719 138.337 196.173)" fill="#C4C4C4"/>
<path d="M187.769 252.764L183.85 247.983C194.138 237.709 203.529 234.202 206.939 233.733L209.115 237.546C198.288 243.25 190.373 250.068 187.769 252.764Z" fill="#A7A7A7"/>
<path d="M146.648 219.589L123.419 183.22C124.717 179.576 128.326 179.209 129.968 179.481L152.748 216.107C152.088 219.41 148.407 219.805 146.648 219.589Z" fill="#A7A7A7"/>
<path d="M125.761 158.985L107.74 131.27C108.742 125.44 113.465 125.811 115.702 126.725L134.207 155.235L125.761 158.985Z" fill="#9B9B9B"/>
<path d="M135.087 161.782L125.614 147.214C126.14 144.15 128.623 144.345 129.798 144.825L139.525 159.811L135.087 161.782Z" fill="#A7A7A7"/>
<path d="M122.285 168.106L124.561 164.488L129.861 173.773L126.023 174.655L122.285 168.106Z" fill="#C4C4C4"/>
<path d="M124.076 159.888L126.352 156.269L131.652 165.555L127.815 166.437L124.076 159.888Z" fill="#C4C4C4"/>
<path fill-rule="evenodd" clip-rule="evenodd" d="M155.034 184.872L160.952 193.701C161.249 192.085 162.219 189.106 163.728 190.124C165.614 191.397 177.909 189.077 179.463 187.476C181.017 185.875 174.276 168.491 171.475 171.607C168.681 174.714 143.357 167.373 142.92 166.8L142.917 166.796C142.918 166.797 142.919 166.799 142.92 166.8L148.409 174.988C155.39 176.276 166.173 177.858 169.143 176.642C173.632 174.804 174.018 181.429 171.587 182.381C169.55 183.179 159.168 184.724 155.034 184.872ZM134.403 153.13L136.444 151.965L144.962 164.231L142.316 165.742L134.403 153.13Z" fill="#A7A7A7"/>
<path d="M206.81 233.925L194.997 241.62L163.769 197.594L158.364 200.68L165.97 212.545L159.997 216.876L158.943 217.477L155.071 215.227L123.725 164.846L125.227 163.988C125.669 163.737 126.705 163.002 127.32 162.08C127.935 161.158 126.128 157.527 125.148 155.827L134.839 152.644L149.285 174.669C154.873 183.364 166.677 200.865 169.191 201.309C172.333 201.865 179.708 206.814 184.283 210.298C187.944 213.085 185.973 215.984 184.53 217.085C185.746 221.173 195.543 224.448 200.289 225.574L206.81 233.925Z" fill="#9B9B9B"/>
<path d="M130.967 174.75C140.489 174.75 146.653 178.256 148.544 180.009C156.739 197.528 127.777 210.394 125.404 213.799C123.031 217.205 118.358 212.285 115.948 212.285C113.538 212.285 113.389 210.772 109.125 209.258C104.86 207.745 107.271 201.918 103.192 201.35C99.1125 200.783 100.967 197.566 96.7392 196.242C92.5118 194.918 96.5538 191.172 91.7331 190.415C86.9123 189.658 91.3622 186.442 87.654 184.928C83.9457 183.415 85.2066 181.417 85.2066 178.117C85.2066 172.593 111.312 152.879 111.313 155.187C120.42 156.458 128.21 168.758 130.967 174.75Z" fill="white"/>
<path d="M3.32566 121C97.5302 121 98.9555 153.027 109.374 154.446C117.609 157.678 124.807 167.514 87.7229 181C84.3293 179.649 86.3994 177.959 82.3271 177.791C78.2549 177.622 83.6846 170.392 75.3704 173.095C67.0562 175.797 69.6353 171.912 64.2057 171.912C59.8619 171.912 60.3823 169.885 61.1854 168.872C59.8846 169.378 56.4005 169.885 52.8713 167.858C50.0465 166.236 52.9957 164.281 54.5474 163.475C50.9743 164.94 43.0607 161.639 41.3672 159.953C40.4094 158.999 43.1818 157.831 45.2598 157.176C40.9762 157.487 31.6927 156.005 30.3043 154.446C29.0283 153.014 33.3245 150.561 35.6321 149.514C31.1187 149.739 21.8883 149.851 21.0738 148.5C20.3805 147.35 25.0809 144.943 28.6017 143.405C22.1407 145.781 16.7002 143.995 14.6601 142.689C21.7639 138.601 33.9829 131.554 26.0284 136.068C18.074 140.581 12.3072 137.948 10.4181 136.068C17.3636 134.187 28.9808 130.426 19.8861 130.426C10.7914 130.426 2.83926 128.218 0 127.115C8.51777 126.484 23.3747 125.128 14.6601 124.75C5.94547 124.372 3.47272 122.092 3.32566 121Z" fill="white"/>
<path d="M176.033 173.75C166.511 173.75 160.347 177.256 158.456 179.009C150.261 196.528 179.223 209.394 181.596 212.799C183.969 216.205 188.642 211.285 191.052 211.285C193.462 211.285 193.611 209.772 197.875 208.258C202.14 206.745 199.729 200.918 203.808 200.35C207.887 199.783 206.033 196.566 210.261 195.242C214.488 193.918 210.446 190.172 215.267 189.415C220.088 188.658 215.638 185.442 219.346 183.928C223.054 182.415 221.793 180.417 221.793 177.117C221.793 171.593 195.688 151.879 195.687 154.187C186.58 155.458 178.79 167.758 176.033 173.75Z" fill="white"/>
<path d="M303.674 118C209.47 118 208.045 151.095 197.626 152.561C189.391 155.901 182.193 166.064 219.277 180C222.671 178.604 220.601 176.858 224.673 176.684C228.745 176.509 223.315 169.038 231.63 171.831C239.944 174.624 237.365 170.609 242.794 170.609C247.138 170.609 246.618 168.515 245.815 167.467C247.115 167.991 250.599 168.515 254.129 166.42C256.953 164.744 254.004 162.724 252.453 161.891C256.026 163.405 263.939 159.993 265.633 158.251C266.591 157.266 263.818 156.058 261.74 155.381C266.024 155.703 275.307 154.171 276.696 152.561C277.972 151.081 273.675 148.546 271.368 147.464C275.881 147.697 285.112 147.813 285.926 146.417C286.619 145.228 281.919 142.741 278.398 141.151C284.859 143.607 290.3 141.761 292.34 140.412C285.236 136.188 273.017 128.906 280.972 133.57C288.926 138.234 294.693 135.513 296.582 133.57C289.636 131.627 278.019 127.74 287.114 127.74C296.209 127.74 304.161 125.459 307 124.319C298.482 123.667 283.625 122.266 292.34 121.875C301.055 121.484 303.527 119.129 303.674 118Z" fill="white"/>
<path d="M133.455 179.767C140.095 175.647 146.246 139.789 148.492 122.375C155.241 121.337 167.81 119.885 164.088 122.375C159.435 125.487 160.44 130.637 157.35 146.68C154.261 162.723 164.088 175.098 177.078 184.398C190.068 193.698 179.125 224.191 168.74 243.828C158.355 263.465 148.492 261.946 129.807 256.24C111.122 250.534 116.817 231.971 116.817 211.816C116.817 191.66 125.154 184.917 133.455 179.767Z" fill="white"/>
<path d="M129.079 268.551C134.538 258.748 132.635 253.658 131.001 252.338C127.549 250.867 127.314 254.186 127.039 262.481C126.765 270.776 123.47 275.376 121.705 277.375C119.94 279.373 110.331 282.766 112.253 283.445C113.79 283.988 117.077 282.264 118.528 281.334C117.116 283.747 115.775 287.412 121.705 282.766C129.118 276.96 137.864 281.975 138.806 281.334C139.559 280.821 137.943 279.536 137.041 278.958C135.668 278.732 132.154 278.099 129.079 277.375C126.004 276.651 127.798 271.191 129.079 268.551Z" fill="#FF6B0A"/>
<path d="M155.554 268.551C150.296 258.748 152.129 253.658 153.703 252.338C157.027 250.867 157.253 254.186 157.518 262.481C157.782 270.776 160.955 275.376 162.654 277.375C164.354 279.373 173.607 282.766 171.757 283.445C170.276 283.988 167.111 282.264 165.714 281.334C167.073 283.747 168.365 287.412 162.654 282.766C155.516 276.96 147.094 281.975 146.187 281.334C145.462 280.821 147.018 279.536 147.887 278.958C149.209 278.732 152.593 278.099 155.554 277.375C158.515 276.651 156.788 271.191 155.554 268.551Z" fill="#FF6B0A"/>
<path d="M149.178 108.247C149.386 102.904 154.508 102.88 157.044 103.535C163.871 102.009 162.943 111.401 164.501 113.33C166.06 115.26 165.948 117.152 165.429 122.791C164.909 128.431 157.044 133.403 152.999 132.846C148.955 132.29 146.321 126.576 144.725 120.825C143.13 115.074 148.918 114.926 149.178 108.247Z" fill="white"/>
<ellipse cx="1.33452" cy="2.0971" rx="1.33452" ry="2.0971" transform="matrix(-0.978865 0.204508 0.204508 0.978865 163.98 108.206)" fill="#0D070C"/>
<ellipse cx="148.973" cy="110.767" rx="1.33452" ry="2.0971" transform="rotate(6.93695 148.973 110.767)" fill="#0D070C"/>
<ellipse cx="162.207" cy="120.446" rx="3.2252" ry="4.5429" transform="rotate(22.9491 162.207 120.446)" fill="url(#paint0_radial_137103_405)"/>
<ellipse cx="148.546" cy="119.983" rx="3.2252" ry="4.5429" transform="rotate(-35.1816 148.546 119.983)" fill="url(#paint1_radial_137103_405)"/>
<ellipse opacity="0.2" cx="0.598251" cy="0.940109" rx="0.598251" ry="0.940109" transform="matrix(-0.895075 0.445916 0.445916 0.895075 149.14 108.96)" fill="white"/>
<ellipse opacity="0.2" cx="0.598251" cy="0.940109" rx="0.598251" ry="0.940109" transform="matrix(-0.895075 0.445916 0.445916 0.895075 163.252 108.573)" fill="white"/>
<path d="M161.476 113.949C161.5 107.308 155.094 106.471 155.124 106.552C148.804 108.537 149.621 114.226 149.884 115.062C150.606 117.363 146.816 119.584 148.078 121.96C149.339 124.336 149.538 129.388 150.64 132.871C151.315 135.006 152.231 135.757 152.862 135.931C152.696 135.94 152.766 135.945 152.934 135.949C153.096 135.984 153.238 135.98 153.347 135.952C153.193 135.952 153.043 135.951 152.934 135.949C152.91 135.944 152.887 135.938 152.862 135.931C153.081 135.92 153.709 135.903 155.061 135.88C158.875 135.813 158.901 130.803 161.944 124.949C164.987 119.096 161.447 122.251 161.476 113.949Z" fill="#FF6B0A"/>
<path d="M154.958 133.451C157.994 133.055 158.691 126.248 158.66 122.894C156.77 122.561 152.685 122.156 151.47 123.2C149.951 124.504 151.163 133.946 154.958 133.451Z" fill="#1F0C02"/>
<path d="M154.303 132.62C152.158 132.444 152.633 127.746 153.138 125.419L157.281 125.243C157.182 127.775 156.447 132.796 154.303 132.62Z" fill="#956C7C"/>
<path d="M154.468 130.939C154.014 130.643 154.461 125.995 154.742 123.708L155.656 123.766C155.449 126.281 154.922 131.235 154.468 130.939Z" fill="#86616F"/>
<path d="M159.789 120.27C157.546 115.977 158.643 113.497 159.472 112.794C156.092 108.702 152.508 111.325 151.138 113.148C153.749 117.331 151.794 113.979 150.503 120.665C149.471 126.013 153.043 127.665 154.958 127.822C157.503 127.094 162.032 124.564 159.789 120.27Z" fill="#EA5F03"/>
<path d="M150.337 122.886C154.932 116.05 158.738 120.748 160.066 123.951C159.678 125.304 158.09 127.976 154.841 127.847C151.592 127.717 150.484 124.486 150.337 122.886Z" fill="#EFE5D5"/>
<path d="M155.744 121.82C155.773 121.253 155.92 120.201 156.271 120.526C156.622 120.852 156.066 121.524 155.744 121.82Z" fill="#DACAB0"/>
<path d="M154.67 121.867C154.682 121.3 154.612 120.24 154.238 120.539C153.864 120.838 154.371 121.549 154.67 121.867Z" fill="#DACAB0"/>
<path d="M151.853 99.3969L151.627 104.251C154.382 106.684 159.24 105.542 161.325 104.667L161.482 99.718L151.853 99.3969Z" fill="#373500"/>
<path d="M151.627 104.251C152.349 106.838 155.347 110.301 161.314 104.632L151.627 104.251Z" fill="#373500"/>
<ellipse cx="4.82508" cy="0.831725" rx="4.82508" ry="0.831725" transform="matrix(-0.99961 -0.0279109 -0.0279109 0.99961 161.503 98.8621)" fill="#373500"/>
<path d="M151.853 99.3969L151.627 104.251C154.382 106.684 159.24 105.542 161.325 104.667L161.482 99.718C161.482 99.718 160.703 99.8593 160.2 99.8481C159.598 99.8348 158.679 99.5868 158.679 99.5868L155.883 103.809L154.46 99.2782C154.46 99.2782 153.686 99.6697 153.151 99.6895C152.632 99.7087 151.853 99.3969 151.853 99.3969Z" fill="#4B4800"/>
<path d="M156.959 100.13C156.935 100.142 156.916 100.15 156.898 100.161C156.751 100.25 156.657 100.359 156.611 100.523C156.591 100.592 156.58 100.664 156.565 100.734C156.552 100.796 156.539 100.856 156.525 100.918C156.521 100.934 156.522 100.941 156.541 100.945C156.58 100.952 156.612 100.974 156.624 101.014C156.636 101.049 156.627 101.08 156.604 101.106C156.58 101.133 156.548 101.141 156.513 101.139C156.495 101.137 156.484 101.129 156.476 101.112C156.415 100.983 156.385 100.847 156.381 100.705C156.378 100.587 156.399 100.471 156.415 100.356C156.424 100.29 156.43 100.223 156.441 100.158C156.447 100.116 156.45 100.077 156.443 100.036C156.437 99.9943 156.422 99.9555 156.396 99.9192C156.363 99.9475 156.34 99.9825 156.328 100.022C156.317 100.06 156.311 100.1 156.306 100.138C156.301 100.179 156.301 100.221 156.298 100.262C156.292 100.369 156.286 100.477 156.275 100.585C156.257 100.764 156.195 100.927 156.089 101.071C156.075 101.091 156.058 101.095 156.036 101.091C155.981 101.081 155.943 101.034 155.948 100.982C155.953 100.933 156 100.894 156.055 100.897C156.075 100.898 156.077 100.891 156.076 100.874C156.074 100.789 156.073 100.703 156.072 100.617C156.069 100.52 156.073 100.424 156.042 100.33C156.001 100.206 155.932 100.119 155.829 100.038C155.821 100.033 155.813 100.027 155.802 100.019C155.801 100.03 155.801 100.036 155.8 100.043C155.757 100.49 155.715 100.919 155.672 101.366C155.67 101.391 155.67 101.391 155.694 101.393C155.786 101.402 155.879 101.411 155.971 101.42C155.987 101.422 155.993 101.427 155.995 101.443C156.01 101.568 156.063 101.676 156.157 101.762C156.176 101.78 156.193 101.803 156.211 101.823C156.269 101.768 156.346 101.734 156.397 101.668C156.439 101.613 156.474 101.555 156.493 101.489C156.498 101.475 156.505 101.471 156.519 101.472C156.613 101.481 156.706 101.49 156.8 101.499C156.817 101.501 156.824 101.498 156.826 101.479C156.869 101.03 156.911 100.598 156.954 100.149C156.957 100.147 156.957 100.143 156.959 100.13ZM156.836 100.325C156.839 100.327 156.842 100.327 156.844 100.329C156.844 100.337 156.843 100.345 156.842 100.353C156.821 100.569 156.802 100.767 156.781 100.983C156.778 101.019 156.778 101.019 156.74 101.016C156.726 101.014 156.72 101.01 156.718 100.996C156.708 100.952 156.683 100.917 156.647 100.892C156.631 100.881 156.63 100.871 156.634 100.855C156.652 100.776 156.672 100.696 156.686 100.617C156.702 100.535 156.727 100.475 156.776 100.406C156.795 100.377 156.816 100.353 156.836 100.325ZM155.879 100.236C155.881 100.237 155.882 100.235 155.885 100.236C155.891 100.246 155.897 100.256 155.902 100.265C155.94 100.339 155.972 100.397 155.976 100.48C155.98 100.585 155.981 100.69 155.984 100.795C155.985 100.81 155.981 100.818 155.966 100.825C155.926 100.843 155.895 100.872 155.875 100.913C155.867 100.932 155.853 100.935 155.824 100.927C155.805 100.922 155.814 100.908 155.815 100.898C155.836 100.679 155.855 100.476 155.877 100.256C155.876 100.249 155.877 100.242 155.879 100.236ZM156.52 101.235C156.526 101.235 156.533 101.234 156.541 101.233C156.616 101.224 156.676 101.193 156.707 101.121C156.711 101.111 156.716 101.106 156.727 101.109C156.735 101.109 156.743 101.11 156.751 101.111C156.763 101.112 156.767 101.117 156.766 101.129C156.757 101.215 156.749 101.303 156.739 101.39C156.739 101.394 156.729 101.404 156.724 101.403C156.661 101.398 156.597 101.392 156.535 101.385C156.53 101.384 156.521 101.375 156.521 101.371C156.52 101.326 156.52 101.282 156.52 101.235ZM156.022 101.187C156.013 101.233 156.003 101.276 155.994 101.321C155.992 101.334 155.983 101.333 155.973 101.332C155.914 101.326 155.856 101.319 155.797 101.315C155.778 101.313 155.773 101.305 155.776 101.288C155.784 101.211 155.791 101.133 155.798 101.055C155.802 101.019 155.802 101.019 155.838 101.023C155.848 101.024 155.858 101.024 155.86 101.038C155.874 101.108 155.921 101.149 155.984 101.175C155.997 101.18 156.011 101.183 156.022 101.187ZM156.3 100.885C156.324 100.978 156.348 101.067 156.39 101.153C156.352 101.174 156.316 101.194 156.279 101.212C156.274 101.215 156.263 101.212 156.257 101.208C156.229 101.186 156.203 101.163 156.175 101.141C156.166 101.135 156.164 101.129 156.171 101.119C156.221 101.053 156.257 100.979 156.29 100.903C156.294 100.898 156.297 100.891 156.3 100.885ZM156.396 101.462C156.395 101.523 156.319 101.637 156.279 101.648C156.278 101.647 156.277 101.646 156.277 101.646C156.283 101.585 156.288 101.525 156.294 101.467C156.295 101.462 156.304 101.456 156.308 101.455C156.338 101.456 156.367 101.46 156.396 101.462ZM156.181 101.641C156.134 101.607 156.088 101.478 156.101 101.433C156.126 101.435 156.154 101.438 156.18 101.44C156.195 101.442 156.199 101.448 156.198 101.462C156.193 101.51 156.188 101.559 156.183 101.607C156.184 101.618 156.183 101.628 156.181 101.641ZM156.364 101.367C156.349 101.366 156.332 101.365 156.318 101.362C156.313 101.361 156.304 101.351 156.306 101.348C156.318 101.297 156.355 101.257 156.405 101.25C156.415 101.249 156.421 101.251 156.422 101.262C156.424 101.294 156.424 101.325 156.426 101.358C156.426 101.37 156.418 101.374 156.408 101.373C156.394 101.37 156.379 101.369 156.364 101.367ZM156.15 101.347C156.136 101.345 156.123 101.344 156.109 101.343C156.095 101.342 156.088 101.336 156.092 101.321C156.098 101.292 156.104 101.264 156.112 101.236C156.115 101.222 156.123 101.219 156.136 101.225C156.179 101.242 156.214 101.293 156.211 101.338C156.21 101.343 156.201 101.35 156.197 101.351C156.18 101.351 156.165 101.348 156.15 101.347Z" fill="#FFD500"/>
<path d="M141.066 162.794C148.597 165.522 154.772 163.087 158.393 161.421L159.283 163.981C151.128 168.339 144.022 166.832 140.435 165.205L141.066 162.794Z" fill="#005BBB"/>
<path d="M140.398 165.354C149.425 168.962 155.712 165.72 159.357 164.092L160.396 166.652C152.172 170.925 143.349 169.066 139.804 167.394L140.398 165.354Z" fill="#FFD500"/>
<path d="M139.997 166.899C134.664 166.885 125.6 170.667 131.942 184.51C138.237 198.25 138.917 207.41 135.025 206.204C134.997 206.194 134.968 206.184 134.938 206.176C134.967 206.186 134.996 206.195 135.025 206.204C136.1 206.619 135.409 208.839 135.917 209.614C140.336 209.91 141.128 201.36 132.626 184.229C130.619 179.634 129.806 170.195 139.304 169.204L139.997 166.899Z" fill="#FFD500"/>
<path d="M140.986 163.564C135.624 162.663 129.671 162.919 134.46 178.033C139.201 192.993 132.87 192.822 129.003 190.824C128.966 190.802 128.926 190.781 128.883 190.762C128.923 190.783 128.963 190.804 129.003 190.824C129.948 191.398 128.633 192.757 129.05 193.618C133.461 194.653 140.861 192.95 135.18 177.862C133.689 172.861 130.731 164.894 140.398 165.466L140.986 163.564Z" fill="#005BBB"/>
<path d="M116.5 212.5C159.807 240.401 167.893 199.168 166.273 175.15L169 174H172.283C176.291 237.461 135.311 233.838 116.5 221V212.5Z" fill="#9B9B9B"/>
<path d="M100.648 30.9609L103.492 23.625H105.828L101.906 32.8672C101.776 33.1641 101.628 33.4505 101.461 33.7266C101.294 34.0026 101.094 34.25 100.859 34.4688C100.63 34.6823 100.352 34.8516 100.023 34.9766C99.7005 35.1016 99.3099 35.1641 98.8516 35.1641C98.7318 35.1641 98.5885 35.1589 98.4219 35.1484C98.2552 35.1432 98.1276 35.1354 98.0391 35.125V33.4375C98.1016 33.4531 98.2031 33.4635 98.3438 33.4688C98.4896 33.474 98.5938 33.4766 98.6562 33.4766C98.9583 33.4766 99.1979 33.4297 99.375 33.3359C99.5573 33.237 99.7005 33.1042 99.8047 32.9375C99.9141 32.7656 100.01 32.5703 100.094 32.3516L100.648 30.9609ZM98.6328 23.625L101.359 29.5859L102 31.9062L100.367 31.9531L96.3047 23.625H98.6328ZM109.961 33.5312C110.253 33.5312 110.513 33.474 110.742 33.3594C110.971 33.2448 111.154 33.0833 111.289 32.875C111.43 32.6667 111.505 32.4245 111.516 32.1484H113.461C113.451 32.7214 113.289 33.2344 112.977 33.6875C112.664 34.1406 112.247 34.5 111.727 34.7656C111.211 35.026 110.633 35.1562 109.992 35.1562C109.341 35.1562 108.773 35.0469 108.289 34.8281C107.805 34.6094 107.401 34.3047 107.078 33.9141C106.76 33.5234 106.521 33.0703 106.359 32.5547C106.203 32.0391 106.125 31.487 106.125 30.8984V30.6484C106.125 30.0599 106.203 29.5078 106.359 28.9922C106.521 28.4766 106.76 28.0234 107.078 27.6328C107.401 27.2422 107.805 26.9375 108.289 26.7188C108.773 26.5 109.339 26.3906 109.984 26.3906C110.667 26.3906 111.266 26.5234 111.781 26.7891C112.302 27.0547 112.708 27.4297 113 27.9141C113.297 28.3984 113.451 28.9688 113.461 29.625H111.516C111.505 29.3229 111.438 29.0521 111.312 28.8125C111.188 28.5729 111.01 28.3802 110.781 28.2344C110.552 28.0885 110.273 28.0156 109.945 28.0156C109.596 28.0156 109.305 28.0885 109.07 28.2344C108.841 28.3802 108.661 28.5807 108.531 28.8359C108.406 29.0859 108.318 29.3672 108.266 29.6797C108.219 29.987 108.195 30.3099 108.195 30.6484V30.8984C108.195 31.2422 108.219 31.5703 108.266 31.8828C108.318 32.1953 108.406 32.4766 108.531 32.7266C108.661 32.9714 108.841 33.1667 109.07 33.3125C109.305 33.4583 109.602 33.5312 109.961 33.5312ZM117.023 26.5469V35H114.953V26.5469H117.023ZM114.812 24.3359C114.812 24.0286 114.917 23.7734 115.125 23.5703C115.339 23.3672 115.625 23.2656 115.984 23.2656C116.344 23.2656 116.628 23.3672 116.836 23.5703C117.049 23.7734 117.156 24.0286 117.156 24.3359C117.156 24.638 117.049 24.8906 116.836 25.0938C116.628 25.2969 116.344 25.3984 115.984 25.3984C115.625 25.3984 115.339 25.2969 115.125 25.0938C114.917 24.8906 114.812 24.638 114.812 24.3359ZM126.445 33.5312C126.737 33.5312 126.997 33.474 127.227 33.3594C127.456 33.2448 127.638 33.0833 127.773 32.875C127.914 32.6667 127.99 32.4245 128 32.1484H129.945C129.935 32.7214 129.773 33.2344 129.461 33.6875C129.148 34.1406 128.732 34.5 128.211 34.7656C127.695 35.026 127.117 35.1562 126.477 35.1562C125.826 35.1562 125.258 35.0469 124.773 34.8281C124.289 34.6094 123.885 34.3047 123.562 33.9141C123.245 33.5234 123.005 33.0703 122.844 32.5547C122.688 32.0391 122.609 31.487 122.609 30.8984V30.6484C122.609 30.0599 122.688 29.5078 122.844 28.9922C123.005 28.4766 123.245 28.0234 123.562 27.6328C123.885 27.2422 124.289 26.9375 124.773 26.7188C125.258 26.5 125.823 26.3906 126.469 26.3906C127.151 26.3906 127.75 26.5234 128.266 26.7891C128.786 27.0547 129.193 27.4297 129.484 27.9141C129.781 28.3984 129.935 28.9688 129.945 29.625H128C127.99 29.3229 127.922 29.0521 127.797 28.8125C127.672 28.5729 127.495 28.3802 127.266 28.2344C127.036 28.0885 126.758 28.0156 126.43 28.0156C126.081 28.0156 125.789 28.0885 125.555 28.2344C125.326 28.3802 125.146 28.5807 125.016 28.8359C124.891 29.0859 124.802 29.3672 124.75 29.6797C124.703 29.987 124.68 30.3099 124.68 30.6484V30.8984C124.68 31.2422 124.703 31.5703 124.75 31.8828C124.802 32.1953 124.891 32.4766 125.016 32.7266C125.146 32.9714 125.326 33.1667 125.555 33.3125C125.789 33.4583 126.086 33.5312 126.445 33.5312ZM133.406 32.0547L136.484 26.5469H138.555V35H136.484V29.4844L133.406 35H131.336V26.5469H133.406V32.0547ZM143.898 33.5312C144.19 33.5312 144.451 33.474 144.68 33.3594C144.909 33.2448 145.091 33.0833 145.227 32.875C145.367 32.6667 145.443 32.4245 145.453 32.1484H147.398C147.388 32.7214 147.227 33.2344 146.914 33.6875C146.602 34.1406 146.185 34.5 145.664 34.7656C145.148 35.026 144.57 35.1562 143.93 35.1562C143.279 35.1562 142.711 35.0469 142.227 34.8281C141.742 34.6094 141.339 34.3047 141.016 33.9141C140.698 33.5234 140.458 33.0703 140.297 32.5547C140.141 32.0391 140.062 31.487 140.062 30.8984V30.6484C140.062 30.0599 140.141 29.5078 140.297 28.9922C140.458 28.4766 140.698 28.0234 141.016 27.6328C141.339 27.2422 141.742 26.9375 142.227 26.7188C142.711 26.5 143.276 26.3906 143.922 26.3906C144.604 26.3906 145.203 26.5234 145.719 26.7891C146.24 27.0547 146.646 27.4297 146.938 27.9141C147.234 28.3984 147.388 28.9688 147.398 29.625H145.453C145.443 29.3229 145.375 29.0521 145.25 28.8125C145.125 28.5729 144.948 28.3802 144.719 28.2344C144.49 28.0885 144.211 28.0156 143.883 28.0156C143.534 28.0156 143.242 28.0885 143.008 28.2344C142.779 28.3802 142.599 28.5807 142.469 28.8359C142.344 29.0859 142.255 29.3672 142.203 29.6797C142.156 29.987 142.133 30.3099 142.133 30.6484V30.8984C142.133 31.2422 142.156 31.5703 142.203 31.8828C142.255 32.1953 142.344 32.4766 142.469 32.7266C142.599 32.9714 142.779 33.1667 143.008 33.3125C143.242 33.4583 143.539 33.5312 143.898 33.5312ZM152.875 26.5469V35H150.805V26.5469H152.875ZM155.625 26.5469V28.1562H148.102V26.5469H155.625ZM160.07 35.1562C159.43 35.1562 158.854 35.0521 158.344 34.8438C157.833 34.6354 157.398 34.3464 157.039 33.9766C156.685 33.6016 156.411 33.1667 156.219 32.6719C156.031 32.1719 155.938 31.6354 155.938 31.0625V30.75C155.938 30.099 156.031 29.5078 156.219 28.9766C156.406 28.4401 156.672 27.9792 157.016 27.5938C157.359 27.2083 157.771 26.9115 158.25 26.7031C158.729 26.4948 159.258 26.3906 159.836 26.3906C160.435 26.3906 160.964 26.4922 161.422 26.6953C161.88 26.8932 162.263 27.1745 162.57 27.5391C162.878 27.9036 163.109 28.3411 163.266 28.8516C163.422 29.3568 163.5 29.9167 163.5 30.5312V31.3984H156.875V29.9766H161.469V29.8203C161.458 29.4922 161.396 29.1927 161.281 28.9219C161.167 28.6458 160.99 28.4271 160.75 28.2656C160.51 28.099 160.201 28.0156 159.82 28.0156C159.513 28.0156 159.245 28.0833 159.016 28.2188C158.792 28.349 158.604 28.5365 158.453 28.7812C158.307 29.0208 158.198 29.3073 158.125 29.6406C158.052 29.974 158.016 30.3438 158.016 30.75V31.0625C158.016 31.4167 158.062 31.7448 158.156 32.0469C158.255 32.349 158.398 32.612 158.586 32.8359C158.779 33.0547 159.008 33.2266 159.273 33.3516C159.544 33.4714 159.852 33.5312 160.195 33.5312C160.628 33.5312 161.018 33.4479 161.367 33.2812C161.721 33.1094 162.029 32.8568 162.289 32.5234L163.328 33.6016C163.151 33.862 162.911 34.112 162.609 34.3516C162.312 34.5911 161.953 34.7865 161.531 34.9375C161.109 35.0833 160.622 35.1562 160.07 35.1562ZM169.953 32.5625L172.328 26.5469H174.055L170.656 35H169.258L165.867 26.5469H167.602L169.953 32.5625ZM167.094 26.5469V35H165.023V26.5469H167.094ZM172.852 35V26.5469H174.922V35H172.852ZM179.062 32.0547L182.141 26.5469H184.211V35H182.141V29.4844L179.062 35H176.992V26.5469H179.062V32.0547ZM102 52.5625L104.375 46.5469H106.102L102.703 55H101.305L97.9141 46.5469H99.6484L102 52.5625ZM99.1406 46.5469V55H97.0703V46.5469H99.1406ZM104.898 55V46.5469H106.969V55H104.898ZM112.82 55.1562C112.18 55.1562 111.604 55.0521 111.094 54.8438C110.583 54.6354 110.148 54.3464 109.789 53.9766C109.435 53.6016 109.161 53.1667 108.969 52.6719C108.781 52.1719 108.688 51.6354 108.688 51.0625V50.75C108.688 50.099 108.781 49.5078 108.969 48.9766C109.156 48.4401 109.422 47.9792 109.766 47.5938C110.109 47.2083 110.521 46.9115 111 46.7031C111.479 46.4948 112.008 46.3906 112.586 46.3906C113.185 46.3906 113.714 46.4922 114.172 46.6953C114.63 46.8932 115.013 47.1745 115.32 47.5391C115.628 47.9036 115.859 48.3411 116.016 48.8516C116.172 49.3568 116.25 49.9167 116.25 50.5312V51.3984H109.625V49.9766H114.219V49.8203C114.208 49.4922 114.146 49.1927 114.031 48.9219C113.917 48.6458 113.74 48.4271 113.5 48.2656C113.26 48.099 112.951 48.0156 112.57 48.0156C112.263 48.0156 111.995 48.0833 111.766 48.2188C111.542 48.349 111.354 48.5365 111.203 48.7812C111.057 49.0208 110.948 49.3073 110.875 49.6406C110.802 49.974 110.766 50.3438 110.766 50.75V51.0625C110.766 51.4167 110.812 51.7448 110.906 52.0469C111.005 52.349 111.148 52.612 111.336 52.8359C111.529 53.0547 111.758 53.2266 112.023 53.3516C112.294 53.4714 112.602 53.5312 112.945 53.5312C113.378 53.5312 113.768 53.4479 114.117 53.2812C114.471 53.1094 114.779 52.8568 115.039 52.5234L116.078 53.6016C115.901 53.862 115.661 54.112 115.359 54.3516C115.062 54.5911 114.703 54.7865 114.281 54.9375C113.859 55.0833 113.372 55.1562 112.82 55.1562ZM123.312 46.5469V48.1797H119.711V55H117.648V46.5469H123.312ZM129.008 53.2031V49.3047C129.008 49.0182 128.958 48.7708 128.859 48.5625C128.76 48.3542 128.609 48.1927 128.406 48.0781C128.203 47.9635 127.945 47.9062 127.633 47.9062C127.357 47.9062 127.115 47.9531 126.906 48.0469C126.703 48.1406 126.547 48.2734 126.438 48.4453C126.328 48.612 126.273 48.8047 126.273 49.0234H124.203C124.203 48.6745 124.286 48.3438 124.453 48.0312C124.62 47.7135 124.857 47.4323 125.164 47.1875C125.477 46.9375 125.849 46.7422 126.281 46.6016C126.719 46.4609 127.208 46.3906 127.75 46.3906C128.391 46.3906 128.961 46.5 129.461 46.7188C129.966 46.9323 130.362 47.2552 130.648 47.6875C130.94 48.1198 131.086 48.6641 131.086 49.3203V53.0078C131.086 53.4297 131.112 53.7917 131.164 54.0938C131.221 54.3906 131.305 54.6484 131.414 54.8672V55H129.312C129.214 54.7865 129.138 54.5156 129.086 54.1875C129.034 53.8542 129.008 53.526 129.008 53.2031ZM129.297 49.8516L129.312 51.0781H128.008C127.685 51.0781 127.401 51.112 127.156 51.1797C126.911 51.2422 126.711 51.3359 126.555 51.4609C126.398 51.5807 126.281 51.7266 126.203 51.8984C126.125 52.0651 126.086 52.2552 126.086 52.4688C126.086 52.6771 126.133 52.8646 126.227 53.0312C126.326 53.1979 126.466 53.3307 126.648 53.4297C126.836 53.5234 127.055 53.5703 127.305 53.5703C127.669 53.5703 127.987 53.4974 128.258 53.3516C128.529 53.2005 128.74 53.0182 128.891 52.8047C129.042 52.5911 129.122 52.388 129.133 52.1953L129.727 53.0859C129.654 53.2995 129.544 53.526 129.398 53.7656C129.253 54.0052 129.065 54.2292 128.836 54.4375C128.607 54.6458 128.331 54.8177 128.008 54.9531C127.685 55.0885 127.31 55.1562 126.883 55.1562C126.336 55.1562 125.846 55.0469 125.414 54.8281C124.982 54.6094 124.641 54.3099 124.391 53.9297C124.141 53.5495 124.016 53.1172 124.016 52.6328C124.016 52.1849 124.099 51.7891 124.266 51.4453C124.432 51.1016 124.68 50.8125 125.008 50.5781C125.336 50.3385 125.742 50.1589 126.227 50.0391C126.716 49.9141 127.276 49.8516 127.906 49.8516H129.297ZM137.602 53.2031V49.3047C137.602 49.0182 137.552 48.7708 137.453 48.5625C137.354 48.3542 137.203 48.1927 137 48.0781C136.797 47.9635 136.539 47.9062 136.227 47.9062C135.951 47.9062 135.708 47.9531 135.5 48.0469C135.297 48.1406 135.141 48.2734 135.031 48.4453C134.922 48.612 134.867 48.8047 134.867 49.0234H132.797C132.797 48.6745 132.88 48.3438 133.047 48.0312C133.214 47.7135 133.451 47.4323 133.758 47.1875C134.07 46.9375 134.443 46.7422 134.875 46.6016C135.312 46.4609 135.802 46.3906 136.344 46.3906C136.984 46.3906 137.555 46.5 138.055 46.7188C138.56 46.9323 138.956 47.2552 139.242 47.6875C139.534 48.1198 139.68 48.6641 139.68 49.3203V53.0078C139.68 53.4297 139.706 53.7917 139.758 54.0938C139.815 54.3906 139.898 54.6484 140.008 54.8672V55H137.906C137.807 54.7865 137.732 54.5156 137.68 54.1875C137.628 53.8542 137.602 53.526 137.602 53.2031ZM137.891 49.8516L137.906 51.0781H136.602C136.279 51.0781 135.995 51.112 135.75 51.1797C135.505 51.2422 135.305 51.3359 135.148 51.4609C134.992 51.5807 134.875 51.7266 134.797 51.8984C134.719 52.0651 134.68 52.2552 134.68 52.4688C134.68 52.6771 134.727 52.8646 134.82 53.0312C134.919 53.1979 135.06 53.3307 135.242 53.4297C135.43 53.5234 135.648 53.5703 135.898 53.5703C136.263 53.5703 136.581 53.4974 136.852 53.3516C137.122 53.2005 137.333 53.0182 137.484 52.8047C137.635 52.5911 137.716 52.388 137.727 52.1953L138.32 53.0859C138.247 53.2995 138.138 53.526 137.992 53.7656C137.846 54.0052 137.659 54.2292 137.43 54.4375C137.201 54.6458 136.924 54.8177 136.602 54.9531C136.279 55.0885 135.904 55.1562 135.477 55.1562C134.93 55.1562 134.44 55.0469 134.008 54.8281C133.576 54.6094 133.234 54.3099 132.984 53.9297C132.734 53.5495 132.609 53.1172 132.609 52.6328C132.609 52.1849 132.693 51.7891 132.859 51.4453C133.026 51.1016 133.273 50.8125 133.602 50.5781C133.93 50.3385 134.336 50.1589 134.82 50.0391C135.31 49.9141 135.87 49.8516 136.5 49.8516H137.891ZM143.742 46.5469V55H141.68V46.5469H143.742ZM149.25 46.5469L145.523 51.7344H143.328L143.07 49.8438H144.594L146.648 46.5469H149.25ZM146.773 55L144.461 51.375L146.18 50.2969L149.516 55H146.773ZM154.562 46.5469V55H152.492V46.5469H154.562ZM157.312 46.5469V48.1562H149.789V46.5469H157.312ZM160.609 52.0547L163.688 46.5469H165.758V55H163.688V49.4844L160.609 55H158.539V46.5469H160.609V52.0547ZM171.789 51.4219H169.109L169.094 50.0234H171.297C171.625 50.0234 171.893 49.9896 172.102 49.9219C172.31 49.8542 172.464 49.7526 172.562 49.6172C172.667 49.4818 172.719 49.3177 172.719 49.125C172.719 48.9583 172.688 48.8151 172.625 48.6953C172.562 48.5703 172.469 48.4688 172.344 48.3906C172.224 48.3125 172.07 48.2552 171.883 48.2188C171.701 48.1771 171.487 48.1562 171.242 48.1562H169.844V55H167.773V46.5469H171.242C171.789 46.5469 172.281 46.5964 172.719 46.6953C173.156 46.7891 173.529 46.9323 173.836 47.125C174.143 47.3177 174.378 47.5625 174.539 47.8594C174.706 48.151 174.789 48.4948 174.789 48.8906C174.789 49.151 174.732 49.3958 174.617 49.625C174.503 49.8542 174.333 50.0573 174.109 50.2344C173.885 50.4115 173.609 50.5573 173.281 50.6719C172.953 50.7812 172.578 50.849 172.156 50.875L171.789 51.4219ZM171.789 55H168.555L169.32 53.3906H171.789C172.091 53.3906 172.341 53.3542 172.539 53.2812C172.737 53.2031 172.883 53.0911 172.977 52.9453C173.076 52.7995 173.125 52.6224 173.125 52.4141C173.125 52.2109 173.078 52.0365 172.984 51.8906C172.896 51.7396 172.753 51.625 172.555 51.5469C172.362 51.4635 172.107 51.4219 171.789 51.4219H169.656L169.672 50.0234H172.148L172.695 50.5781C173.258 50.6146 173.724 50.7292 174.094 50.9219C174.464 51.1094 174.74 51.349 174.922 51.6406C175.104 51.9271 175.195 52.2422 175.195 52.5859C175.195 52.987 175.12 53.3385 174.969 53.6406C174.818 53.9427 174.596 54.1953 174.305 54.3984C174.013 54.5964 173.656 54.7474 173.234 54.8516C172.812 54.9505 172.331 55 171.789 55ZM176.328 50.8594V50.6953C176.328 50.0755 176.417 49.5052 176.594 48.9844C176.771 48.4583 177.029 48.0026 177.367 47.6172C177.706 47.2318 178.12 46.9323 178.609 46.7188C179.099 46.5 179.656 46.3906 180.281 46.3906C180.917 46.3906 181.479 46.5 181.969 46.7188C182.464 46.9323 182.88 47.2318 183.219 47.6172C183.557 48.0026 183.815 48.4583 183.992 48.9844C184.169 49.5052 184.258 50.0755 184.258 50.6953V50.8594C184.258 51.474 184.169 52.0443 183.992 52.5703C183.815 53.0911 183.557 53.5469 183.219 53.9375C182.88 54.3229 182.466 54.6224 181.977 54.8359C181.487 55.0495 180.927 55.1562 180.297 55.1562C179.672 55.1562 179.112 55.0495 178.617 54.8359C178.122 54.6224 177.706 54.3229 177.367 53.9375C177.029 53.5469 176.771 53.0911 176.594 52.5703C176.417 52.0443 176.328 51.474 176.328 50.8594ZM178.391 50.6953V50.8594C178.391 51.2292 178.427 51.5755 178.5 51.8984C178.573 52.2214 178.685 52.5052 178.836 52.75C178.987 52.9948 179.182 53.1875 179.422 53.3281C179.667 53.4635 179.958 53.5312 180.297 53.5312C180.63 53.5312 180.917 53.4635 181.156 53.3281C181.396 53.1875 181.591 52.9948 181.742 52.75C181.898 52.5052 182.013 52.2214 182.086 51.8984C182.159 51.5755 182.195 51.2292 182.195 50.8594V50.6953C182.195 50.3307 182.159 49.9896 182.086 49.6719C182.013 49.349 181.898 49.0651 181.742 48.8203C181.591 48.5703 181.393 48.375 181.148 48.2344C180.909 48.0885 180.62 48.0156 180.281 48.0156C179.948 48.0156 179.661 48.0885 179.422 48.2344C179.182 48.375 178.987 48.5703 178.836 48.8203C178.685 49.0651 178.573 49.349 178.5 49.6719C178.427 49.9896 178.391 50.3307 178.391 50.6953ZM189.914 51.4219H187.234L187.219 50.0234H189.422C189.75 50.0234 190.018 49.9896 190.227 49.9219C190.435 49.8542 190.589 49.7526 190.688 49.6172C190.792 49.4818 190.844 49.3177 190.844 49.125C190.844 48.9583 190.812 48.8151 190.75 48.6953C190.688 48.5703 190.594 48.4688 190.469 48.3906C190.349 48.3125 190.195 48.2552 190.008 48.2188C189.826 48.1771 189.612 48.1562 189.367 48.1562H187.969V55H185.898V46.5469H189.367C189.914 46.5469 190.406 46.5964 190.844 46.6953C191.281 46.7891 191.654 46.9323 191.961 47.125C192.268 47.3177 192.503 47.5625 192.664 47.8594C192.831 48.151 192.914 48.4948 192.914 48.8906C192.914 49.151 192.857 49.3958 192.742 49.625C192.628 49.8542 192.458 50.0573 192.234 50.2344C192.01 50.4115 191.734 50.5573 191.406 50.6719C191.078 50.7812 190.703 50.849 190.281 50.875L189.914 51.4219ZM189.914 55H186.68L187.445 53.3906H189.914C190.216 53.3906 190.466 53.3542 190.664 53.2812C190.862 53.2031 191.008 53.0911 191.102 52.9453C191.201 52.7995 191.25 52.6224 191.25 52.4141C191.25 52.2109 191.203 52.0365 191.109 51.8906C191.021 51.7396 190.878 51.625 190.68 51.5469C190.487 51.4635 190.232 51.4219 189.914 51.4219H187.781L187.797 50.0234H190.273L190.82 50.5781C191.383 50.6146 191.849 50.7292 192.219 50.9219C192.589 51.1094 192.865 51.349 193.047 51.6406C193.229 51.9271 193.32 52.2422 193.32 52.5859C193.32 52.987 193.245 53.3385 193.094 53.6406C192.943 53.9427 192.721 54.1953 192.43 54.3984C192.138 54.5964 191.781 54.7474 191.359 54.8516C190.938 54.9505 190.456 55 189.914 55ZM199.477 53.2031V49.3047C199.477 49.0182 199.427 48.7708 199.328 48.5625C199.229 48.3542 199.078 48.1927 198.875 48.0781C198.672 47.9635 198.414 47.9062 198.102 47.9062C197.826 47.9062 197.583 47.9531 197.375 48.0469C197.172 48.1406 197.016 48.2734 196.906 48.4453C196.797 48.612 196.742 48.8047 196.742 49.0234H194.672C194.672 48.6745 194.755 48.3438 194.922 48.0312C195.089 47.7135 195.326 47.4323 195.633 47.1875C195.945 46.9375 196.318 46.7422 196.75 46.6016C197.188 46.4609 197.677 46.3906 198.219 46.3906C198.859 46.3906 199.43 46.5 199.93 46.7188C200.435 46.9323 200.831 47.2552 201.117 47.6875C201.409 48.1198 201.555 48.6641 201.555 49.3203V53.0078C201.555 53.4297 201.581 53.7917 201.633 54.0938C201.69 54.3906 201.773 54.6484 201.883 54.8672V55H199.781C199.682 54.7865 199.607 54.5156 199.555 54.1875C199.503 53.8542 199.477 53.526 199.477 53.2031ZM199.766 49.8516L199.781 51.0781H198.477C198.154 51.0781 197.87 51.112 197.625 51.1797C197.38 51.2422 197.18 51.3359 197.023 51.4609C196.867 51.5807 196.75 51.7266 196.672 51.8984C196.594 52.0651 196.555 52.2552 196.555 52.4688C196.555 52.6771 196.602 52.8646 196.695 53.0312C196.794 53.1979 196.935 53.3307 197.117 53.4297C197.305 53.5234 197.523 53.5703 197.773 53.5703C198.138 53.5703 198.456 53.4974 198.727 53.3516C198.997 53.2005 199.208 53.0182 199.359 52.8047C199.51 52.5911 199.591 52.388 199.602 52.1953L200.195 53.0859C200.122 53.2995 200.013 53.526 199.867 53.7656C199.721 54.0052 199.534 54.2292 199.305 54.4375C199.076 54.6458 198.799 54.8177 198.477 54.9531C198.154 55.0885 197.779 55.1562 197.352 55.1562C196.805 55.1562 196.315 55.0469 195.883 54.8281C195.451 54.6094 195.109 54.3099 194.859 53.9297C194.609 53.5495 194.484 53.1172 194.484 52.6328C194.484 52.1849 194.568 51.7891 194.734 51.4453C194.901 51.1016 195.148 50.8125 195.477 50.5781C195.805 50.3385 196.211 50.1589 196.695 50.0391C197.185 49.9141 197.745 49.8516 198.375 49.8516H199.766ZM209.188 50.0156V51.6328H204.852V50.0156H209.188ZM205.5 46.5469V55H203.43V46.5469H205.5ZM210.633 46.5469V55H208.555V46.5469H210.633ZM214.695 46.5469V55H212.625V46.5469H214.695ZM212.484 44.3359C212.484 44.0286 212.589 43.7734 212.797 43.5703C213.01 43.3672 213.297 43.2656 213.656 43.2656C214.016 43.2656 214.299 43.3672 214.508 43.5703C214.721 43.7734 214.828 44.0286 214.828 44.3359C214.828 44.638 214.721 44.8906 214.508 45.0938C214.299 45.2969 214.016 45.3984 213.656 45.3984C213.297 45.3984 213.01 45.2969 212.797 45.0938C212.589 44.8906 212.484 44.638 212.484 44.3359ZM216.75 53.9922C216.75 53.6797 216.857 53.4167 217.07 53.2031C217.284 52.9896 217.573 52.8828 217.938 52.8828C218.302 52.8828 218.591 52.9896 218.805 53.2031C219.018 53.4167 219.125 53.6797 219.125 53.9922C219.125 54.2995 219.018 54.5599 218.805 54.7734C218.591 54.9818 218.302 55.0859 217.938 55.0859C217.573 55.0859 217.284 54.9818 217.07 54.7734C216.857 54.5599 216.75 54.2995 216.75 53.9922ZM106.297 69.0234V69.6094C106.297 70.4688 106.182 71.2422 105.953 71.9297C105.724 72.612 105.398 73.1927 104.977 73.6719C104.555 74.151 104.052 74.5182 103.469 74.7734C102.885 75.0286 102.237 75.1562 101.523 75.1562C100.82 75.1562 100.174 75.0286 99.5859 74.7734C99.0026 74.5182 98.4974 74.151 98.0703 73.6719C97.6432 73.1927 97.3125 72.612 97.0781 71.9297C96.8438 71.2422 96.7266 70.4688 96.7266 69.6094V69.0234C96.7266 68.1589 96.8438 67.3854 97.0781 66.7031C97.3125 66.0208 97.6406 65.4401 98.0625 64.9609C98.4844 64.4766 98.987 64.1068 99.5703 63.8516C100.159 63.5964 100.805 63.4688 101.508 63.4688C102.221 63.4688 102.87 63.5964 103.453 63.8516C104.036 64.1068 104.539 64.4766 104.961 64.9609C105.388 65.4401 105.716 66.0208 105.945 66.7031C106.18 67.3854 106.297 68.1589 106.297 69.0234ZM104.125 69.6094V69.0078C104.125 68.388 104.068 67.8438 103.953 67.375C103.839 66.901 103.669 66.5026 103.445 66.1797C103.221 65.8568 102.945 65.6146 102.617 65.4531C102.289 65.2865 101.919 65.2031 101.508 65.2031C101.091 65.2031 100.721 65.2865 100.398 65.4531C100.081 65.6146 99.8099 65.8568 99.5859 66.1797C99.362 66.5026 99.1901 66.901 99.0703 67.375C98.9557 67.8438 98.8984 68.388 98.8984 69.0078V69.6094C98.8984 70.224 98.9557 70.7682 99.0703 71.2422C99.1901 71.7161 99.362 72.1172 99.5859 72.4453C99.8151 72.7682 100.091 73.013 100.414 73.1797C100.737 73.3464 101.107 73.4297 101.523 73.4297C101.94 73.4297 102.31 73.3464 102.633 73.1797C102.956 73.013 103.227 72.7682 103.445 72.4453C103.669 72.1172 103.839 71.7161 103.953 71.2422C104.068 70.7682 104.125 70.224 104.125 69.6094ZM114.914 66.5469V75H112.844V66.5469H114.914ZM113.977 70.2266V71.8516C113.779 71.9453 113.539 72.0339 113.258 72.1172C112.982 72.1953 112.69 72.2578 112.383 72.3047C112.081 72.3516 111.786 72.375 111.5 72.375C110.724 72.375 110.055 72.2604 109.492 72.0312C108.935 71.8021 108.505 71.4505 108.203 70.9766C107.901 70.4974 107.75 69.8854 107.75 69.1406V66.5391H109.812V69.1406C109.812 69.5417 109.872 69.8594 109.992 70.0938C110.112 70.3281 110.297 70.4948 110.547 70.5938C110.797 70.6927 111.115 70.7422 111.5 70.7422C111.797 70.7422 112.081 70.7214 112.352 70.6797C112.622 70.6328 112.891 70.5729 113.156 70.5C113.427 70.4219 113.701 70.3307 113.977 70.2266ZM118.977 66.5469V75H116.906V66.5469H118.977ZM116.766 64.3359C116.766 64.0286 116.87 63.7734 117.078 63.5703C117.292 63.3672 117.578 63.2656 117.938 63.2656C118.297 63.2656 118.581 63.3672 118.789 63.5703C119.003 63.7734 119.109 64.0286 119.109 64.3359C119.109 64.638 119.003 64.8906 118.789 65.0938C118.581 65.2969 118.297 65.3984 117.938 65.3984C117.578 65.3984 117.292 65.2969 117.078 65.0938C116.87 64.8906 116.766 64.638 116.766 64.3359ZM123.148 66.5469V75H121.086V66.5469H123.148ZM128.656 66.5469L124.93 71.7344H122.734L122.477 69.8438H124L126.055 66.5469H128.656ZM126.18 75L123.867 71.375L125.586 70.2969L128.922 75H126.18ZM132.344 74.0625L134.609 66.5469H136.82L133.43 76.2812C133.352 76.4896 133.25 76.7161 133.125 76.9609C133.005 77.2057 132.844 77.4375 132.641 77.6562C132.438 77.8802 132.182 78.0625 131.875 78.2031C131.573 78.3438 131.206 78.4141 130.773 78.4141C130.586 78.4141 130.419 78.401 130.273 78.375C130.128 78.349 129.974 78.3151 129.812 78.2734V76.7266C129.865 76.7318 129.924 76.7344 129.992 76.7344C130.065 76.7396 130.128 76.7422 130.18 76.7422C130.482 76.7422 130.732 76.7057 130.93 76.6328C131.128 76.5651 131.286 76.4531 131.406 76.2969C131.531 76.1458 131.635 75.9479 131.719 75.7031L132.344 74.0625ZM131.227 66.5469L133.141 72.7734L133.477 74.9531L132.055 75.2109L129 66.5469H131.227ZM142.852 69.8906V71.5234H138.305V69.8906H142.852ZM140.055 66.5469V75H137.984V66.5469H140.055ZM141.398 70.8594V70.6953C141.398 70.0755 141.487 69.5052 141.664 68.9844C141.841 68.4583 142.099 68.0026 142.438 67.6172C142.776 67.2318 143.19 66.9323 143.68 66.7188C144.169 66.5 144.727 66.3906 145.352 66.3906C145.987 66.3906 146.549 66.5 147.039 66.7188C147.534 66.9323 147.951 67.2318 148.289 67.6172C148.633 68.0026 148.891 68.4583 149.062 68.9844C149.24 69.5052 149.328 70.0755 149.328 70.6953V70.8594C149.328 71.474 149.24 72.0443 149.062 72.5703C148.891 73.0911 148.635 73.5469 148.297 73.9375C147.958 74.3229 147.542 74.6224 147.047 74.8359C146.557 75.0495 145.997 75.1562 145.367 75.1562C144.737 75.1562 144.177 75.0495 143.688 74.8359C143.198 74.6224 142.781 74.3229 142.438 73.9375C142.099 73.5469 141.841 73.0911 141.664 72.5703C141.487 72.0443 141.398 71.474 141.398 70.8594ZM143.461 70.6953V70.8594C143.461 71.2292 143.497 71.5755 143.57 71.8984C143.643 72.2214 143.755 72.5052 143.906 72.75C144.062 72.9948 144.26 73.1875 144.5 73.3281C144.74 73.4635 145.029 73.5312 145.367 73.5312C145.706 73.5312 145.995 73.4635 146.234 73.3281C146.474 73.1875 146.669 72.9948 146.82 72.75C146.971 72.5052 147.083 72.2214 147.156 71.8984C147.229 71.5755 147.266 71.2292 147.266 70.8594V70.6953C147.266 70.3307 147.229 69.9896 147.156 69.6719C147.083 69.349 146.969 69.0651 146.812 68.8203C146.661 68.5703 146.464 68.375 146.219 68.2344C145.979 68.0885 145.69 68.0156 145.352 68.0156C145.018 68.0156 144.732 68.0885 144.492 68.2344C144.258 68.375 144.062 68.5703 143.906 68.8203C143.755 69.0651 143.643 69.349 143.57 69.6719C143.497 69.9896 143.461 70.3307 143.461 70.6953ZM160.578 70.0156V71.6328H156.242V70.0156H160.578ZM156.891 66.5469V75H154.82V66.5469H156.891ZM162.023 66.5469V75H159.945V66.5469H162.023ZM168.555 73.2031V69.3047C168.555 69.0182 168.505 68.7708 168.406 68.5625C168.307 68.3542 168.156 68.1927 167.953 68.0781C167.75 67.9635 167.492 67.9062 167.18 67.9062C166.904 67.9062 166.661 67.9531 166.453 68.0469C166.25 68.1406 166.094 68.2734 165.984 68.4453C165.875 68.612 165.82 68.8047 165.82 69.0234H163.75C163.75 68.6745 163.833 68.3438 164 68.0312C164.167 67.7135 164.404 67.4323 164.711 67.1875C165.023 66.9375 165.396 66.7422 165.828 66.6016C166.266 66.4609 166.755 66.3906 167.297 66.3906C167.938 66.3906 168.508 66.5 169.008 66.7188C169.513 66.9323 169.909 67.2552 170.195 67.6875C170.487 68.1198 170.633 68.6641 170.633 69.3203V73.0078C170.633 73.4297 170.659 73.7917 170.711 74.0938C170.768 74.3906 170.852 74.6484 170.961 74.8672V75H168.859C168.76 74.7865 168.685 74.5156 168.633 74.1875C168.581 73.8542 168.555 73.526 168.555 73.2031ZM168.844 69.8516L168.859 71.0781H167.555C167.232 71.0781 166.948 71.112 166.703 71.1797C166.458 71.2422 166.258 71.3359 166.102 71.4609C165.945 71.5807 165.828 71.7266 165.75 71.8984C165.672 72.0651 165.633 72.2552 165.633 72.4688C165.633 72.6771 165.68 72.8646 165.773 73.0312C165.872 73.1979 166.013 73.3307 166.195 73.4297C166.383 73.5234 166.602 73.5703 166.852 73.5703C167.216 73.5703 167.534 73.4974 167.805 73.3516C168.076 73.2005 168.286 73.0182 168.438 72.8047C168.589 72.5911 168.669 72.388 168.68 72.1953L169.273 73.0859C169.201 73.2995 169.091 73.526 168.945 73.7656C168.799 74.0052 168.612 74.2292 168.383 74.4375C168.154 74.6458 167.878 74.8177 167.555 74.9531C167.232 75.0885 166.857 75.1562 166.43 75.1562C165.883 75.1562 165.393 75.0469 164.961 74.8281C164.529 74.6094 164.188 74.3099 163.938 73.9297C163.688 73.5495 163.562 73.1172 163.562 72.6328C163.562 72.1849 163.646 71.7891 163.812 71.4453C163.979 71.1016 164.227 70.8125 164.555 70.5781C164.883 70.3385 165.289 70.1589 165.773 70.0391C166.263 69.9141 166.823 69.8516 167.453 69.8516H168.844ZM178.68 66.5469V75H176.617V66.5469H178.68ZM184.188 66.5469L180.461 71.7344H178.266L178.008 69.8438H179.531L181.586 66.5469H184.188ZM181.711 75L179.398 71.375L181.117 70.2969L184.453 75H181.711ZM184.719 70.8594V70.6953C184.719 70.0755 184.807 69.5052 184.984 68.9844C185.161 68.4583 185.419 68.0026 185.758 67.6172C186.096 67.2318 186.51 66.9323 187 66.7188C187.49 66.5 188.047 66.3906 188.672 66.3906C189.307 66.3906 189.87 66.5 190.359 66.7188C190.854 66.9323 191.271 67.2318 191.609 67.6172C191.948 68.0026 192.206 68.4583 192.383 68.9844C192.56 69.5052 192.648 70.0755 192.648 70.6953V70.8594C192.648 71.474 192.56 72.0443 192.383 72.5703C192.206 73.0911 191.948 73.5469 191.609 73.9375C191.271 74.3229 190.857 74.6224 190.367 74.8359C189.878 75.0495 189.318 75.1562 188.688 75.1562C188.062 75.1562 187.503 75.0495 187.008 74.8359C186.513 74.6224 186.096 74.3229 185.758 73.9375C185.419 73.5469 185.161 73.0911 184.984 72.5703C184.807 72.0443 184.719 71.474 184.719 70.8594ZM186.781 70.6953V70.8594C186.781 71.2292 186.818 71.5755 186.891 71.8984C186.964 72.2214 187.076 72.5052 187.227 72.75C187.378 72.9948 187.573 73.1875 187.812 73.3281C188.057 73.4635 188.349 73.5312 188.688 73.5312C189.021 73.5312 189.307 73.4635 189.547 73.3281C189.786 73.1875 189.982 72.9948 190.133 72.75C190.289 72.5052 190.404 72.2214 190.477 71.8984C190.549 71.5755 190.586 71.2292 190.586 70.8594V70.6953C190.586 70.3307 190.549 69.9896 190.477 69.6719C190.404 69.349 190.289 69.0651 190.133 68.8203C189.982 68.5703 189.784 68.375 189.539 68.2344C189.299 68.0885 189.01 68.0156 188.672 68.0156C188.339 68.0156 188.052 68.0885 187.812 68.2344C187.573 68.375 187.378 68.5703 187.227 68.8203C187.076 69.0651 186.964 69.349 186.891 69.6719C186.818 69.9896 186.781 70.3307 186.781 70.6953ZM199.219 72.5625L201.594 66.5469H203.32L199.922 75H198.523L195.133 66.5469H196.867L199.219 72.5625ZM196.359 66.5469V75H194.289V66.5469H196.359ZM202.117 75V66.5469H204.188V75H202.117ZM210.898 73.2031V69.3047C210.898 69.0182 210.849 68.7708 210.75 68.5625C210.651 68.3542 210.5 68.1927 210.297 68.0781C210.094 67.9635 209.836 67.9062 209.523 67.9062C209.247 67.9062 209.005 67.9531 208.797 68.0469C208.594 68.1406 208.438 68.2734 208.328 68.4453C208.219 68.612 208.164 68.8047 208.164 69.0234H206.094C206.094 68.6745 206.177 68.3438 206.344 68.0312C206.51 67.7135 206.747 67.4323 207.055 67.1875C207.367 66.9375 207.74 66.7422 208.172 66.6016C208.609 66.4609 209.099 66.3906 209.641 66.3906C210.281 66.3906 210.852 66.5 211.352 66.7188C211.857 66.9323 212.253 67.2552 212.539 67.6875C212.831 68.1198 212.977 68.6641 212.977 69.3203V73.0078C212.977 73.4297 213.003 73.7917 213.055 74.0938C213.112 74.3906 213.195 74.6484 213.305 74.8672V75H211.203C211.104 74.7865 211.029 74.5156 210.977 74.1875C210.924 73.8542 210.898 73.526 210.898 73.2031ZM211.188 69.8516L211.203 71.0781H209.898C209.576 71.0781 209.292 71.112 209.047 71.1797C208.802 71.2422 208.602 71.3359 208.445 71.4609C208.289 71.5807 208.172 71.7266 208.094 71.8984C208.016 72.0651 207.977 72.2552 207.977 72.4688C207.977 72.6771 208.023 72.8646 208.117 73.0312C208.216 73.1979 208.357 73.3307 208.539 73.4297C208.727 73.5234 208.945 73.5703 209.195 73.5703C209.56 73.5703 209.878 73.4974 210.148 73.3516C210.419 73.2005 210.63 73.0182 210.781 72.8047C210.932 72.5911 211.013 72.388 211.023 72.1953L211.617 73.0859C211.544 73.2995 211.435 73.526 211.289 73.7656C211.143 74.0052 210.956 74.2292 210.727 74.4375C210.497 74.6458 210.221 74.8177 209.898 74.9531C209.576 75.0885 209.201 75.1562 208.773 75.1562C208.227 75.1562 207.737 75.0469 207.305 74.8281C206.872 74.6094 206.531 74.3099 206.281 73.9297C206.031 73.5495 205.906 73.1172 205.906 72.6328C205.906 72.1849 205.99 71.7891 206.156 71.4453C206.323 71.1016 206.57 70.8125 206.898 70.5781C207.227 70.3385 207.633 70.1589 208.117 70.0391C208.607 69.9141 209.167 69.8516 209.797 69.8516H211.188ZM220.609 70.0156V71.6328H216.273V70.0156H220.609ZM216.922 66.5469V75H214.852V66.5469H216.922ZM222.055 66.5469V75H219.977V66.5469H222.055ZM225.453 66.5469H227.516L227.438 69.4531C227.411 70.3333 227.307 71.0938 227.125 71.7344C226.948 72.3698 226.711 72.9036 226.414 73.3359C226.122 73.7682 225.789 74.1172 225.414 74.3828C225.044 74.6484 224.656 74.8542 224.25 75H223.758L223.75 73.3906L223.992 73.375C224.237 73.1146 224.443 72.8594 224.609 72.6094C224.781 72.3542 224.919 72.0807 225.023 71.7891C225.128 71.4974 225.206 71.1641 225.258 70.7891C225.315 70.4089 225.352 69.9635 225.367 69.4531L225.453 66.5469ZM226.008 66.5469H231.484V75H229.422V68.2422H226.008V66.5469ZM223.289 73.375H232.664V77.5312H230.602V75H225.391V77.5312H223.281L223.289 73.375ZM236.406 74.0625L238.672 66.5469H240.883L237.492 76.2812C237.414 76.4896 237.312 76.7161 237.188 76.9609C237.068 77.2057 236.906 77.4375 236.703 77.6562C236.5 77.8802 236.245 78.0625 235.938 78.2031C235.635 78.3438 235.268 78.4141 234.836 78.4141C234.648 78.4141 234.482 78.401 234.336 78.375C234.19 78.349 234.036 78.3151 233.875 78.2734V76.7266C233.927 76.7318 233.987 76.7344 234.055 76.7344C234.128 76.7396 234.19 76.7422 234.242 76.7422C234.544 76.7422 234.794 76.7057 234.992 76.6328C235.19 76.5651 235.349 76.4531 235.469 76.2969C235.594 76.1458 235.698 75.9479 235.781 75.7031L236.406 74.0625ZM235.289 66.5469L237.203 72.7734L237.539 74.9531L236.117 75.2109L233.062 66.5469H235.289ZM244.234 63.625L244.008 71.5859H242.266L242.039 63.625H244.234ZM241.977 74.0391C241.977 73.7318 242.081 73.474 242.289 73.2656C242.503 73.0521 242.789 72.9453 243.148 72.9453C243.508 72.9453 243.792 73.0521 244 73.2656C244.214 73.474 244.32 73.7318 244.32 74.0391C244.32 74.3411 244.214 74.5964 244 74.8047C243.792 75.013 243.508 75.1172 243.148 75.1172C242.789 75.1172 242.503 75.013 242.289 74.8047C242.081 74.5964 241.977 74.3411 241.977 74.0391Z" fill="#707070"/>
<defs>
<radialGradient id="paint0_radial_137103_405" cx="0" cy="0" r="1" gradientUnits="userSpaceOnUse" gradientTransform="translate(162.207 120.446) rotate(90) scale(4.5429 3.2252)">
<stop stop-color="#FFBBBB"/>
<stop offset="1" stop-color="#FFBBBB" stop-opacity="0"/>
</radialGradient>
<radialGradient id="paint1_radial_137103_405" cx="0" cy="0" r="1" gradientUnits="userSpaceOnUse" gradientTransform="translate(148.546 119.983) rotate(90) scale(4.5429 3.2252)">
<stop stop-color="#FFBBBB"/>
<stop offset="1" stop-color="#FFBBBB" stop-opacity="0"/>
</radialGradient>
</defs>
</svg><svg width="308" height="308" viewBox="0 0 308 308" fill="none" x="0" y="288">
<path d="M70.5963 172.273C82.7983 168.085 88.2865 171.127 89.5054 173.172C90.5719 177.246 86.7304 176.888 77.1827 175.647C67.635 174.407 61.7784 177.179 59.1744 178.751C56.5704 180.322 50.9659 190.272 50.5325 188.029C50.1858 186.235 52.7482 182.937 54.0728 181.512C51.057 182.618 46.6205 183.413 53.0003 177.748C60.9752 170.665 56.7973 160.102 57.6996 159.185C58.4215 158.451 59.6033 160.469 60.104 161.57C60.1175 163.124 60.2143 167.111 60.4933 170.632C60.7722 174.152 67.3448 173.192 70.5963 172.273Z" fill="#FF6B0A"/>
<path d="M136.428 125.576C144.3 120.679 151.592 78.058 154.255 57.3598C162.256 56.1267 177.155 54.4003 172.743 57.3598C167.227 61.059 168.419 67.1804 164.756 86.2493C161.094 105.318 164.756 120.543 164.756 139.465C164.756 181.476 127.083 189.822 101.978 183.315C83.2563 178.463 75.4553 168.604 75.4553 157.43C75.4553 134.321 46.3794 120.794 105.241 136.636C126.52 142.364 126.588 131.697 136.428 125.576Z" fill="white"/>
<path d="M69.1936 166.181C81.3957 161.992 86.8839 165.035 88.1027 167.08C89.1692 171.154 85.3277 170.796 75.78 169.555C66.2324 168.315 60.3757 171.087 57.7718 172.658C55.1678 174.23 49.5633 184.18 49.1299 181.937C48.7832 180.143 51.3456 176.845 52.6701 175.42C49.6544 176.526 45.2178 177.321 51.5977 171.656C59.5725 164.573 55.3946 154.01 56.297 153.093C57.0188 152.359 58.2006 154.377 58.7013 155.478C58.7148 157.032 58.8116 161.019 59.0906 164.539C59.3696 168.06 65.9422 167.1 69.1936 166.181Z" fill="#FF6B0A"/>
<path d="M154.629 40.9863C154.874 34.6828 160.918 34.6536 163.909 35.4269C171.963 33.626 170.869 44.7071 172.708 46.9834C174.546 49.2597 174.415 51.4922 173.802 58.1459C173.189 64.7996 163.909 70.6654 159.137 70.0088C154.366 69.3521 151.258 62.6109 149.376 55.8258C147.493 49.0408 154.322 48.8657 154.629 40.9863Z" fill="white"/>
<ellipse cx="1.57448" cy="2.47418" rx="1.57448" ry="2.47418" transform="matrix(-0.978865 0.204508 0.204508 0.978865 172.092 40.9379)" fill="#0D070C"/>
<ellipse cx="154.387" cy="43.959" rx="1.57448" ry="2.47418" transform="rotate(6.93695 154.387 43.959)" fill="#0D070C"/>
<ellipse cx="171.944" cy="55.2605" rx="3.80513" ry="5.35976" transform="rotate(22.9491 171.944 55.2605)" fill="url(#paint0_radial_137103_289)"/>
<ellipse cx="153.62" cy="56.3124" rx="3.80513" ry="5.35976" transform="rotate(-35.1816 153.62 56.3124)" fill="url(#paint1_radial_137103_289)"/>
<ellipse opacity="0.2" cx="0.705823" cy="1.10915" rx="0.705823" ry="1.10915" transform="matrix(-0.895075 0.445916 0.445916 0.895075 154.584 41.8271)" fill="white"/>
<ellipse opacity="0.2" cx="0.705823" cy="1.10915" rx="0.705823" ry="1.10915" transform="matrix(-0.895075 0.445916 0.445916 0.895075 171.234 41.371)" fill="white"/>
<path d="M169.139 47.714C169.166 39.8784 161.609 38.8913 161.645 38.9866C154.187 41.3281 155.152 48.0402 155.462 49.0265C156.314 51.7409 151.843 54.3623 153.331 57.1654C154.819 59.9684 155.054 65.9285 156.354 70.0381C157.151 72.5566 158.231 73.4426 158.976 73.6482C158.779 73.6584 158.862 73.665 159.06 73.6689C159.252 73.7103 159.418 73.7058 159.548 73.6734C159.366 73.6728 159.189 73.6714 159.06 73.6689C159.032 73.663 159.004 73.6561 158.976 73.6482C159.234 73.6349 159.975 73.6153 161.57 73.5875C166.069 73.509 166.1 67.5981 169.69 60.6917C173.28 53.7854 169.104 57.5085 169.139 47.714Z" fill="#FF6B0A"/>
<path d="M161.448 70.7222C165.031 70.2549 165.853 62.2242 165.816 58.2672C163.586 57.8742 158.766 57.396 157.333 58.6275C155.541 60.1669 156.971 71.3064 161.448 70.7222Z" fill="#1F0C02"/>
<path d="M160.675 69.742C158.145 69.5343 158.705 63.9911 159.301 61.2455L164.189 61.0379C164.072 64.0258 163.205 69.9497 160.675 69.742Z" fill="#956C7C"/>
<path d="M160.87 67.7585C160.335 67.4091 160.862 61.925 161.193 59.2267L162.272 59.2958C162.028 62.2623 161.405 68.108 160.87 67.7585Z" fill="#86616F"/>
<path d="M167.148 55.1714C164.501 50.1059 165.795 47.1805 166.773 46.351C162.786 41.5225 158.558 44.6175 156.942 46.7686C160.022 51.7032 157.715 47.7488 156.193 55.6367C154.975 61.947 159.189 63.8955 161.448 64.0809C164.451 63.2217 169.794 60.237 167.148 55.1714Z" fill="#EB6005"/>
<path d="M155.996 58.2572C161.417 50.1925 165.908 55.7351 167.475 59.5144C167.018 61.1098 165.144 64.2623 161.31 64.11C157.477 63.9576 156.17 60.1446 155.996 58.2572Z" fill="#EFE5D5"/>
<path d="M162.375 56.9994C162.41 56.3308 162.583 55.0896 162.997 55.4735C163.411 55.8573 162.755 56.6507 162.375 56.9994Z" fill="#DACAB0"/>
<path d="M161.109 57.0555C161.123 56.3862 161.04 55.1357 160.599 55.4885C160.158 55.8413 160.755 56.6802 161.109 57.0555Z" fill="#DACAB0"/>
<path d="M157.785 30.5449L157.518 36.2719C160.769 39.1421 166.5 37.7952 168.959 36.763L169.145 30.9237L157.785 30.5449Z" fill="#373500"/>
<path d="M157.518 36.2719C158.369 39.3234 161.907 43.4096 168.946 36.7212L157.518 36.2719Z" fill="#373500"/>
<ellipse cx="5.69268" cy="0.981278" rx="5.69268" ry="0.981278" transform="matrix(-0.99961 -0.0279109 -0.0279109 0.99961 169.169 29.9138)" fill="#373500"/>
<path d="M157.785 30.5449L157.518 36.2719C160.769 39.1421 166.5 37.7952 168.959 36.763L169.145 30.9237C169.145 30.9237 168.226 31.0904 167.633 31.0773C166.922 31.0615 165.839 30.7689 165.839 30.7689L162.539 35.7507L160.861 30.4049C160.861 30.4049 159.948 30.8667 159.316 30.8901C158.703 30.9127 157.785 30.5449 157.785 30.5449Z" fill="#4B4800"/>
<path d="M185.272 32.7584C185.241 32.7743 185.214 32.7859 185.19 32.801C184.991 32.9208 184.864 33.0697 184.801 33.2912C184.774 33.385 184.759 33.483 184.738 33.5775C184.721 33.6611 184.703 33.7432 184.684 33.8267C184.679 33.8483 184.681 33.858 184.706 33.8635C184.759 33.8734 184.802 33.9029 184.819 33.9567C184.835 34.0041 184.823 34.0472 184.791 34.082C184.759 34.1184 184.715 34.1299 184.668 34.1269C184.644 34.1246 184.629 34.1137 184.619 34.0906C184.535 33.915 184.494 33.7309 184.489 33.5376C184.486 33.3776 184.514 33.2207 184.535 33.0647C184.547 32.9758 184.556 32.885 184.571 32.7964C184.579 32.7403 184.583 32.6869 184.574 32.6307C184.565 32.5746 184.545 32.522 184.51 32.4728C184.465 32.5111 184.433 32.5586 184.417 32.6124C184.402 32.6631 184.394 32.7176 184.387 32.7691C184.38 32.8253 184.381 32.8823 184.377 32.9373C184.368 33.0833 184.36 33.2296 184.346 33.3752C184.321 33.6177 184.237 33.8388 184.093 34.035C184.074 34.0616 184.052 34.0673 184.022 34.0613C183.947 34.0477 183.896 33.9843 183.903 33.9138C183.909 33.8481 183.973 33.7942 184.047 33.7983C184.074 33.7993 184.077 33.79 184.076 33.7678C184.073 33.6521 184.071 33.5351 184.07 33.4195C184.067 33.2881 184.071 33.1574 184.03 33.03C183.974 32.8619 183.881 32.7438 183.74 32.6338C183.73 32.6265 183.719 32.6192 183.705 32.6083C183.703 32.6223 183.702 32.6317 183.701 32.6411C183.643 33.2471 183.587 33.8279 183.528 34.4339C183.525 34.4683 183.525 34.4683 183.558 34.4715C183.682 34.4835 183.808 34.4957 183.933 34.5078C183.955 34.5099 183.964 34.5171 183.966 34.5395C183.986 34.7089 184.058 34.855 184.185 34.9716C184.211 34.9962 184.234 35.0268 184.258 35.0545C184.337 34.9799 184.442 34.9332 184.511 34.8435C184.567 34.7699 184.615 34.6907 184.641 34.6016C184.647 34.5817 184.657 34.5764 184.676 34.5782C184.804 34.5905 184.93 34.6027 185.058 34.6151C185.08 34.6172 185.09 34.6134 185.092 34.5884C185.151 33.9793 185.208 33.3938 185.267 32.7847C185.27 32.7819 185.271 32.7756 185.272 32.7584ZM185.107 33.0237C185.11 33.0255 185.114 33.026 185.117 33.0279C185.116 33.0388 185.115 33.0498 185.114 33.0607C185.086 33.3535 185.06 33.6228 185.032 33.9156C185.027 33.9641 185.027 33.9641 184.976 33.9593C184.957 33.9574 184.948 33.9518 184.946 33.9326C184.932 33.8728 184.899 33.8253 184.849 33.7921C184.829 33.7775 184.827 33.7631 184.832 33.7414C184.857 33.6348 184.883 33.5267 184.903 33.4196C184.925 33.3079 184.958 33.2258 185.025 33.1327C185.051 33.0941 185.079 33.0605 185.107 33.0237ZM183.808 32.9027C183.811 32.903 183.813 32.9016 183.816 32.9019C183.824 32.9154 183.833 32.9288 183.839 32.9421C183.892 33.042 183.935 33.1205 183.94 33.2331C183.945 33.3759 183.947 33.5183 183.951 33.6609C183.952 33.68 183.946 33.6921 183.926 33.7012C183.872 33.7259 183.83 33.7645 183.804 33.8205C183.792 33.8462 183.774 33.8508 183.733 33.839C183.709 33.8318 183.72 33.814 183.721 33.7999C183.75 33.5024 183.777 33.2284 183.806 32.9294C183.805 32.9198 183.806 32.9104 183.808 32.9027ZM184.677 34.2575C184.685 34.2566 184.695 34.256 184.706 34.2539C184.808 34.2416 184.889 34.2006 184.931 34.1018C184.937 34.0882 184.944 34.0825 184.958 34.0855C184.969 34.0865 184.98 34.0876 184.991 34.0887C185.007 34.0902 185.012 34.0971 185.011 34.1127C184.999 34.2302 184.988 34.3492 184.975 34.4664C184.974 34.4727 184.96 34.4856 184.954 34.485C184.869 34.4783 184.782 34.4699 184.697 34.4601C184.691 34.4595 184.68 34.4473 184.679 34.4409C184.678 34.3808 184.677 34.3207 184.677 34.2575ZM184.003 34.1922C183.991 34.2542 183.977 34.313 183.965 34.3734C183.961 34.3905 183.949 34.3893 183.936 34.388C183.856 34.3803 183.777 34.3711 183.697 34.3649C183.672 34.3624 183.665 34.3523 183.668 34.3289C183.68 34.2242 183.689 34.1191 183.699 34.0127C183.704 33.9641 183.704 33.9641 183.753 33.9689C183.767 33.9702 183.779 33.9714 183.782 33.9891C183.802 34.0842 183.865 34.1409 183.95 34.1761C183.969 34.1826 183.988 34.186 184.003 34.1922ZM184.38 33.783C184.412 33.9078 184.445 34.0295 184.502 34.1457C184.45 34.1738 184.401 34.2007 184.351 34.2259C184.344 34.23 184.329 34.2253 184.321 34.2199C184.283 34.1909 184.248 34.159 184.209 34.13C184.197 34.1209 184.195 34.1128 184.204 34.0995C184.272 34.0096 184.321 33.9101 184.366 33.807C184.372 33.7996 184.376 33.7905 184.38 33.783ZM184.509 34.5652C184.508 34.6472 184.405 34.8016 184.351 34.817C184.35 34.8152 184.348 34.8135 184.348 34.8135C184.356 34.7321 184.362 34.6505 184.372 34.5708C184.372 34.5646 184.384 34.5562 184.391 34.5553C184.43 34.556 184.47 34.5613 184.509 34.5652ZM184.219 34.8073C184.155 34.7616 184.092 34.5864 184.109 34.5249C184.144 34.5282 184.182 34.5319 184.216 34.5352C184.237 34.5372 184.242 34.5457 184.24 34.5644C184.234 34.6302 184.228 34.696 184.221 34.7617C184.222 34.776 184.22 34.7901 184.219 34.8073ZM184.466 34.4361C184.445 34.4341 184.423 34.4336 184.403 34.4285C184.397 34.4279 184.385 34.4141 184.387 34.4096C184.404 34.3416 184.453 34.2864 184.521 34.2771C184.536 34.2753 184.543 34.2792 184.545 34.2936C184.547 34.3365 184.548 34.3793 184.55 34.4237C184.55 34.4395 184.54 34.4449 184.526 34.4435C184.507 34.4401 184.486 34.4381 184.466 34.4361ZM184.176 34.4081C184.157 34.4062 184.14 34.4046 184.121 34.4027C184.102 34.4025 184.092 34.3936 184.097 34.3735C184.105 34.3348 184.114 34.2962 184.124 34.2576C184.129 34.2391 184.139 34.2354 184.157 34.2435C184.215 34.2665 184.263 34.3358 184.258 34.3971C184.258 34.4033 184.246 34.4132 184.239 34.4142C184.217 34.4136 184.197 34.4101 184.176 34.4081Z" fill="#FFD500"/>
<path d="M144.785 106.524C152.572 109.346 158.956 106.828 162.7 105.105L162.7 108.429C154.268 112.935 147.842 110.699 144.133 109.018L144.785 106.524Z" fill="#005BBB"/>
<path d="M144.094 109.172C153.428 112.902 158.945 110.112 162.714 108.429L163.136 111.282C154.634 115.699 147.146 113.01 143.481 111.282L144.094 109.172Z" fill="#FFD500"/>
<path d="M148.295 132.811C157.237 131.883 163.355 134.474 165.296 135.885C174.646 151.028 148.664 165.556 146.757 168.886C144.85 172.216 139.998 168.195 137.735 168.43C135.471 168.664 135.189 167.302 131.042 166.34C126.894 165.378 128.608 159.841 124.724 159.721C120.84 159.602 122.277 156.495 118.183 155.702C114.088 154.908 117.53 151.106 112.932 150.887C108.334 150.668 112.209 147.308 108.584 146.292C104.959 145.276 105.954 143.335 105.643 140.332C105.121 135.306 127.774 114.825 127.993 116.924C136.665 117.194 145.141 127.628 148.295 132.811Z" fill="white"/>
<path d="M23.0904 93.8116C110.631 84.7313 115.056 114.484 124.874 114.804C132.84 117.027 140.482 125.512 107.326 141.674C104.042 140.74 105.802 138.963 102.001 139.198C98.2006 139.433 102.546 132.162 95.0819 135.486C87.6175 138.81 89.638 134.936 84.5925 135.459C80.556 135.878 80.8433 133.936 81.4915 132.912C80.3318 133.511 77.1432 134.319 73.6674 132.768C70.8854 131.526 73.4367 129.417 74.8006 128.515C71.622 130.227 63.9487 127.909 62.2118 126.499C61.2295 125.701 63.6926 124.343 65.5602 123.532C61.6098 124.235 52.8395 123.747 51.3984 122.426C50.074 121.212 53.8289 118.509 55.8718 117.309C51.6995 117.954 43.133 118.949 42.2453 117.766C41.4897 116.759 45.6245 114.06 48.7474 112.285C42.9735 115.126 37.7449 113.983 35.7227 112.961C41.9282 108.461 52.6007 100.706 45.6458 105.686C38.691 110.665 33.0773 108.763 31.1398 107.19C37.4119 104.766 47.8432 100.136 39.3919 101.012C30.9405 101.889 23.3372 100.595 20.592 99.839C28.4461 98.4295 42.1208 95.732 33.9861 96.2189C25.8513 96.7057 23.3328 94.8169 23.0904 93.8116Z" fill="white"/>
<path d="M156.432 134.646C147.619 133.172 141.275 134.855 139.205 135.881C128.422 147.792 152.876 161.956 154.451 164.885C156.025 167.815 161.248 164.838 163.478 165.211C165.709 165.584 166.123 164.469 170.346 163.99C174.569 163.512 173.402 158.755 177.28 158.959C181.159 159.164 180.03 156.457 184.184 156.116C188.338 155.774 185.282 152.33 189.881 152.507C194.481 152.684 190.95 149.575 194.658 149.011C198.366 148.446 197.564 146.748 198.166 144.266C199.175 140.11 178.614 121.236 178.192 122.972C169.531 122.518 160.077 130.566 156.432 134.646Z" fill="white"/>
<path d="M284.681 112.747C198.405 98.3112 191.193 122.432 181.39 121.914C173.252 123.108 164.845 129.48 196.322 145.412C199.679 144.905 198.094 143.304 201.855 143.8C205.616 144.295 201.976 137.969 209.092 141.297C216.208 144.625 214.563 141.277 219.536 142.109C223.514 142.775 223.411 141.155 222.862 140.261C223.96 140.846 227.058 141.765 230.664 140.765C233.55 139.965 231.209 138.028 229.937 137.177C232.939 138.838 240.796 137.542 242.657 136.52C243.71 135.942 241.387 134.629 239.605 133.813C243.47 134.706 252.246 135.002 253.805 134.031C255.238 133.138 251.755 130.615 249.835 129.466C253.927 130.328 262.36 131.829 263.355 130.926C264.202 130.158 260.341 127.609 257.4 125.9C262.879 128.697 268.191 128.173 270.301 127.493C264.549 123.298 254.658 116.07 261.11 120.719C267.563 125.368 273.33 124.251 275.407 123.111C269.393 120.618 259.447 115.979 267.776 117.373C276.105 118.766 283.795 118.308 286.599 117.904C278.914 116.119 265.558 112.812 273.609 113.86C281.66 114.908 284.345 113.555 284.681 112.747Z" fill="white"/>
<path d="M143.797 110.185C137.505 110.168 126.812 114.631 134.294 130.962C141.721 147.174 142.522 157.981 137.931 156.558C137.898 156.545 137.864 156.534 137.828 156.524C137.863 156.536 137.897 156.547 137.931 156.558C139.2 157.047 138.384 159.666 138.984 160.581C144.197 160.93 145.131 150.843 135.1 130.631C132.732 125.209 131.774 114.074 142.98 112.904L143.797 110.185Z" fill="#FFD500"/>
<path d="M144.965 106.251C138.638 105.187 131.615 105.489 137.266 123.322C142.858 140.971 135.389 140.769 130.826 138.413C130.783 138.387 130.736 138.362 130.685 138.339C130.732 138.364 130.779 138.388 130.826 138.413C131.942 139.089 130.39 140.692 130.882 141.709C136.086 142.93 144.817 140.921 138.115 123.119C136.356 117.219 132.865 107.82 144.271 108.495L144.965 106.251Z" fill="#005BBB"/>
<path d="M195.165 183.766C206.975 175.794 202.721 159.821 199.118 152.831C208.5 151.985 219.152 169.524 223.305 178.399C232.852 176.548 254.675 175.035 265.586 183.792C279.224 194.738 282.04 230.585 269.697 257.038C257.354 283.492 135.711 273.217 116.011 274.426C96.3117 275.635 81.178 249.251 89.3119 208.311C97.4457 167.372 180.403 193.733 195.165 183.766Z" fill="white" stroke="#B1CCFF" stroke-width="2"/>
<path d="M116.406 211.997V213.692H111.203V223.372H109.062V211.997H116.406ZM110.508 216.255H113.266C114.146 216.255 114.901 216.403 115.531 216.7C116.161 216.992 116.643 217.4 116.977 217.927C117.315 218.453 117.484 219.07 117.484 219.778C117.484 220.309 117.388 220.794 117.195 221.231C117.008 221.669 116.732 222.049 116.367 222.372C116.003 222.69 115.56 222.937 115.039 223.114C114.518 223.286 113.927 223.372 113.266 223.372H109.062V211.997H111.219V221.684H113.266C113.734 221.684 114.122 221.596 114.43 221.419C114.737 221.242 114.966 221.007 115.117 220.716C115.268 220.424 115.344 220.106 115.344 219.762C115.344 219.424 115.268 219.117 115.117 218.841C114.966 218.565 114.737 218.346 114.43 218.184C114.122 218.023 113.734 217.942 113.266 217.942H110.508V216.255ZM123.633 221.575V217.677C123.633 217.39 123.583 217.143 123.484 216.934C123.385 216.726 123.234 216.565 123.031 216.45C122.828 216.335 122.57 216.278 122.258 216.278C121.982 216.278 121.74 216.325 121.531 216.419C121.328 216.512 121.172 216.645 121.062 216.817C120.953 216.984 120.898 217.177 120.898 217.395H118.828C118.828 217.046 118.911 216.716 119.078 216.403C119.245 216.085 119.482 215.804 119.789 215.559C120.102 215.309 120.474 215.114 120.906 214.973C121.344 214.833 121.833 214.762 122.375 214.762C123.016 214.762 123.586 214.872 124.086 215.091C124.591 215.304 124.987 215.627 125.273 216.059C125.565 216.492 125.711 217.036 125.711 217.692V221.38C125.711 221.802 125.737 222.163 125.789 222.466C125.846 222.762 125.93 223.02 126.039 223.239V223.372H123.938C123.839 223.158 123.763 222.887 123.711 222.559C123.659 222.226 123.633 221.898 123.633 221.575ZM123.922 218.223L123.938 219.45H122.633C122.31 219.45 122.026 219.484 121.781 219.552C121.536 219.614 121.336 219.708 121.18 219.833C121.023 219.953 120.906 220.098 120.828 220.27C120.75 220.437 120.711 220.627 120.711 220.841C120.711 221.049 120.758 221.236 120.852 221.403C120.951 221.57 121.091 221.703 121.273 221.802C121.461 221.895 121.68 221.942 121.93 221.942C122.294 221.942 122.612 221.869 122.883 221.723C123.154 221.572 123.365 221.39 123.516 221.177C123.667 220.963 123.747 220.76 123.758 220.567L124.352 221.458C124.279 221.671 124.169 221.898 124.023 222.137C123.878 222.377 123.69 222.601 123.461 222.809C123.232 223.018 122.956 223.19 122.633 223.325C122.31 223.46 121.935 223.528 121.508 223.528C120.961 223.528 120.471 223.419 120.039 223.2C119.607 222.981 119.266 222.682 119.016 222.302C118.766 221.921 118.641 221.489 118.641 221.005C118.641 220.557 118.724 220.161 118.891 219.817C119.057 219.473 119.305 219.184 119.633 218.95C119.961 218.71 120.367 218.531 120.852 218.411C121.341 218.286 121.901 218.223 122.531 218.223H123.922ZM133.344 218.387V220.005H129.008V218.387H133.344ZM129.656 214.919V223.372H127.586V214.919H129.656ZM134.789 214.919V223.372H132.711V214.919H134.789ZM138.188 214.919H140.25L140.172 217.825C140.146 218.705 140.042 219.466 139.859 220.106C139.682 220.742 139.445 221.275 139.148 221.708C138.857 222.14 138.523 222.489 138.148 222.755C137.779 223.02 137.391 223.226 136.984 223.372H136.492L136.484 221.762L136.727 221.747C136.971 221.486 137.177 221.231 137.344 220.981C137.516 220.726 137.654 220.453 137.758 220.161C137.862 219.869 137.94 219.536 137.992 219.161C138.049 218.781 138.086 218.335 138.102 217.825L138.188 214.919ZM138.742 214.919H144.219V223.372H142.156V216.614H138.742V214.919ZM136.023 221.747H145.398V225.903H143.336V223.372H138.125V225.903H136.016L136.023 221.747ZM150.461 223.528C149.82 223.528 149.245 223.424 148.734 223.216C148.224 223.007 147.789 222.718 147.43 222.348C147.076 221.973 146.802 221.538 146.609 221.044C146.422 220.544 146.328 220.007 146.328 219.434V219.122C146.328 218.471 146.422 217.88 146.609 217.348C146.797 216.812 147.062 216.351 147.406 215.966C147.75 215.58 148.161 215.283 148.641 215.075C149.12 214.867 149.648 214.762 150.227 214.762C150.826 214.762 151.354 214.864 151.812 215.067C152.271 215.265 152.654 215.546 152.961 215.911C153.268 216.275 153.5 216.713 153.656 217.223C153.812 217.729 153.891 218.288 153.891 218.903V219.77H147.266V218.348H151.859V218.192C151.849 217.864 151.786 217.565 151.672 217.294C151.557 217.018 151.38 216.799 151.141 216.637C150.901 216.471 150.591 216.387 150.211 216.387C149.904 216.387 149.635 216.455 149.406 216.591C149.182 216.721 148.995 216.908 148.844 217.153C148.698 217.393 148.589 217.679 148.516 218.012C148.443 218.346 148.406 218.716 148.406 219.122V219.434C148.406 219.788 148.453 220.117 148.547 220.419C148.646 220.721 148.789 220.984 148.977 221.208C149.169 221.427 149.398 221.598 149.664 221.723C149.935 221.843 150.242 221.903 150.586 221.903C151.018 221.903 151.409 221.82 151.758 221.653C152.112 221.481 152.419 221.229 152.68 220.895L153.719 221.973C153.542 222.234 153.302 222.484 153 222.723C152.703 222.963 152.344 223.158 151.922 223.309C151.5 223.455 151.013 223.528 150.461 223.528ZM157.336 216.544V226.622H155.266V214.919H157.18L157.336 216.544ZM162.766 219.059V219.223C162.766 219.838 162.693 220.408 162.547 220.934C162.406 221.455 162.198 221.911 161.922 222.302C161.646 222.687 161.302 222.989 160.891 223.208C160.484 223.421 160.016 223.528 159.484 223.528C158.964 223.528 158.51 223.429 158.125 223.231C157.74 223.028 157.414 222.742 157.148 222.372C156.883 222.002 156.669 221.572 156.508 221.083C156.352 220.588 156.234 220.049 156.156 219.466V218.942C156.234 218.322 156.352 217.76 156.508 217.255C156.669 216.744 156.883 216.304 157.148 215.934C157.414 215.559 157.737 215.27 158.117 215.067C158.503 214.864 158.953 214.762 159.469 214.762C160.005 214.762 160.477 214.864 160.883 215.067C161.294 215.27 161.641 215.562 161.922 215.942C162.203 216.322 162.414 216.775 162.555 217.302C162.695 217.828 162.766 218.413 162.766 219.059ZM160.695 219.223V219.059C160.695 218.684 160.661 218.338 160.594 218.02C160.526 217.697 160.422 217.416 160.281 217.177C160.141 216.932 159.958 216.742 159.734 216.606C159.51 216.471 159.24 216.403 158.922 216.403C158.604 216.403 158.331 216.455 158.102 216.559C157.872 216.663 157.685 216.812 157.539 217.005C157.393 217.197 157.279 217.427 157.195 217.692C157.117 217.953 157.065 218.242 157.039 218.559V219.856C157.086 220.242 157.177 220.588 157.312 220.895C157.448 221.203 157.646 221.447 157.906 221.63C158.172 221.812 158.516 221.903 158.938 221.903C159.255 221.903 159.526 221.833 159.75 221.692C159.974 221.552 160.156 221.359 160.297 221.114C160.438 220.864 160.539 220.578 160.602 220.255C160.664 219.932 160.695 219.588 160.695 219.223ZM163.906 219.231V219.067C163.906 218.447 163.995 217.877 164.172 217.356C164.349 216.83 164.607 216.374 164.945 215.989C165.284 215.604 165.698 215.304 166.188 215.091C166.677 214.872 167.234 214.762 167.859 214.762C168.495 214.762 169.057 214.872 169.547 215.091C170.042 215.304 170.458 215.604 170.797 215.989C171.135 216.374 171.393 216.83 171.57 217.356C171.747 217.877 171.836 218.447 171.836 219.067V219.231C171.836 219.846 171.747 220.416 171.57 220.942C171.393 221.463 171.135 221.919 170.797 222.309C170.458 222.695 170.044 222.994 169.555 223.208C169.065 223.421 168.505 223.528 167.875 223.528C167.25 223.528 166.69 223.421 166.195 223.208C165.701 222.994 165.284 222.695 164.945 222.309C164.607 221.919 164.349 221.463 164.172 220.942C163.995 220.416 163.906 219.846 163.906 219.231ZM165.969 219.067V219.231C165.969 219.601 166.005 219.947 166.078 220.27C166.151 220.593 166.263 220.877 166.414 221.122C166.565 221.367 166.76 221.559 167 221.7C167.245 221.835 167.536 221.903 167.875 221.903C168.208 221.903 168.495 221.835 168.734 221.7C168.974 221.559 169.169 221.367 169.32 221.122C169.477 220.877 169.591 220.593 169.664 220.27C169.737 219.947 169.773 219.601 169.773 219.231V219.067C169.773 218.703 169.737 218.361 169.664 218.044C169.591 217.721 169.477 217.437 169.32 217.192C169.169 216.942 168.971 216.747 168.727 216.606C168.487 216.46 168.198 216.387 167.859 216.387C167.526 216.387 167.24 216.46 167 216.606C166.76 216.747 166.565 216.942 166.414 217.192C166.263 217.437 166.151 217.721 166.078 218.044C166.005 218.361 165.969 218.703 165.969 219.067ZM179.016 214.919V216.552H175.414V223.372H173.352V214.919H179.016ZM182.531 222.434L184.797 214.919H187.008L183.617 224.653C183.539 224.861 183.438 225.088 183.312 225.333C183.193 225.578 183.031 225.809 182.828 226.028C182.625 226.252 182.37 226.434 182.062 226.575C181.76 226.716 181.393 226.786 180.961 226.786C180.773 226.786 180.607 226.773 180.461 226.747C180.315 226.721 180.161 226.687 180 226.645V225.098C180.052 225.104 180.112 225.106 180.18 225.106C180.253 225.111 180.315 225.114 180.367 225.114C180.669 225.114 180.919 225.078 181.117 225.005C181.315 224.937 181.474 224.825 181.594 224.669C181.719 224.518 181.823 224.32 181.906 224.075L182.531 222.434ZM181.414 214.919L183.328 221.145L183.664 223.325L182.242 223.583L179.188 214.919H181.414ZM191.367 221.903C191.659 221.903 191.919 221.846 192.148 221.731C192.378 221.617 192.56 221.455 192.695 221.247C192.836 221.038 192.911 220.796 192.922 220.52H194.867C194.857 221.093 194.695 221.606 194.383 222.059C194.07 222.512 193.654 222.872 193.133 223.137C192.617 223.398 192.039 223.528 191.398 223.528C190.747 223.528 190.18 223.419 189.695 223.2C189.211 222.981 188.807 222.677 188.484 222.286C188.167 221.895 187.927 221.442 187.766 220.927C187.609 220.411 187.531 219.859 187.531 219.27V219.02C187.531 218.432 187.609 217.88 187.766 217.364C187.927 216.848 188.167 216.395 188.484 216.005C188.807 215.614 189.211 215.309 189.695 215.091C190.18 214.872 190.745 214.762 191.391 214.762C192.073 214.762 192.672 214.895 193.188 215.161C193.708 215.427 194.115 215.802 194.406 216.286C194.703 216.77 194.857 217.341 194.867 217.997H192.922C192.911 217.695 192.844 217.424 192.719 217.184C192.594 216.945 192.417 216.752 192.188 216.606C191.958 216.46 191.68 216.387 191.352 216.387C191.003 216.387 190.711 216.46 190.477 216.606C190.247 216.752 190.068 216.953 189.938 217.208C189.812 217.458 189.724 217.739 189.672 218.052C189.625 218.359 189.602 218.682 189.602 219.02V219.27C189.602 219.614 189.625 219.942 189.672 220.255C189.724 220.567 189.812 220.848 189.938 221.098C190.068 221.343 190.247 221.538 190.477 221.684C190.711 221.83 191.008 221.903 191.367 221.903ZM197.711 217.52H200.18C200.93 217.52 201.568 217.645 202.094 217.895C202.625 218.14 203.029 218.484 203.305 218.927C203.586 219.364 203.727 219.872 203.727 220.45C203.727 220.867 203.646 221.255 203.484 221.614C203.328 221.968 203.099 222.278 202.797 222.544C202.495 222.804 202.122 223.007 201.68 223.153C201.242 223.299 200.742 223.372 200.18 223.372H196.383V214.919H198.453V221.755H200.18C200.539 221.755 200.826 221.695 201.039 221.575C201.258 221.45 201.414 221.291 201.508 221.098C201.607 220.9 201.656 220.69 201.656 220.466C201.656 220.236 201.607 220.023 201.508 219.825C201.414 219.622 201.258 219.458 201.039 219.333C200.826 219.208 200.539 219.145 200.18 219.145H197.711V217.52ZM217.414 216.942V218.583H209.375V216.942H217.414ZM112.555 239.341H110.906V238.356H112.164C112.471 238.356 112.716 238.315 112.898 238.231C113.086 238.148 113.219 238.031 113.297 237.88C113.38 237.729 113.422 237.554 113.422 237.356C113.422 237.179 113.383 237.012 113.305 236.856C113.227 236.695 113.096 236.565 112.914 236.466C112.732 236.361 112.479 236.309 112.156 236.309C111.891 236.309 111.654 236.351 111.445 236.434C111.237 236.518 111.073 236.635 110.953 236.786C110.833 236.937 110.773 237.117 110.773 237.325H108.703C108.703 236.794 108.854 236.338 109.156 235.958C109.464 235.578 109.872 235.286 110.383 235.083C110.893 234.874 111.453 234.77 112.062 234.77C112.589 234.77 113.062 234.825 113.484 234.934C113.906 235.038 114.266 235.195 114.562 235.403C114.859 235.611 115.089 235.869 115.25 236.177C115.411 236.479 115.492 236.83 115.492 237.231C115.492 237.518 115.424 237.788 115.289 238.044C115.154 238.299 114.958 238.525 114.703 238.723C114.448 238.916 114.138 239.067 113.773 239.177C113.414 239.286 113.008 239.341 112.555 239.341ZM110.906 238.778H112.555C113.06 238.778 113.503 238.828 113.883 238.927C114.268 239.02 114.591 239.161 114.852 239.348C115.112 239.536 115.307 239.768 115.438 240.044C115.573 240.315 115.641 240.627 115.641 240.981C115.641 241.382 115.552 241.742 115.375 242.059C115.203 242.372 114.958 242.637 114.641 242.856C114.323 243.075 113.945 243.242 113.508 243.356C113.07 243.471 112.589 243.528 112.062 243.528C111.495 243.528 110.943 243.434 110.406 243.247C109.875 243.059 109.435 242.77 109.086 242.38C108.742 241.989 108.57 241.486 108.57 240.872H110.641C110.641 241.07 110.701 241.255 110.82 241.427C110.94 241.598 111.112 241.736 111.336 241.841C111.565 241.94 111.841 241.989 112.164 241.989C112.492 241.989 112.76 241.937 112.969 241.833C113.177 241.729 113.328 241.591 113.422 241.419C113.521 241.242 113.57 241.057 113.57 240.864C113.57 240.598 113.518 240.385 113.414 240.223C113.315 240.057 113.159 239.934 112.945 239.856C112.737 239.778 112.477 239.739 112.164 239.739H110.906V238.778ZM121.789 241.575V237.677C121.789 237.39 121.74 237.143 121.641 236.934C121.542 236.726 121.391 236.565 121.188 236.45C120.984 236.335 120.727 236.278 120.414 236.278C120.138 236.278 119.896 236.325 119.688 236.419C119.484 236.512 119.328 236.645 119.219 236.817C119.109 236.984 119.055 237.177 119.055 237.395H116.984C116.984 237.046 117.068 236.716 117.234 236.403C117.401 236.085 117.638 235.804 117.945 235.559C118.258 235.309 118.63 235.114 119.062 234.973C119.5 234.833 119.99 234.762 120.531 234.762C121.172 234.762 121.742 234.872 122.242 235.091C122.747 235.304 123.143 235.627 123.43 236.059C123.721 236.492 123.867 237.036 123.867 237.692V241.38C123.867 241.802 123.893 242.163 123.945 242.466C124.003 242.762 124.086 243.02 124.195 243.239V243.372H122.094C121.995 243.158 121.919 242.887 121.867 242.559C121.815 242.226 121.789 241.898 121.789 241.575ZM122.078 238.223L122.094 239.45H120.789C120.466 239.45 120.182 239.484 119.938 239.552C119.693 239.614 119.492 239.708 119.336 239.833C119.18 239.953 119.062 240.098 118.984 240.27C118.906 240.437 118.867 240.627 118.867 240.841C118.867 241.049 118.914 241.236 119.008 241.403C119.107 241.57 119.247 241.703 119.43 241.802C119.617 241.895 119.836 241.942 120.086 241.942C120.451 241.942 120.768 241.869 121.039 241.723C121.31 241.572 121.521 241.39 121.672 241.177C121.823 240.963 121.904 240.76 121.914 240.567L122.508 241.458C122.435 241.671 122.326 241.898 122.18 242.137C122.034 242.377 121.846 242.601 121.617 242.809C121.388 243.018 121.112 243.19 120.789 243.325C120.466 243.46 120.091 243.528 119.664 243.528C119.117 243.528 118.628 243.419 118.195 243.2C117.763 242.981 117.422 242.682 117.172 242.302C116.922 241.921 116.797 241.489 116.797 241.005C116.797 240.557 116.88 240.161 117.047 239.817C117.214 239.473 117.461 239.184 117.789 238.95C118.117 238.71 118.523 238.531 119.008 238.411C119.497 238.286 120.057 238.223 120.688 238.223H122.078ZM133.18 241.903C133.471 241.903 133.732 241.846 133.961 241.731C134.19 241.617 134.372 241.455 134.508 241.247C134.648 241.038 134.724 240.796 134.734 240.52H136.68C136.669 241.093 136.508 241.606 136.195 242.059C135.883 242.512 135.466 242.872 134.945 243.137C134.43 243.398 133.852 243.528 133.211 243.528C132.56 243.528 131.992 243.419 131.508 243.2C131.023 242.981 130.62 242.677 130.297 242.286C129.979 241.895 129.74 241.442 129.578 240.927C129.422 240.411 129.344 239.859 129.344 239.27V239.02C129.344 238.432 129.422 237.88 129.578 237.364C129.74 236.848 129.979 236.395 130.297 236.005C130.62 235.614 131.023 235.309 131.508 235.091C131.992 234.872 132.557 234.762 133.203 234.762C133.885 234.762 134.484 234.895 135 235.161C135.521 235.427 135.927 235.802 136.219 236.286C136.516 236.77 136.669 237.341 136.68 237.997H134.734C134.724 237.695 134.656 237.424 134.531 237.184C134.406 236.945 134.229 236.752 134 236.606C133.771 236.46 133.492 236.387 133.164 236.387C132.815 236.387 132.523 236.46 132.289 236.606C132.06 236.752 131.88 236.953 131.75 237.208C131.625 237.458 131.536 237.739 131.484 238.052C131.438 238.359 131.414 238.682 131.414 239.02V239.27C131.414 239.614 131.438 239.942 131.484 240.255C131.536 240.567 131.625 240.848 131.75 241.098C131.88 241.343 132.06 241.538 132.289 241.684C132.523 241.83 132.82 241.903 133.18 241.903ZM140.117 236.544V246.622H138.047V234.919H139.961L140.117 236.544ZM145.547 239.059V239.223C145.547 239.838 145.474 240.408 145.328 240.934C145.188 241.455 144.979 241.911 144.703 242.302C144.427 242.687 144.083 242.989 143.672 243.208C143.266 243.421 142.797 243.528 142.266 243.528C141.745 243.528 141.292 243.429 140.906 243.231C140.521 243.028 140.195 242.742 139.93 242.372C139.664 242.002 139.451 241.572 139.289 241.083C139.133 240.588 139.016 240.049 138.938 239.466V238.942C139.016 238.322 139.133 237.76 139.289 237.255C139.451 236.744 139.664 236.304 139.93 235.934C140.195 235.559 140.518 235.27 140.898 235.067C141.284 234.864 141.734 234.762 142.25 234.762C142.786 234.762 143.258 234.864 143.664 235.067C144.076 235.27 144.422 235.562 144.703 235.942C144.984 236.322 145.195 236.775 145.336 237.302C145.477 237.828 145.547 238.413 145.547 239.059ZM143.477 239.223V239.059C143.477 238.684 143.443 238.338 143.375 238.02C143.307 237.697 143.203 237.416 143.062 237.177C142.922 236.932 142.74 236.742 142.516 236.606C142.292 236.471 142.021 236.403 141.703 236.403C141.385 236.403 141.112 236.455 140.883 236.559C140.654 236.663 140.466 236.812 140.32 237.005C140.174 237.197 140.06 237.427 139.977 237.692C139.898 237.953 139.846 238.242 139.82 238.559V239.856C139.867 240.242 139.958 240.588 140.094 240.895C140.229 241.203 140.427 241.447 140.688 241.63C140.953 241.812 141.297 241.903 141.719 241.903C142.036 241.903 142.307 241.833 142.531 241.692C142.755 241.552 142.938 241.359 143.078 241.114C143.219 240.864 143.32 240.578 143.383 240.255C143.445 239.932 143.477 239.588 143.477 239.223ZM151.711 241.575V237.677C151.711 237.39 151.661 237.143 151.562 236.934C151.464 236.726 151.312 236.565 151.109 236.45C150.906 236.335 150.648 236.278 150.336 236.278C150.06 236.278 149.818 236.325 149.609 236.419C149.406 236.512 149.25 236.645 149.141 236.817C149.031 236.984 148.977 237.177 148.977 237.395H146.906C146.906 237.046 146.99 236.716 147.156 236.403C147.323 236.085 147.56 235.804 147.867 235.559C148.18 235.309 148.552 235.114 148.984 234.973C149.422 234.833 149.911 234.762 150.453 234.762C151.094 234.762 151.664 234.872 152.164 235.091C152.669 235.304 153.065 235.627 153.352 236.059C153.643 236.492 153.789 237.036 153.789 237.692V241.38C153.789 241.802 153.815 242.163 153.867 242.466C153.924 242.762 154.008 243.02 154.117 243.239V243.372H152.016C151.917 243.158 151.841 242.887 151.789 242.559C151.737 242.226 151.711 241.898 151.711 241.575ZM152 238.223L152.016 239.45H150.711C150.388 239.45 150.104 239.484 149.859 239.552C149.615 239.614 149.414 239.708 149.258 239.833C149.102 239.953 148.984 240.098 148.906 240.27C148.828 240.437 148.789 240.627 148.789 240.841C148.789 241.049 148.836 241.236 148.93 241.403C149.029 241.57 149.169 241.703 149.352 241.802C149.539 241.895 149.758 241.942 150.008 241.942C150.372 241.942 150.69 241.869 150.961 241.723C151.232 241.572 151.443 241.39 151.594 241.177C151.745 240.963 151.826 240.76 151.836 240.567L152.43 241.458C152.357 241.671 152.247 241.898 152.102 242.137C151.956 242.377 151.768 242.601 151.539 242.809C151.31 243.018 151.034 243.19 150.711 243.325C150.388 243.46 150.013 243.528 149.586 243.528C149.039 243.528 148.549 243.419 148.117 243.2C147.685 242.981 147.344 242.682 147.094 242.302C146.844 241.921 146.719 241.489 146.719 241.005C146.719 240.557 146.802 240.161 146.969 239.817C147.135 239.473 147.383 239.184 147.711 238.95C148.039 238.71 148.445 238.531 148.93 238.411C149.419 238.286 149.979 238.223 150.609 238.223H152ZM157.852 234.919V243.372H155.789V234.919H157.852ZM163.359 234.919L159.633 240.106H157.438L157.18 238.216H158.703L160.758 234.919H163.359ZM160.883 243.372L158.57 239.747L160.289 238.669L163.625 243.372H160.883ZM167.047 242.434L169.312 234.919H171.523L168.133 244.653C168.055 244.861 167.953 245.088 167.828 245.333C167.708 245.578 167.547 245.809 167.344 246.028C167.141 246.252 166.885 246.434 166.578 246.575C166.276 246.716 165.909 246.786 165.477 246.786C165.289 246.786 165.122 246.773 164.977 246.747C164.831 246.721 164.677 246.687 164.516 246.645V245.098C164.568 245.104 164.628 245.106 164.695 245.106C164.768 245.111 164.831 245.114 164.883 245.114C165.185 245.114 165.435 245.078 165.633 245.005C165.831 244.937 165.99 244.825 166.109 244.669C166.234 244.518 166.339 244.32 166.422 244.075L167.047 242.434ZM165.93 234.919L167.844 241.145L168.18 243.325L166.758 243.583L163.703 234.919H165.93ZM176.141 239.231V239.067C176.141 238.447 176.229 237.877 176.406 237.356C176.583 236.83 176.841 236.374 177.18 235.989C177.518 235.604 177.932 235.304 178.422 235.091C178.911 234.872 179.469 234.762 180.094 234.762C180.729 234.762 181.292 234.872 181.781 235.091C182.276 235.304 182.693 235.604 183.031 235.989C183.37 236.374 183.628 236.83 183.805 237.356C183.982 237.877 184.07 238.447 184.07 239.067V239.231C184.07 239.846 183.982 240.416 183.805 240.942C183.628 241.463 183.37 241.919 183.031 242.309C182.693 242.695 182.279 242.994 181.789 243.208C181.299 243.421 180.74 243.528 180.109 243.528C179.484 243.528 178.924 243.421 178.43 243.208C177.935 242.994 177.518 242.695 177.18 242.309C176.841 241.919 176.583 241.463 176.406 240.942C176.229 240.416 176.141 239.846 176.141 239.231ZM178.203 239.067V239.231C178.203 239.601 178.24 239.947 178.312 240.27C178.385 240.593 178.497 240.877 178.648 241.122C178.799 241.367 178.995 241.559 179.234 241.7C179.479 241.835 179.771 241.903 180.109 241.903C180.443 241.903 180.729 241.835 180.969 241.7C181.208 241.559 181.404 241.367 181.555 241.122C181.711 240.877 181.826 240.593 181.898 240.27C181.971 239.947 182.008 239.601 182.008 239.231V239.067C182.008 238.703 181.971 238.361 181.898 238.044C181.826 237.721 181.711 237.437 181.555 237.192C181.404 236.942 181.206 236.747 180.961 236.606C180.721 236.46 180.432 236.387 180.094 236.387C179.76 236.387 179.474 236.46 179.234 236.606C178.995 236.747 178.799 236.942 178.648 237.192C178.497 237.437 178.385 237.721 178.312 238.044C178.24 238.361 178.203 238.703 178.203 239.067ZM187.633 236.544V246.622H185.562V234.919H187.477L187.633 236.544ZM193.062 239.059V239.223C193.062 239.838 192.99 240.408 192.844 240.934C192.703 241.455 192.495 241.911 192.219 242.302C191.943 242.687 191.599 242.989 191.188 243.208C190.781 243.421 190.312 243.528 189.781 243.528C189.26 243.528 188.807 243.429 188.422 243.231C188.036 243.028 187.711 242.742 187.445 242.372C187.18 242.002 186.966 241.572 186.805 241.083C186.648 240.588 186.531 240.049 186.453 239.466V238.942C186.531 238.322 186.648 237.76 186.805 237.255C186.966 236.744 187.18 236.304 187.445 235.934C187.711 235.559 188.034 235.27 188.414 235.067C188.799 234.864 189.25 234.762 189.766 234.762C190.302 234.762 190.773 234.864 191.18 235.067C191.591 235.27 191.938 235.562 192.219 235.942C192.5 236.322 192.711 236.775 192.852 237.302C192.992 237.828 193.062 238.413 193.062 239.059ZM190.992 239.223V239.059C190.992 238.684 190.958 238.338 190.891 238.02C190.823 237.697 190.719 237.416 190.578 237.177C190.438 236.932 190.255 236.742 190.031 236.606C189.807 236.471 189.536 236.403 189.219 236.403C188.901 236.403 188.628 236.455 188.398 236.559C188.169 236.663 187.982 236.812 187.836 237.005C187.69 237.197 187.576 237.427 187.492 237.692C187.414 237.953 187.362 238.242 187.336 238.559V239.856C187.383 240.242 187.474 240.588 187.609 240.895C187.745 241.203 187.943 241.447 188.203 241.63C188.469 241.812 188.812 241.903 189.234 241.903C189.552 241.903 189.823 241.833 190.047 241.692C190.271 241.552 190.453 241.359 190.594 241.114C190.734 240.864 190.836 240.578 190.898 240.255C190.961 239.932 190.992 239.588 190.992 239.223ZM196.773 234.919V243.372H194.711V234.919H196.773ZM202.281 234.919L198.555 240.106H196.359L196.102 238.216H197.625L199.68 234.919H202.281ZM199.805 243.372L197.492 239.747L199.211 238.669L202.547 243.372H199.805ZM205.68 234.919V243.372H203.609V234.919H205.68ZM203.469 232.708C203.469 232.4 203.573 232.145 203.781 231.942C203.995 231.739 204.281 231.637 204.641 231.637C205 231.637 205.284 231.739 205.492 231.942C205.706 232.145 205.812 232.4 205.812 232.708C205.812 233.01 205.706 233.262 205.492 233.466C205.284 233.669 205 233.77 204.641 233.77C204.281 233.77 203.995 233.669 203.781 233.466C203.573 233.262 203.469 233.01 203.469 232.708ZM211.805 239.794H209.125L209.109 238.395H211.312C211.641 238.395 211.909 238.361 212.117 238.294C212.326 238.226 212.479 238.124 212.578 237.989C212.682 237.854 212.734 237.69 212.734 237.497C212.734 237.33 212.703 237.187 212.641 237.067C212.578 236.942 212.484 236.841 212.359 236.762C212.24 236.684 212.086 236.627 211.898 236.591C211.716 236.549 211.503 236.528 211.258 236.528H209.859V243.372H207.789V234.919H211.258C211.805 234.919 212.297 234.968 212.734 235.067C213.172 235.161 213.544 235.304 213.852 235.497C214.159 235.69 214.393 235.934 214.555 236.231C214.721 236.523 214.805 236.867 214.805 237.262C214.805 237.523 214.747 237.768 214.633 237.997C214.518 238.226 214.349 238.429 214.125 238.606C213.901 238.783 213.625 238.929 213.297 239.044C212.969 239.153 212.594 239.221 212.172 239.247L211.805 239.794ZM211.805 243.372H208.57L209.336 241.762H211.805C212.107 241.762 212.357 241.726 212.555 241.653C212.753 241.575 212.898 241.463 212.992 241.317C213.091 241.171 213.141 240.994 213.141 240.786C213.141 240.583 213.094 240.408 213 240.262C212.911 240.111 212.768 239.997 212.57 239.919C212.378 239.835 212.122 239.794 211.805 239.794H209.672L209.688 238.395H212.164L212.711 238.95C213.273 238.986 213.74 239.101 214.109 239.294C214.479 239.481 214.755 239.721 214.938 240.012C215.12 240.299 215.211 240.614 215.211 240.958C215.211 241.359 215.135 241.71 214.984 242.012C214.833 242.315 214.612 242.567 214.32 242.77C214.029 242.968 213.672 243.119 213.25 243.223C212.828 243.322 212.346 243.372 211.805 243.372ZM222.898 234.919V243.372H220.836V234.919H222.898ZM228.406 234.919L224.68 240.106H222.484L222.227 238.216H223.75L225.805 234.919H228.406ZM225.93 243.372L223.617 239.747L225.336 238.669L228.672 243.372H225.93ZM232.094 242.434L234.359 234.919H236.57L233.18 244.653C233.102 244.861 233 245.088 232.875 245.333C232.755 245.578 232.594 245.809 232.391 246.028C232.188 246.252 231.932 246.434 231.625 246.575C231.323 246.716 230.956 246.786 230.523 246.786C230.336 246.786 230.169 246.773 230.023 246.747C229.878 246.721 229.724 246.687 229.562 246.645V245.098C229.615 245.104 229.674 245.106 229.742 245.106C229.815 245.111 229.878 245.114 229.93 245.114C230.232 245.114 230.482 245.078 230.68 245.005C230.878 244.937 231.036 244.825 231.156 244.669C231.281 244.518 231.385 244.32 231.469 244.075L232.094 242.434ZM230.977 234.919L232.891 241.145L233.227 243.325L231.805 243.583L228.75 234.919H230.977ZM240.93 241.903C241.221 241.903 241.482 241.846 241.711 241.731C241.94 241.617 242.122 241.455 242.258 241.247C242.398 241.038 242.474 240.796 242.484 240.52H244.43C244.419 241.093 244.258 241.606 243.945 242.059C243.633 242.512 243.216 242.872 242.695 243.137C242.18 243.398 241.602 243.528 240.961 243.528C240.31 243.528 239.742 243.419 239.258 243.2C238.773 242.981 238.37 242.677 238.047 242.286C237.729 241.895 237.49 241.442 237.328 240.927C237.172 240.411 237.094 239.859 237.094 239.27V239.02C237.094 238.432 237.172 237.88 237.328 237.364C237.49 236.848 237.729 236.395 238.047 236.005C238.37 235.614 238.773 235.309 239.258 235.091C239.742 234.872 240.307 234.762 240.953 234.762C241.635 234.762 242.234 234.895 242.75 235.161C243.271 235.427 243.677 235.802 243.969 236.286C244.266 236.77 244.419 237.341 244.43 237.997H242.484C242.474 237.695 242.406 237.424 242.281 237.184C242.156 236.945 241.979 236.752 241.75 236.606C241.521 236.46 241.242 236.387 240.914 236.387C240.565 236.387 240.273 236.46 240.039 236.606C239.81 236.752 239.63 236.953 239.5 237.208C239.375 237.458 239.286 237.739 239.234 238.052C239.188 238.359 239.164 238.682 239.164 239.02V239.27C239.164 239.614 239.188 239.942 239.234 240.255C239.286 240.567 239.375 240.848 239.5 241.098C239.63 241.343 239.81 241.538 240.039 241.684C240.273 241.83 240.57 241.903 240.93 241.903ZM247.273 237.52H249.742C250.492 237.52 251.13 237.645 251.656 237.895C252.188 238.14 252.591 238.484 252.867 238.927C253.148 239.364 253.289 239.872 253.289 240.45C253.289 240.867 253.208 241.255 253.047 241.614C252.891 241.968 252.661 242.278 252.359 242.544C252.057 242.804 251.685 243.007 251.242 243.153C250.805 243.299 250.305 243.372 249.742 243.372H245.945V234.919H248.016V241.755H249.742C250.102 241.755 250.388 241.695 250.602 241.575C250.82 241.45 250.977 241.291 251.07 241.098C251.169 240.9 251.219 240.69 251.219 240.466C251.219 240.236 251.169 240.023 251.07 239.825C250.977 239.622 250.82 239.458 250.602 239.333C250.388 239.208 250.102 239.145 249.742 239.145H247.273V237.52Z" fill="#707070"/>
<defs>
<radialGradient id="paint0_radial_137103_289" cx="0" cy="0" r="1" gradientUnits="userSpaceOnUse" gradientTransform="translate(171.944 55.2605) rotate(90) scale(5.35976 3.80513)">
<stop stop-color="#FFBBBB"/>
<stop offset="1" stop-color="#FFBBBB" stop-opacity="0"/>
</radialGradient>
<radialGradient id="paint1_radial_137103_289" cx="0" cy="0" r="1" gradientUnits="userSpaceOnUse" gradientTransform="translate(153.62 56.3124) rotate(90) scale(5.35976 3.80513)">
<stop stop-color="#FFBBBB"/>
<stop offset="1" stop-color="#FFBBBB" stop-opacity="0"/>
</radialGradient>
</defs>
</svg></svg>