<svg width="146" height="151" viewBox="0 0 146 151" fill="none" xmlns="http://www.w3.org/2000/svg">
<path d="M56.7007 108.031H37V141H56.7007V108.031Z" fill="#4C89FF"/>
<path d="M109 108.031H72.3197V141H109V108.031Z" fill="#4C89FF"/>
<path d="M39.8844 108.085H37V102.992L38.415 103.957L39.8844 102.992V108.085Z" fill="#4C89FF"/>
<path d="M45.5442 108.085H42.6599V102.992L44.0748 103.957L45.5442 102.992V108.085Z" fill="#4C89FF"/>
<path d="M86.3605 108.085H83.5306V102.992L84.9456 103.957L86.3605 102.992V108.085Z" fill="#4C89FF"/>
<path d="M92.0204 108.085H89.136V102.992L90.6054 103.957L92.0204 102.992V108.085Z" fill="#4C89FF"/>
<path d="M97.6803 108.085H94.7959V102.992L96.2653 103.957L97.6803 102.992V108.085Z" fill="#4C89FF"/>
<path d="M103.34 108.085H100.456V102.992L101.925 103.957L103.34 102.992V108.085Z" fill="#4C89FF"/>
<path d="M109 108.085H106.116V102.992L107.585 103.957L109 102.992V108.085Z" fill="#4C89FF"/>
<path d="M64.5374 16.5216L56.6463 44.3979L64.5374 49.9732L72.3742 44.3979L64.5374 16.5216Z" fill="#84ADFF"/>
<path d="M64.5374 11L65.6259 13.1979L68.1293 13.5732L66.3334 15.2887L66.7687 17.7546L64.5374 16.6289L62.3061 17.7546L62.7415 15.2887L60.8912 13.5732L63.3946 13.1979L64.5374 11Z" fill="#D52B1E"/>
<path d="M73.6803 45.4701H55.3946V123.417H73.6803V45.4701Z" fill="#4C89FF"/>
<path d="M59.4762 42.7361C58.8231 42.3608 58.4422 40.8062 58.4422 40.8062C58.4422 40.8062 58.0612 42.4144 57.4082 42.7361C56.7551 43.1113 55.3946 43.3794 55.3946 45.7918C55.3946 48.2041 55.3946 52.868 55.3946 52.868H58.4422H61.4898C61.4898 52.868 61.4898 48.2041 61.4898 45.7918C61.4898 43.3794 60.1293 43.1113 59.4762 42.7361Z" fill="#DDE8FF"/>
<path d="M59.2585 43.4866C58.7687 43.2186 58.4422 41.9856 58.4422 41.9856C58.4422 41.9856 58.1157 43.2186 57.6259 43.4866C57.1361 43.7546 56.0476 43.9691 56.0476 45.899C56.0476 47.7753 56.0476 52.868 56.0476 52.868H60.7823C60.7823 52.868 60.7823 47.7753 60.7823 45.899C60.7823 43.9691 59.7483 43.7546 59.2585 43.4866Z" fill="#4C89FF"/>
<path d="M65.5714 42.7361C64.9184 42.3608 64.5374 40.8062 64.5374 40.8062C64.5374 40.8062 64.1565 42.4144 63.5034 42.7361C62.8504 43.1113 61.4898 43.3794 61.4898 45.7918C61.4898 48.2041 61.4898 52.868 61.4898 52.868H64.5374H67.585C67.585 52.868 67.585 48.2041 67.585 45.7918C67.585 43.3794 66.2245 43.1113 65.5714 42.7361Z" fill="#DDE8FF"/>
<path d="M65.3538 43.4866C64.864 43.2186 64.5374 41.9856 64.5374 41.9856C64.5374 41.9856 64.2109 43.2186 63.7211 43.4866C63.2313 43.7546 62.1429 43.9691 62.1429 45.899C62.1429 47.7753 62.1429 52.868 62.1429 52.868H66.8776C66.8776 52.868 66.8776 47.7753 66.8776 45.899C66.8776 43.9691 65.8436 43.7546 65.3538 43.4866Z" fill="#4C89FF"/>
<path d="M71.6667 42.7361C71.0136 42.3608 70.6327 40.8062 70.6327 40.8062C70.6327 40.8062 70.2517 42.4144 69.5987 42.7361C68.9456 43.1113 67.5851 43.3794 67.5851 45.7918C67.5851 48.2041 67.5851 52.868 67.5851 52.868H70.6327H73.6803C73.6803 52.868 73.6803 48.2041 73.6803 45.7918C73.6803 43.3794 72.3197 43.1113 71.6667 42.7361Z" fill="#DDE8FF"/>
<path d="M71.449 43.4866C70.9592 43.2186 70.6327 41.9856 70.6327 41.9856C70.6327 41.9856 70.3062 43.2186 69.8164 43.4866C69.3266 43.7546 68.2381 43.9691 68.2381 45.899C68.2381 47.7753 68.2381 52.868 68.2381 52.868H72.9728C72.9728 52.868 72.9728 47.7753 72.9728 45.899C72.9728 43.9691 71.9388 43.7546 71.449 43.4866Z" fill="#4C89FF"/>
<path d="M56.0476 49.2227C56.0476 51.0454 56.0476 52.8144 56.0476 52.8144H60.7823C60.7823 52.8144 60.7823 51.0454 60.7823 49.2227H56.0476Z" fill="#B0CBFF"/>
<path d="M62.1429 49.2227C62.1429 51.0454 62.1429 52.8144 62.1429 52.8144H66.8776C66.8776 52.8144 66.8776 51.0454 66.8776 49.2227H62.1429Z" fill="#B0CBFF"/>
<path d="M68.2381 49.2227C68.2381 51.0454 68.2381 52.8144 68.2381 52.8144H72.9728C72.9728 52.8144 72.9728 51.0454 72.9728 49.2227H68.2381Z" fill="#B0CBFF"/>
<path d="M73.6803 52.868H55.3946V123.416H73.6803V52.868Z" fill="#B0CBFF"/>
<path d="M73.6803 52.868H55.3946V55.9773H73.6803V52.868Z" fill="#DDE8FF"/>
<path d="M75.2585 64.233H53.7619V127.973H75.2585V64.233Z" fill="#B0CBFF"/>
<path d="M75.2585 64.233H53.7619V66.2165H75.2585V64.233Z" fill="#DDE8FF"/>
<path d="M79.6122 81.4949H49.4626V141H79.6122V81.4949Z" fill="#B0CBFF"/>
<path d="M79.6122 81.4949H49.4626V141H79.6122V81.4949Z" fill="#4C89FF"/>
<path d="M76.1837 81.4949H52.8367V141H76.1837V81.4949Z" fill="#B0CBFF"/>
<path d="M52.1293 81.4949H49.4626V141H52.1293V81.4949Z" fill="#B0CBFF"/>
<path d="M79.6123 81.4949H76.9456V141H79.6123V81.4949Z" fill="#B0CBFF"/>
<path d="M79.6122 85.9443H49.4626V87.3917H79.6122V85.9443Z" fill="#DDE8FF"/>
<path d="M71.8299 67.932V64.3402C71.8299 61.0701 68.6191 60.0515 67.0408 59.5691C65.4626 59.0866 64.5374 56.9423 64.5374 56.9423C64.5374 56.9423 63.6123 59.0866 62.034 59.5691C60.4558 60.0515 57.2449 61.0701 57.2449 64.3402V67.932H71.8299Z" fill="#DDE8FF"/>
<path d="M72.5918 69.3258C72.5918 73.7216 69 77.2598 64.5374 77.2598C60.0748 77.2598 56.483 73.7216 56.483 69.3258C56.483 64.9299 60.0748 61.3918 64.5374 61.3918C69 61.3381 72.5918 64.9299 72.5918 69.3258Z" fill="#DDE8FF"/>
<path d="M71.449 69.3258C71.449 73.0784 68.347 76.1876 64.483 76.1876C60.6735 76.1876 57.517 73.132 57.517 69.3258C57.517 65.5732 60.6191 62.4639 64.483 62.4639C68.347 62.4639 71.449 65.5196 71.449 69.3258Z" fill="#4C89FF"/>
<path d="M65.4626 67.8784L65.6259 68.0928L64.6463 68.8433H64.5919C64.4286 68.8433 64.3198 68.9505 64.3198 69.1113C64.3198 69.2186 64.3742 69.2722 64.483 69.3258V72.0062H64.2109L64.5374 73.132L64.9728 72.0062H64.7007V69.3794C64.8095 69.3258 64.864 69.2722 64.864 69.1113C64.864 69.0577 64.864 69.0577 64.864 69.0041L65.7891 68.3072L65.9524 68.5217L66.7687 67.6103L65.4626 67.8784Z" fill="#DDE8FF"/>
<path d="M55.0136 80.1546C54.6327 79.9402 54.415 79.0289 54.415 79.0289C54.415 79.0289 54.1973 79.9402 53.8163 80.1546C53.4354 80.3691 52.6735 80.5299 52.6735 81.9237C52.6735 83.3175 52.6735 85.9443 52.6735 85.9443H54.415H56.1565C56.1565 85.9443 56.1565 83.2639 56.1565 81.9237C56.1565 80.5299 55.3946 80.3691 55.0136 80.1546Z" fill="#DDE8FF"/>
<path d="M52.7279 80.5299H49.4626V85.9979H52.7279V80.5299Z" fill="#B0CBFF"/>
<path d="M52.7279 79.2433H49.4626V80.6371H52.7279V79.2433Z" fill="#B0CBFF"/>
<path d="M51.0408 71.3629C51.0408 71.3629 50.1701 78.7072 49.4082 79.1897H52.6735C51.966 78.7072 51.0408 71.3629 51.0408 71.3629Z" fill="#DDE8FF"/>
<path d="M61.7619 80.1546C61.381 79.9402 61.1633 79.0289 61.1633 79.0289C61.1633 79.0289 60.9456 79.9402 60.5646 80.1546C60.1837 80.3691 59.4218 80.5299 59.4218 81.9237C59.4218 83.3175 59.4218 85.9443 59.4218 85.9443H61.1633H62.9048C62.9048 85.9443 62.9048 83.2639 62.9048 81.9237C62.9048 80.5299 62.1429 80.3691 61.7619 80.1546Z" fill="#DDE8FF"/>
<path d="M59.4218 80.5299H56.1565V85.9979H59.4218V80.5299Z" fill="#DDE8FF"/>
<path d="M59.4218 79.2433H56.1565V80.6371H59.4218V79.2433Z" fill="#DDE8FF"/>
<path d="M57.7891 77.1526C57.7891 77.1526 56.9184 78.7072 56.1565 79.2433H59.4218C58.6599 78.7072 57.7891 77.1526 57.7891 77.1526Z" fill="#DDE8FF"/>
<path d="M68.4558 80.1546C68.0748 79.9402 67.8572 79.0289 67.8572 79.0289C67.8572 79.0289 67.6395 79.9402 67.2585 80.1546C66.8776 80.3691 66.1157 80.5299 66.1157 81.9237C66.1157 83.3175 66.1157 85.9443 66.1157 85.9443H67.8572H69.5987C69.5987 85.9443 69.5987 83.2639 69.5987 81.9237C69.5987 80.5299 68.8367 80.3691 68.4558 80.1546Z" fill="#DDE8FF"/>
<path d="M66.1701 80.5299H62.9048V85.9979H66.1701V80.5299Z" fill="#DDE8FF"/>
<path d="M66.1701 79.2433H62.9048V80.6371H66.1701V79.2433Z" fill="#DDE8FF"/>
<path d="M64.5374 77.1526C64.5374 77.1526 63.6667 78.7072 62.9048 79.2433H66.1701C65.4082 78.7072 64.5374 77.1526 64.5374 77.1526Z" fill="#DDE8FF"/>
<path d="M75.2041 80.1546C74.8231 79.9402 74.6054 79.0289 74.6054 79.0289C74.6054 79.0289 74.3878 79.9402 74.0068 80.1546C73.6259 80.3691 72.864 80.5299 72.864 81.9237C72.864 83.3175 72.864 85.9443 72.864 85.9443H74.6054H76.3469C76.3469 85.9443 76.3469 83.2639 76.3469 81.9237C76.3469 80.5299 75.585 80.3691 75.2041 80.1546Z" fill="#DDE8FF"/>
<path d="M72.8639 80.5299H69.5986V85.9979H72.8639V80.5299Z" fill="#DDE8FF"/>
<path d="M72.8639 79.2433H69.5986V80.6371H72.8639V79.2433Z" fill="#DDE8FF"/>
<path d="M71.2313 77.1526C71.2313 77.1526 70.3605 78.7072 69.5986 79.2433H72.8639C72.1565 78.7072 71.2313 77.1526 71.2313 77.1526Z" fill="#DDE8FF"/>
<path d="M79.6123 80.5299H76.347V85.9979H79.6123V80.5299Z" fill="#B0CBFF"/>
<path d="M79.6123 79.2433H76.347V80.6371H79.6123V79.2433Z" fill="#B0CBFF"/>
<path d="M77.9796 71.3629C77.9796 71.3629 77.1089 78.7072 76.347 79.1897H79.6123C78.8504 78.7072 77.9796 71.3629 77.9796 71.3629Z" fill="#DDE8FF"/>
<path d="M79.6122 99.4H49.4626V99.9897H79.6122V99.4Z" fill="#DDE8FF"/>
</svg>
