<svg width="207" height="323" viewBox="0 0 207 323" fill="none" xmlns="http://www.w3.org/2000/svg">
<path d="M65.0627 238.753H18V317.239H65.0627V238.753Z" fill="#4C89FF"/>
<path d="M190 238.753H102.375V317.239H190V238.753Z" fill="#4C89FF"/>
<path d="M24.8904 238.88H18V226.756L21.3802 229.054L24.8904 226.756V238.88Z" fill="#4C89FF"/>
<path d="M38.4112 238.88H31.5208V226.756L34.9009 229.054L38.4112 226.756V238.88Z" fill="#4C89FF"/>
<path d="M135.917 238.88H129.156V226.756L132.537 229.054L135.917 226.756V238.88Z" fill="#4C89FF"/>
<path d="M149.438 238.88H142.547V226.756L146.057 229.054L149.438 226.756V238.88Z" fill="#4C89FF"/>
<path d="M162.959 238.88H156.068V226.756L159.578 229.054L162.959 226.756V238.88Z" fill="#4C89FF"/>
<path d="M176.479 238.88H169.589V226.756L173.099 229.054L176.479 226.756V238.88Z" fill="#4C89FF"/>
<path d="M190 238.88H183.11V226.756L186.62 229.054L190 226.756V238.88Z" fill="#4C89FF"/>
<path d="M83.7837 20.906L64.9326 87.2682L83.7837 100.541L102.505 87.2682L83.7837 20.906Z" fill="#84ADFF"/>
<path d="M83.7837 7.76117L86.3839 12.9936L92.3642 13.8869L88.074 17.9707L89.1141 23.8412L83.7837 21.1612L78.4534 23.8412L79.4935 17.9707L75.0732 13.8869L81.0536 12.9936L83.7837 7.76117Z" fill="#D52B1E"/>
<path d="M105.625 89.8206H61.9424V275.38H105.625V89.8206Z" fill="#4C89FF"/>
<path d="M71.6929 83.312C70.1329 82.4186 69.2228 78.7177 69.2228 78.7177C69.2228 78.7177 68.3128 82.5462 66.7527 83.312C65.1926 84.2053 61.9424 84.8434 61.9424 90.5863C61.9424 96.3292 61.9424 107.432 61.9424 107.432H69.2228H76.5032C76.5032 107.432 76.5032 96.3292 76.5032 90.5863C76.5032 84.8434 73.253 84.2053 71.6929 83.312Z" fill="#DDE8FF"/>
<path d="M71.1729 85.0986C70.0028 84.4605 69.2228 81.5253 69.2228 81.5253C69.2228 81.5253 68.4427 84.4605 67.2727 85.0986C66.1026 85.7367 63.5024 86.2472 63.5024 90.8415C63.5024 95.3082 63.5024 107.432 63.5024 107.432H74.8131C74.8131 107.432 74.8131 95.3082 74.8131 90.8415C74.8131 86.2472 72.343 85.7367 71.1729 85.0986Z" fill="#4C89FF"/>
<path d="M86.2537 83.312C84.6936 82.4186 83.7836 78.7177 83.7836 78.7177C83.7836 78.7177 82.8735 82.5462 81.3135 83.312C79.7534 84.2053 76.5032 84.8434 76.5032 90.5863C76.5032 96.3292 76.5032 107.432 76.5032 107.432H83.7836H91.064C91.064 107.432 91.064 96.3292 91.064 90.5863C91.064 84.8434 87.8138 84.2053 86.2537 83.312Z" fill="#DDE8FF"/>
<path d="M85.7337 85.0986C84.5636 84.4605 83.7836 81.5253 83.7836 81.5253C83.7836 81.5253 83.0035 84.4605 81.8334 85.0986C80.6634 85.7367 78.0632 86.2472 78.0632 90.8415C78.0632 95.3082 78.0632 107.432 78.0632 107.432H89.3739C89.3739 107.432 89.3739 95.3082 89.3739 90.8415C89.3739 86.2472 86.9037 85.7367 85.7337 85.0986Z" fill="#4C89FF"/>
<path d="M100.815 83.312C99.2544 82.4186 98.3444 78.7177 98.3444 78.7177C98.3444 78.7177 97.4343 82.5462 95.8742 83.312C94.3142 84.2053 91.064 84.8434 91.064 90.5863C91.064 96.3292 91.064 107.432 91.064 107.432H98.3444H105.625C105.625 107.432 105.625 96.3292 105.625 90.5863C105.625 84.8434 102.375 84.2053 100.815 83.312Z" fill="#DDE8FF"/>
<path d="M100.294 85.0986C99.1244 84.4605 98.3444 81.5253 98.3444 81.5253C98.3444 81.5253 97.5643 84.4605 96.3942 85.0986C95.2242 85.7367 92.624 86.2472 92.624 90.8415C92.624 95.3082 92.624 107.432 92.624 107.432H103.935C103.935 107.432 103.935 95.3082 103.935 90.8415C103.935 86.2472 101.465 85.7367 100.294 85.0986Z" fill="#4C89FF"/>
<path d="M63.5024 98.754C63.5024 103.093 63.5024 107.304 63.5024 107.304H74.8131C74.8131 107.304 74.8131 103.093 74.8131 98.754H63.5024Z" fill="#B0CBFF"/>
<path d="M78.0632 98.754C78.0632 103.093 78.0632 107.304 78.0632 107.304H89.3739C89.3739 107.304 89.3739 103.093 89.3739 98.754H78.0632Z" fill="#B0CBFF"/>
<path d="M92.624 98.754C92.624 103.093 92.624 107.304 92.624 107.304H103.935C103.935 107.304 103.935 103.093 103.935 98.754H92.624Z" fill="#B0CBFF"/>
<path d="M105.625 107.432H61.9424V275.38H105.625V107.432Z" fill="#B0CBFF"/>
<path d="M105.625 107.432H61.9424V114.834H105.625V107.432Z" fill="#DDE8FF"/>
<path d="M109.395 134.487H58.0422V286.227H109.395V134.487Z" fill="#B0CBFF"/>
<path d="M109.395 134.487H58.0422V139.209H109.395V134.487Z" fill="#DDE8FF"/>
<path d="M119.796 175.581H47.7717V317.239H119.796V175.581Z" fill="#B0CBFF"/>
<path d="M119.796 175.581H47.7717V317.239H119.796V175.581Z" fill="#4C89FF"/>
<path d="M111.605 175.581H55.832V317.239H111.605V175.581Z" fill="#B0CBFF"/>
<path d="M54.1421 175.581H47.7717V317.239H54.1421V175.581Z" fill="#B0CBFF"/>
<path d="M119.796 175.581H113.426V317.239H119.796V175.581Z" fill="#B0CBFF"/>
<path d="M119.796 186.173H47.7717V189.619H119.796V186.173Z" fill="#DDE8FF"/>
<path d="M101.205 143.293V134.743C101.205 126.958 93.5344 124.533 89.7642 123.385C85.9939 122.236 83.7838 117.131 83.7838 117.131C83.7838 117.131 81.5737 122.236 77.8035 123.385C74.0332 124.533 66.3628 126.958 66.3628 134.743V143.293H101.205Z" fill="#DDE8FF"/>
<path d="M103.025 146.611C103.025 157.076 94.4442 165.499 83.7836 165.499C73.123 165.499 64.5425 157.076 64.5425 146.611C64.5425 136.147 73.123 127.724 83.7836 127.724C94.4442 127.596 103.025 136.147 103.025 146.611Z" fill="#DDE8FF"/>
<path d="M100.295 146.611C100.295 155.545 92.8842 162.947 83.6537 162.947C74.5531 162.947 67.0127 155.672 67.0127 146.611C67.0127 137.678 74.4231 130.276 83.6537 130.276C92.8842 130.276 100.295 137.55 100.295 146.611Z" fill="#4C89FF"/>
<path d="M85.9938 143.166L86.3839 143.676L84.0437 145.463H83.9137C83.5237 145.463 83.2637 145.718 83.2637 146.101C83.2637 146.356 83.3937 146.484 83.6537 146.611V152.992H83.0037L83.7837 155.672L84.8238 152.992H84.1737V146.739C84.4337 146.611 84.5638 146.484 84.5638 146.101C84.5638 145.973 84.5638 145.973 84.5638 145.846L86.7739 144.187L87.1639 144.697L89.114 142.528L85.9938 143.166Z" fill="#DDE8FF"/>
<path d="M61.0325 172.39C60.1224 171.88 59.6024 169.71 59.6024 169.71C59.6024 169.71 59.0824 171.88 58.1723 172.39C57.2622 172.901 55.4421 173.284 55.4421 176.602C55.4421 179.92 55.4421 186.173 55.4421 186.173H59.6024H63.7626C63.7626 186.173 63.7626 179.792 63.7626 176.602C63.7626 173.284 61.9425 172.901 61.0325 172.39Z" fill="#DDE8FF"/>
<path d="M55.5722 173.284H47.7717V186.301H55.5722V173.284Z" fill="#B0CBFF"/>
<path d="M55.5722 170.221H47.7717V173.539H55.5722V170.221Z" fill="#B0CBFF"/>
<path d="M51.5418 151.461C51.5418 151.461 49.4617 168.945 47.6416 170.093H55.4421C53.752 168.945 51.5418 151.461 51.5418 151.461Z" fill="#DDE8FF"/>
<path d="M77.1533 172.39C76.2433 171.88 75.7232 169.71 75.7232 169.71C75.7232 169.71 75.2032 171.88 74.2931 172.39C73.3831 172.901 71.563 173.284 71.563 176.602C71.563 179.92 71.563 186.173 71.563 186.173H75.7232H79.8835C79.8835 186.173 79.8835 179.792 79.8835 176.602C79.8835 173.284 78.0634 172.901 77.1533 172.39Z" fill="#DDE8FF"/>
<path d="M71.5629 173.284H63.7625V186.301H71.5629V173.284Z" fill="#DDE8FF"/>
<path d="M71.5629 170.221H63.7625V173.539H71.5629V170.221Z" fill="#DDE8FF"/>
<path d="M67.6627 165.244C67.6627 165.244 65.5826 168.945 63.7625 170.221H71.5629C69.7428 168.945 67.6627 165.244 67.6627 165.244Z" fill="#DDE8FF"/>
<path d="M93.1443 172.39C92.2342 171.88 91.7142 169.71 91.7142 169.71C91.7142 169.71 91.1942 171.88 90.2841 172.39C89.3741 172.901 87.554 173.284 87.554 176.602C87.554 179.92 87.554 186.173 87.554 186.173H91.7142H95.8744C95.8744 186.173 95.8744 179.792 95.8744 176.602C95.8744 173.284 94.0543 172.901 93.1443 172.39Z" fill="#DDE8FF"/>
<path d="M87.684 173.284H79.8835V186.301H87.684V173.284Z" fill="#DDE8FF"/>
<path d="M87.684 170.221H79.8835V173.539H87.684V170.221Z" fill="#DDE8FF"/>
<path d="M83.7838 165.244C83.7838 165.244 81.7037 168.945 79.8835 170.221H87.684C85.8639 168.945 83.7838 165.244 83.7838 165.244Z" fill="#DDE8FF"/>
<path d="M109.265 172.39C108.355 171.88 107.835 169.71 107.835 169.71C107.835 169.71 107.315 171.88 106.405 172.39C105.495 172.901 103.675 173.284 103.675 176.602C103.675 179.92 103.675 186.173 103.675 186.173H107.835H111.995C111.995 186.173 111.995 179.792 111.995 176.602C111.995 173.284 110.175 172.901 109.265 172.39Z" fill="#DDE8FF"/>
<path d="M103.675 173.284H95.8745V186.301H103.675V173.284Z" fill="#DDE8FF"/>
<path d="M103.675 170.221H95.8745V173.539H103.675V170.221Z" fill="#DDE8FF"/>
<path d="M99.7747 165.244C99.7747 165.244 97.6946 168.945 95.8745 170.221H103.675C101.985 168.945 99.7747 165.244 99.7747 165.244Z" fill="#DDE8FF"/>
<path d="M119.796 173.284H111.995V186.301H119.796V173.284Z" fill="#B0CBFF"/>
<path d="M119.796 170.221H111.995V173.539H119.796V170.221Z" fill="#B0CBFF"/>
<path d="M115.896 151.461C115.896 151.461 113.815 168.945 111.995 170.093H119.796C117.976 168.945 115.896 151.461 115.896 151.461Z" fill="#DDE8FF"/>
<path d="M119.796 218.206H47.7717V219.61H119.796V218.206Z" fill="#DDE8FF"/>
<path d="M20.9608 117.28C1.03554 147.474 6.53745 191.243 13.0461 214.342C14.0969 218.072 17.4699 220.594 21.3378 220.821C23.7386 220.961 26.1988 220.68 28.2629 219.446C48.9564 207.078 45.913 160.072 41.5344 137.064L29.0515 151.198L20.9608 117.28Z" fill="#FFCC00"/>
<path d="M15.6506 149.344C1.95677 170.095 5.73801 200.176 10.2111 216.051C10.9333 218.614 13.2514 220.348 15.9097 220.503C17.5596 220.6 19.2505 220.406 20.669 219.559C34.8908 211.059 32.7992 178.753 29.79 162.941L21.211 172.655L15.6506 149.344Z" fill="#FF6B0A"/>
<path d="M153.747 28.0255C119.309 80.2109 128.818 155.86 140.068 195.783C141.884 202.229 147.714 206.589 154.399 206.98C158.548 207.223 162.8 206.737 166.368 204.604C202.134 183.228 196.873 101.985 189.306 62.2192L167.731 86.6474L153.747 28.0255Z" fill="#FFCC00"/>
<path d="M144.568 83.4433C120.901 119.308 127.436 171.299 135.167 198.736C136.415 203.166 140.422 206.162 145.016 206.431C147.868 206.598 150.79 206.264 153.242 204.799C177.822 190.108 174.207 134.273 169.006 106.943L154.179 123.732L144.568 83.4433Z" fill="#FF6B0A"/>
</svg>
