<svg width="207" height="323" viewBox="0 0 207 323" fill="none" xmlns="http://www.w3.org/2000/svg">
<path d="M65.0627 238.753H18V317.239H65.0627V238.753Z" fill="#4C89FF"/>
<path d="M190 238.753H102.375V317.239H190V238.753Z" fill="#4C89FF"/>
<path d="M24.8904 238.88H18V226.756L21.3802 229.054L24.8904 226.756V238.88Z" fill="#4C89FF"/>
<path d="M38.4114 238.88H31.521V226.756L34.9012 229.054L38.4114 226.756V238.88Z" fill="#4C89FF"/>
<path d="M135.917 238.88H129.156V226.756L132.536 229.054L135.917 226.756V238.88Z" fill="#4C89FF"/>
<path d="M149.438 238.88H142.547V226.756L146.058 229.054L149.438 226.756V238.88Z" fill="#4C89FF"/>
<path d="M162.958 238.88H156.068V226.756L159.578 229.054L162.958 226.756V238.88Z" fill="#4C89FF"/>
<path d="M176.479 238.88H169.589V226.756L173.099 229.054L176.479 226.756V238.88Z" fill="#4C89FF"/>
<path d="M190 238.88H183.109V226.756L186.62 229.054L190 226.756V238.88Z" fill="#4C89FF"/>
<path d="M83.7837 20.906L64.9326 87.2682L83.7837 100.541L102.505 87.2682L83.7837 20.906Z" fill="#84ADFF"/>
<path d="M83.7837 7.76117L86.3839 12.9936L92.3642 13.8869L88.074 17.9707L89.1141 23.8412L83.7837 21.1612L78.4534 23.8412L79.4935 17.9707L75.0732 13.8869L81.0536 12.9936L83.7837 7.76117Z" fill="#D52B1E"/>
<path d="M105.625 89.8206H61.9424V275.38H105.625V89.8206Z" fill="#4C89FF"/>
<path d="M71.6929 83.312C70.1329 82.4186 69.2228 78.7177 69.2228 78.7177C69.2228 78.7177 68.3128 82.5462 66.7527 83.312C65.1926 84.2053 61.9424 84.8434 61.9424 90.5863C61.9424 96.3292 61.9424 107.432 61.9424 107.432H69.2228H76.5032C76.5032 107.432 76.5032 96.3292 76.5032 90.5863C76.5032 84.8434 73.253 84.2053 71.6929 83.312Z" fill="#DDE8FF"/>
<path d="M71.1729 85.0986C70.0028 84.4605 69.2228 81.5253 69.2228 81.5253C69.2228 81.5253 68.4427 84.4605 67.2727 85.0986C66.1026 85.7367 63.5024 86.2472 63.5024 90.8415C63.5024 95.3082 63.5024 107.432 63.5024 107.432H74.8131C74.8131 107.432 74.8131 95.3082 74.8131 90.8415C74.8131 86.2472 72.343 85.7367 71.1729 85.0986Z" fill="#4C89FF"/>
<path d="M86.254 83.312C84.6939 82.4186 83.7838 78.7177 83.7838 78.7177C83.7838 78.7177 82.8738 82.5462 81.3137 83.312C79.7536 84.2053 76.5034 84.8434 76.5034 90.5863C76.5034 96.3292 76.5034 107.432 76.5034 107.432H83.7838H91.0643C91.0643 107.432 91.0643 96.3292 91.0643 90.5863C91.0643 84.8434 87.8141 84.2053 86.254 83.312Z" fill="#DDE8FF"/>
<path d="M85.7339 85.0986C84.5639 84.4605 83.7838 81.5253 83.7838 81.5253C83.7838 81.5253 83.0038 84.4605 81.8337 85.0986C80.6636 85.7367 78.0635 86.2472 78.0635 90.8415C78.0635 95.3082 78.0635 107.432 78.0635 107.432H89.3741C89.3741 107.432 89.3741 95.3082 89.3741 90.8415C89.3741 86.2472 86.904 85.7367 85.7339 85.0986Z" fill="#4C89FF"/>
<path d="M100.815 83.312C99.2544 82.4186 98.3444 78.7177 98.3444 78.7177C98.3444 78.7177 97.4343 82.5462 95.8742 83.312C94.3142 84.2053 91.064 84.8434 91.064 90.5863C91.064 96.3292 91.064 107.432 91.064 107.432H98.3444H105.625C105.625 107.432 105.625 96.3292 105.625 90.5863C105.625 84.8434 102.375 84.2053 100.815 83.312Z" fill="#DDE8FF"/>
<path d="M100.294 85.0986C99.1244 84.4605 98.3444 81.5253 98.3444 81.5253C98.3444 81.5253 97.5643 84.4605 96.3942 85.0986C95.2242 85.7367 92.624 86.2472 92.624 90.8415C92.624 95.3082 92.624 107.432 92.624 107.432H103.935C103.935 107.432 103.935 95.3082 103.935 90.8415C103.935 86.2472 101.465 85.7367 100.294 85.0986Z" fill="#4C89FF"/>
<path d="M63.5024 98.754C63.5024 103.093 63.5024 107.304 63.5024 107.304H74.8131C74.8131 107.304 74.8131 103.093 74.8131 98.754H63.5024Z" fill="#B0CBFF"/>
<path d="M78.0635 98.754C78.0635 103.093 78.0635 107.304 78.0635 107.304H89.3741C89.3741 107.304 89.3741 103.093 89.3741 98.754H78.0635Z" fill="#B0CBFF"/>
<path d="M92.624 98.754C92.624 103.093 92.624 107.304 92.624 107.304H103.935C103.935 107.304 103.935 103.093 103.935 98.754H92.624Z" fill="#B0CBFF"/>
<path d="M105.625 107.432H61.9424V275.38H105.625V107.432Z" fill="#B0CBFF"/>
<path d="M105.625 107.432H61.9424V114.834H105.625V107.432Z" fill="#DDE8FF"/>
<path d="M109.395 134.487H58.042V286.227H109.395V134.487Z" fill="#B0CBFF"/>
<path d="M109.395 134.487H58.042V139.209H109.395V134.487Z" fill="#DDE8FF"/>
<path d="M119.796 175.581H47.7715V317.239H119.796V175.581Z" fill="#B0CBFF"/>
<path d="M119.796 175.581H47.7715V317.239H119.796V175.581Z" fill="#4C89FF"/>
<path d="M111.605 175.581H55.832V317.239H111.605V175.581Z" fill="#B0CBFF"/>
<path d="M54.1419 175.581H47.7715V317.239H54.1419V175.581Z" fill="#B0CBFF"/>
<path d="M119.796 175.581H113.425V317.239H119.796V175.581Z" fill="#B0CBFF"/>
<path d="M119.796 186.173H47.7715V189.619H119.796V186.173Z" fill="#DDE8FF"/>
<path d="M101.205 143.293V134.743C101.205 126.958 93.5344 124.533 89.7642 123.385C85.9939 122.236 83.7838 117.131 83.7838 117.131C83.7838 117.131 81.5737 122.236 77.8035 123.385C74.0332 124.533 66.3628 126.958 66.3628 134.743V143.293H101.205Z" fill="#DDE8FF"/>
<path d="M103.025 146.611C103.025 157.076 94.4442 165.499 83.7836 165.499C73.123 165.499 64.5425 157.076 64.5425 146.611C64.5425 136.147 73.123 127.724 83.7836 127.724C94.4442 127.596 103.025 136.147 103.025 146.611Z" fill="#DDE8FF"/>
<path d="M100.295 146.611C100.295 155.545 92.8842 162.947 83.6537 162.947C74.5531 162.947 67.0127 155.672 67.0127 146.611C67.0127 137.678 74.4231 130.276 83.6537 130.276C92.8842 130.276 100.295 137.55 100.295 146.611Z" fill="#4C89FF"/>
<path d="M85.9936 143.166L86.3836 143.676L84.0435 145.463H83.9135C83.5234 145.463 83.2634 145.718 83.2634 146.101C83.2634 146.356 83.3934 146.484 83.6535 146.611V152.992H83.0034L83.7835 155.672L84.8235 152.992H84.1735V146.739C84.4335 146.611 84.5635 146.484 84.5635 146.101C84.5635 145.973 84.5635 145.973 84.5635 145.846L86.7736 144.187L87.1637 144.697L89.1138 142.528L85.9936 143.166Z" fill="#DDE8FF"/>
<path d="M61.0322 172.39C60.1222 171.88 59.6021 169.71 59.6021 169.71C59.6021 169.71 59.0821 171.88 58.1721 172.39C57.262 172.901 55.4419 173.284 55.4419 176.602C55.4419 179.92 55.4419 186.173 55.4419 186.173H59.6021H63.7624C63.7624 186.173 63.7624 179.792 63.7624 176.602C63.7624 173.284 61.9423 172.901 61.0322 172.39Z" fill="#DDE8FF"/>
<path d="M55.5719 173.284H47.7715V186.301H55.5719V173.284Z" fill="#B0CBFF"/>
<path d="M55.5719 170.221H47.7715V173.539H55.5719V170.221Z" fill="#B0CBFF"/>
<path d="M51.5418 151.461C51.5418 151.461 49.4617 168.945 47.6416 170.093H55.4421C53.752 168.945 51.5418 151.461 51.5418 151.461Z" fill="#DDE8FF"/>
<path d="M77.1533 172.39C76.2433 171.88 75.7232 169.71 75.7232 169.71C75.7232 169.71 75.2032 171.88 74.2931 172.39C73.3831 172.901 71.563 173.284 71.563 176.602C71.563 179.92 71.563 186.173 71.563 186.173H75.7232H79.8835C79.8835 186.173 79.8835 179.792 79.8835 176.602C79.8835 173.284 78.0634 172.901 77.1533 172.39Z" fill="#DDE8FF"/>
<path d="M71.5631 173.284H63.7627V186.301H71.5631V173.284Z" fill="#DDE8FF"/>
<path d="M71.5631 170.221H63.7627V173.539H71.5631V170.221Z" fill="#DDE8FF"/>
<path d="M67.6629 165.244C67.6629 165.244 65.5828 168.945 63.7627 170.221H71.5631C69.743 168.945 67.6629 165.244 67.6629 165.244Z" fill="#DDE8FF"/>
<path d="M93.144 172.39C92.234 171.88 91.714 169.71 91.714 169.71C91.714 169.71 91.1939 171.88 90.2839 172.39C89.3738 172.901 87.5537 173.284 87.5537 176.602C87.5537 179.92 87.5537 186.173 87.5537 186.173H91.714H95.8742C95.8742 186.173 95.8742 179.792 95.8742 176.602C95.8742 173.284 94.0541 172.901 93.144 172.39Z" fill="#DDE8FF"/>
<path d="M87.6838 173.284H79.8833V186.301H87.6838V173.284Z" fill="#DDE8FF"/>
<path d="M87.6838 170.221H79.8833V173.539H87.6838V170.221Z" fill="#DDE8FF"/>
<path d="M83.7835 165.244C83.7835 165.244 81.7034 168.945 79.8833 170.221H87.6838C85.8636 168.945 83.7835 165.244 83.7835 165.244Z" fill="#DDE8FF"/>
<path d="M109.265 172.39C108.355 171.88 107.835 169.71 107.835 169.71C107.835 169.71 107.315 171.88 106.405 172.39C105.495 172.901 103.675 173.284 103.675 176.602C103.675 179.92 103.675 186.173 103.675 186.173H107.835H111.995C111.995 186.173 111.995 179.792 111.995 176.602C111.995 173.284 110.175 172.901 109.265 172.39Z" fill="#DDE8FF"/>
<path d="M103.675 173.284H95.8745V186.301H103.675V173.284Z" fill="#DDE8FF"/>
<path d="M103.675 170.221H95.8745V173.539H103.675V170.221Z" fill="#DDE8FF"/>
<path d="M99.7747 165.244C99.7747 165.244 97.6946 168.945 95.8745 170.221H103.675C101.985 168.945 99.7747 165.244 99.7747 165.244Z" fill="#DDE8FF"/>
<path d="M119.796 173.284H111.995V186.301H119.796V173.284Z" fill="#B0CBFF"/>
<path d="M119.796 170.221H111.995V173.539H119.796V170.221Z" fill="#B0CBFF"/>
<path d="M115.895 151.461C115.895 151.461 113.815 168.945 111.995 170.093H119.796C117.975 168.945 115.895 151.461 115.895 151.461Z" fill="#DDE8FF"/>
<path d="M119.796 218.206H47.7715V219.61H119.796V218.206Z" fill="#DDE8FF"/>
<path d="M20.3446 127.852C0.816253 154.555 6.24687 193.339 12.7986 214.284C13.9873 218.084 17.4934 220.596 21.4679 220.828C23.7876 220.964 26.163 220.736 28.2158 219.647C48.8691 208.697 45.5456 166.435 41.0288 145.738L28.6344 158.354L20.3446 127.852Z" fill="#FFCC00"/>
<path d="M15.1039 158.727C1.76605 176.384 5.47746 202.045 9.98661 216.004C10.8347 218.629 13.2723 220.349 16.0263 220.51C17.6037 220.602 19.2184 220.456 20.6257 219.737C34.8139 212.496 32.4736 184.401 29.3415 170.64L20.8411 179.006L15.1039 158.727Z" fill="#FF6B0A"/>
<path d="M153.048 40.0154C119.057 88.2349 128.491 158.216 139.792 195.703C141.759 202.23 147.74 206.59 154.544 206.988C158.603 207.226 162.76 206.801 166.317 204.832C202.033 185.062 196.456 109.201 188.732 72.0571L167.257 94.7637L153.048 40.0154Z" fill="#FFCC00"/>
<path d="M143.965 93.7963C120.684 126.24 127.153 173.343 134.928 198.674C136.309 203.173 140.445 206.164 145.143 206.439C147.916 206.601 150.756 206.319 153.197 204.995C177.737 191.692 173.848 140.504 168.511 115.438L153.771 130.74L143.965 93.7963Z" fill="#FF6B0A"/>
</svg>
