<svg width="179" height="271" viewBox="0 0 179 271" fill="none" xmlns="http://www.w3.org/2000/svg">
<rect x="65.981" y="16" width="16.3672" height="162.184" fill="#4C89FF"/>
<rect x="140.378" y="118.667" width="14.8793" height="87.7879" transform="rotate(90 140.378 118.667)" fill="#4C89FF"/>
<rect x="152.281" y="163.305" width="14.8793" height="86.3" transform="rotate(90 152.281 163.305)" fill="#4C89FF"/>
<rect x="177" y="249.488" width="14.8793" height="89.8257" transform="rotate(163.626 177 249.488)" fill="#4C89FF"/>
<rect x="101.691" y="93.3724" width="14.8793" height="49.1017" transform="rotate(90 101.691 93.3724)" fill="#4C89FF"/>
<rect x="101.691" y="18.976" width="14.8793" height="35.7103" transform="rotate(90 101.691 18.976)" fill="#4C89FF"/>
<path fill-rule="evenodd" clip-rule="evenodd" d="M101.691 18.976C107.689 18.976 113.638 20.1076 119.201 22.3157C124.765 24.5241 129.847 27.7717 134.149 31.8936C138.451 36.0164 141.889 40.9354 144.243 46.3824C146.599 51.8307 147.817 57.6874 147.817 63.6139C147.817 69.5404 146.599 75.3971 144.243 80.8453C141.889 86.2923 138.451 91.2114 134.149 95.3341C129.847 99.456 124.765 102.704 119.201 104.912C113.638 107.12 107.689 108.252 101.691 108.252V93.3725C105.854 93.3725 109.967 92.3341 113.791 90.8162C117.615 89.2985 121.061 87.0846 123.945 84.3216C126.827 81.5595 129.088 78.3049 130.622 74.7562C132.155 71.2089 132.938 67.4242 132.938 63.6139C132.938 59.8036 132.155 56.0188 130.622 52.4715C129.088 48.9229 126.827 45.6683 123.945 42.9062C121.061 40.1431 117.615 37.9293 113.791 36.4116C109.967 34.8936 105.854 33.8553 101.691 33.8553V18.976Z" fill="#4C89FF"/>
<path fill-rule="evenodd" clip-rule="evenodd" d="M55.0564 152.787C45.9589 154.977 37.6617 159.685 31.1141 166.37C24.5665 173.055 20.0329 181.448 18.0321 190.589C16.0313 199.731 16.644 209.25 19.8001 218.06C22.9563 226.869 28.5284 234.612 35.8789 240.402C43.2295 246.193 52.0617 249.798 61.3649 250.804C70.6682 251.81 80.0669 250.178 88.4856 246.092C96.9044 242.007 104.003 235.635 108.97 227.704C113.937 219.774 116.571 210.605 116.571 201.247H131.45C131.45 213.398 128.03 225.304 121.58 235.602C115.131 245.9 105.913 254.174 94.9813 259.479C84.0495 264.783 71.8453 266.904 59.7649 265.597C47.6845 264.291 36.2159 259.61 26.6711 252.09C17.1264 244.571 9.89095 234.517 5.79268 223.078C1.69441 211.639 0.898809 199.278 3.4969 187.408C6.09498 175.538 11.9818 164.639 20.4839 155.959C28.986 147.278 39.76 141.165 51.5732 138.321L55.0564 152.787Z" fill="#B0CBFF"/>
<path d="M126.322 6.72876C103.653 41.021 109.908 90.7293 117.312 116.971C118.51 121.216 122.35 124.087 126.753 124.344C129.484 124.503 132.282 124.184 134.63 122.783C158.178 108.734 154.715 55.3377 149.733 29.202L135.528 45.257L126.322 6.72876Z" fill="#FFCC00"/>
<path d="M37.0589 163.455C22.9107 184.857 26.8144 215.881 31.4357 232.259C32.1832 234.908 34.58 236.7 37.3281 236.86C39.0322 236.96 40.7785 236.76 42.2444 235.886C56.9409 227.118 54.7795 193.792 51.6699 177.481L42.8047 187.501L37.0589 163.455Z" fill="#FFCC00"/>
<path d="M120.279 43.1512C104.7 66.7189 108.998 100.881 114.087 118.916C114.91 121.834 117.549 123.806 120.576 123.983C122.452 124.093 124.375 123.873 125.989 122.91C142.173 113.255 139.793 76.5581 136.368 58.5962L126.606 69.6301L120.279 43.1512Z" fill="#FF6B0A"/>
<path d="M33.2876 186.187C23.5642 200.896 26.2471 222.217 29.4231 233.473C29.9368 235.294 31.584 236.525 33.4727 236.635C34.6438 236.703 35.844 236.566 36.8514 235.965C46.9517 229.94 45.4663 207.036 43.3292 195.826L37.2365 202.712L33.2876 186.187Z" fill="#FF6B0A"/>
</svg>
